<?xml version="1.0" encoding="utf-8"?>
<!-- Generator: Adobe Illustrator 26.3.1, SVG Export Plug-In . SVG Version: 6.00 Build 0)  -->
<svg version="1.1" id="Calque_1" xmlns="http://www.w3.org/2000/svg" xmlns:xlink="http://www.w3.org/1999/xlink" x="0px" y="0px"
	 viewBox="0 0 2000 2000" style="enable-background:new 0 0 2000 2000;" xml:space="preserve">
<style type="text/css">
	.st0{clip-path:url(#SVGID_00000114792322131939441170000007678619468780450746_);fill:#FFFFFF;}
	.st1{fill:#F5E9D9;}
	.st2{fill:#E2B590;}
</style>
<g>
	<defs>
		<rect id="SVGID_1_" x="0.06" width="1999.94" height="2000"/>
	</defs>
	<clipPath id="SVGID_00000024683773894344865800000015086505879439379369_">
		<use xlink:href="#SVGID_1_"  style="overflow:visible;"/>
	</clipPath>
	
		<rect x="0.06" style="clip-path:url(#SVGID_00000024683773894344865800000015086505879439379369_);fill:#FFFFFF;" width="1999.94" height="2000"/>
</g>
<path class="st1" d="M628.21,449.92c210-146,327.57-86.93,392,0c189,255-100,376-108,675c-1.89,70.61,93,207,269,199
	c141.56-6.44,308.78-129.34,358.04-98.34c49.27,31.01,56.15,104.3-5.46,195.76c-97,144-254.9,240.91-484.58,255.58
	c-229.41,14.65-451.59-189.88-535.42-353.58S370.01,629.43,628.21,449.92"/>
<path class="st2" d="M1489.09,1142.74c36.77-47.68,147.12-206.08-41.31-373c-203.15-179.95-359.27-10.76-403.69,64.71
	c-70.53,119.83-76.35,174.24-26.22,317.56C1068.01,1295.32,1338.21,1338.38,1489.09,1142.74"/>
<path d="M1036.2,1633.12c-17.6,0-35.56-0.87-53.64-2.79c-56.56-6.01-108.93-21.44-155.64-45.86
	c-54.72-28.61-101.42-69.55-138.8-121.69c-45.64-63.64-63.57-127.07-77.97-178.04c-16.51-58.41-29.18-103.22-73.76-121.58
	c-15.45,25.69-21.26,60.1-16.86,100.88c0.07,0.64-0.18,1.28-0.66,1.71c-0.48,0.43-1.15,0.59-1.78,0.45
	c-20.36-4.77-35.8-15.16-44.67-30.05c-7.51-12.61-10.09-28.06-7.27-43.52c4.73-25.92,22.87-43.54,42.18-41
	c10.03,1.32,19.14,3.5,27.44,6.59c3.24-5.03,6.86-9.72,10.84-14.05c20.84-22.64,50.88-34.17,86.88-33.26
	c39.37,0.96,64.44,18.49,79.19,34.46c7.12-31.41,20.62-63.9,39.52-94.92c25.14-41.27,66.15-74.89,112.51-92.24
	c38.73-14.49,100.16-24.6,172.84,9.57c59.69,28.06,102.14,71.38,122.76,125.27c19.11,49.93,17.54,105.05-4.41,155.19
	c-18.43,42.09-51.9,69.94-89.55,74.5c-29.89,3.61-58.03-8.68-77.22-33.74c-0.43-0.57-0.53-1.32-0.26-1.98
	c0.27-0.65,0.87-1.12,1.57-1.22c61.44-8.68,90.19-47.85,91.44-82.83c1.2-33.9-21.67-60.88-58.28-68.73
	c-29.77-6.39-54.79-1.91-74.38,13.3c-23.6,18.34-38.6,52.53-40.1,91.47c-1.78,45.96,25.46,152.44,117.98,169.44
	c84.02,15.43,138.77-8.62,202.03-88.72c73.05-92.5,46.09-208.87-13.03-283.16c-61.28-77.01-109.64-91.86-110.12-92
	c-0.9-0.26-1.5-1.12-1.44-2.05c0.06-0.93,0.77-1.7,1.69-1.84c0.95-0.15,23.61-3.52,57.78,3.9c31.46,6.82,78.88,24.54,126.15,70.17
	c18.66,18.02,36.25,41.48,50.87,67.85c17.03,30.71,28.96,63.28,35.47,96.79c7.55,38.92,7.41,77.81-0.45,115.58
	c-8.98,43.24-28.12,84.95-56.89,123.95c-41.57,56.38-98.48,90.45-169.14,101.29c-61.73,9.46-118.01-1.57-146.07-8.98
	c-43.91-11.6-89.26-49.68-121.3-101.85c-16.13-26.27-28.08-55.2-34.56-83.66c-7.12-31.31-7.82-61.75-2.07-90.48
	c12.11-60.53,51.71-100.81,74.24-119.43c27.81-22.98,59.75-38.14,81.04-38.97c-39.66-25.07-100.06-4.41-127.56,10.77
	c-70.76,39.04-132.29,139.59-113.01,256.23c17.56,106.18,130.35,216.89,241.38,236.91c87.91,15.84,202.97-12.6,300.27-74.24
	c95.37-60.42,156.97-218.36,148.33-319.21c-18.56-216.7-154.11-279.19-233.25-297.15c-27.75-6.3-57.85-17.45-82.92-30.7
	c-19.4,13.69-31.75,31.89-41.28,45.94c-8.49,12.51-14.11,20.76-20.94,19.76c-9.06-1.33-20.48-6.79-32.38-14.04
	c-4.6,10.89-6.87,18.07-6.93,18.25c-0.17,0.57-0.6,1.04-1.16,1.26c-0.55,0.22-1.18,0.19-1.71-0.1
	c-1.22-0.67-29.88-16.47-36.23-23.23c-5.82-6.19-6.45-16.76-1.95-30.94c-2.57-2.05-4.98-4-7.2-5.79c-4.77-3.84-8.54-6.88-11.15-8.84
	c-63.06-47.21-93.14-34.28-122.24-21.77c-18.06,7.76-36.73,15.79-62.58,9.48c-29.13-7.11-49.96-21.34-64.08-34.91
	c-31.09-18.13-56.41-39.98-75.49-65.19c-17.91-23.66-30.44-50.43-37.25-79.59c-5.23-22.41-5.2-38.66-5.17-51.71
	c0.01-2.64,0.01-5.14-0.03-7.49c-3.14-12.98-6.95-20.31-11.76-29.58c-3.7-7.14-7.9-15.22-12.79-27.71
	c-0.05-0.13-0.09-0.27-0.11-0.42c-5.14-32.32,31.62-91.75,70.33-136.31c23.37-26.91,48.32-49.85,72.14-66.34
	c27.15-18.79,51.08-28.14,71.1-27.81c0.23,0.01,0.46,0.05,0.68,0.13c6.84,2.62,14.62,7.01,22.85,11.66
	c7.21,4.07,14.99,8.46,22.93,12.08c25.14-4.38,50.98-2.63,78.01,5.2c49.88,14.46,91.17,48.25,119.51,84.35
	c1.69-5.07,4.52-9.59,8.41-13.4c7.31-7.14,18.32-11.37,28-10.76c1.72,0.11,3.79,0.45,4.59,2.21c0.95,2.07-0.63,4.14-2.82,6.99
	c-6.08,7.94-16.25,21.22,9.67,42.19c13.74,11.11,33.84,16.01,55.12,21.21c33.92,8.27,72.37,17.65,94.53,55.1
	c17.42,29.45,20.13,60.89,7.63,88.52c-11.85,26.18-37.17,47.04-63.01,51.92c-26.62,5.02-50.62,0.53-69.41-12.99
	c-5.76-4.15-10.98-9.15-15.53-14.8c15.05,22.95,34.08,42.46,47.86,53.11c15.41-6.85,25.43-6.73,30.87-5.6
	c7.3,1.51,25.75,15,39.22,33.52c0.45,0.62,0.5,1.45,0.14,2.13c-0.37,0.68-1.09,1.07-1.86,1.05c-9.01-0.45-18.42,0.64-27.95,3.12
	c3.5,5.16,4.15,9.38,2.41,13.18c-0.19,0.42-0.52,0.75-0.93,0.96c-37.4,18.7-66.92,46.13-91.31,73.17
	c7.41,8.6,21.25,18.65,39.07,28.29c14.28-9.63,32.14-16.96,54.83-18.8c28.07-2.28,63.36,4.2,99.38,18.23
	c39.18,15.27,77.15,38.49,109.81,67.16c33.32,29.24,60.17,63.12,79.83,100.69c22.23,42.5,34.72,88.98,37.14,138.13
	c5.42,110.38-29.82,210.03-104.77,296.18c-64.94,74.65-142.85,119.27-183.51,139.22C1184.9,1615.88,1114.17,1633.12,1036.2,1633.12
	 M538.55,1159.72c17.37,7.28,30.98,18.86,41.78,35.28c15.1,22.98,23.71,53.41,33.67,88.65c14.32,50.67,32.15,113.73,77.37,176.8
	c86.55,120.71,206.35,156.84,291.61,165.9c97.4,10.34,191.39-9.76,241.33-34.26c70.38-34.54,299.01-167.72,286.04-431.62
	c-5.71-116.21-66.02-192.48-115.6-236.01c-72.88-63.96-156.08-88.48-206.23-84.41c-21.14,1.72-37.82,8.18-51.28,16.87
	c22.52,11.73,50.73,22.65,80.09,29.31c38.66,8.77,94.72,29.05,142.3,75.86c54.2,53.33,85.84,128.97,94.05,224.83
	c4.29,50.09-8.61,115.65-34.53,175.38c-28.66,66.07-69.73,118.48-115.64,147.56c-80.11,50.75-172.25,79.16-251.73,79.17
	c-17.87,0-35.08-1.44-51.39-4.38c-54.04-9.74-111.86-41.91-158.63-88.26c-46.27-45.85-77.61-101.22-85.99-151.93
	c-11.76-71.11,7.14-127.83,25.07-162.89c21.66-42.37,54.45-77.9,89.95-97.5c9.5-5.24,34.99-17.86,66.49-21.84
	c28.98-3.67,53.52,1.61,70.95,15.29c0.71,0.55,0.96,1.52,0.6,2.35c-0.35,0.83-1.22,1.32-2.11,1.2
	c-16.15-2.25-49.62,8.62-84.92,37.79c-22.12,18.29-61,57.82-72.87,117.13c-10.78,53.91,2.38,116.33,36.12,171.27
	c31.52,51.32,75.97,88.73,118.91,100.07c47.91,12.66,211.91,43.52,310.97-90.81c117.36-159.15,47.22-325.76-28.56-398.92
	c-46.52-44.91-93.12-62.36-124.02-69.09c-21.41-4.66-38.45-4.97-48.01-4.58c16.5,7.42,55.96,29.91,103.88,90.13
	c32.67,41.06,53.03,90.5,57.33,139.22c4.81,54.63-10.5,106.12-44.3,148.91c-32.07,40.61-61.31,66.09-92.04,80.19
	c-32.8,15.05-68.97,18.22-113.84,9.98c-50.45-9.27-79.7-44.62-95.36-72.65c-20.55-36.8-26.86-76.24-25.91-100.87
	c1.55-40.11,17.12-75.43,41.65-94.47c20.57-15.98,46.7-20.71,77.68-14.06c38.6,8.28,62.71,36.85,61.43,72.79
	c-1.28,35.97-30.07,76.15-91.44,86.12c18.23,22.1,44.08,32.83,71.44,29.52c36.23-4.38,68.51-31.34,86.37-72.12
	c39.79-90.89,12.58-214.61-116.39-275.24c-131.65-61.89-239.72,14.61-280.24,81.13c-21.92,35.98-33.75,68.98-39.61,96.61
	c20.61,24.5,27.13,54.08,24.43,72.55c-0.73,4.98-8.61,17.26-17.07,18.02c-3.66,0.33-8.73-1.38-12.11-11.39
	c-4-11.86-6.57-35.49-1.78-66.25c0.61-3.94,1.33-7.9,2.15-11.88c-13.9-15.89-38.51-34.31-78.24-35.29
	c-34.8-0.83-63.8,10.21-83.84,31.98C544.89,1150.85,541.56,1155.13,538.55,1159.72z M503.42,1155.37
	c-17.83,0-30.86,18.94-34.34,37.98c-4.54,24.89,4.96,57.33,46.18,68.27c-3.9-40.12,2.07-74.16,17.34-99.92
	c-7.65-2.79-16.2-4.84-25.81-6.11C505.65,1155.44,504.52,1155.37,503.42,1155.37z M713.97,1154.22
	c-6.85,35.92-3.56,62.07,0.07,72.82c2.04,6.06,4.72,8.96,7.96,8.69c5.9-0.53,12.93-10.92,13.47-14.62
	C737.94,1204.15,732.18,1177.24,713.97,1154.22z M994.33,879.03c-3.74,12.73-2.63,21.13,1.48,25.5c4.99,5.31,26.33,17.48,33.15,21.3
	c1.06-3.09,3.22-9.09,6.53-16.87C1021.14,899.88,1006.34,888.56,994.33,879.03z M1071.89,921.18c4.34,0.64,9.96-7.61,17.05-18.05
	c8.98-13.23,21.39-31.52,40.81-45.72c-17.36-9.52-30.57-19.21-38.14-27.84c-4.68,5.26-9.17,10.5-13.49,15.63
	c-17.76,21.14-30.17,45.23-37.61,62.21C1052.14,914.55,1063.23,919.91,1071.89,921.18z M995.64,874.96
	c12.01,9.56,27.01,21.11,41.45,30.31c7.58-17.22,20.11-41.39,37.97-62.64c4.48-5.33,9.14-10.75,14-16.21
	c-1.62-2.21-2.84-4.32-3.62-6.33c-1.73-4.44-1.45-8.36,0.83-11.66c16.27-23.54,37.03-43.27,60.06-57.06
	c10.38-6.22,20.79-10.98,30.99-14.22c-5.98-6.58-16.48-15.04-32.07-25.96c-0.67-0.47-1.35-0.96-2.04-1.47
	c-3.81,1.81-7.77,3.96-11.84,6.45c-22.21,13.58-47.53,36.59-75.27,68.38C1020.84,824.95,1002.7,854.76,995.64,874.96z
	 M894.51,824.17c20.47,0,45.6,8.21,80.48,34.33c2.67,2,6.47,5.06,11.27,8.93c1.89,1.52,3.92,3.16,6.07,4.88
	c1.08-2.93,2.35-5.99,3.83-9.19c10.22-22.14,29.9-50.22,56.93-81.2c38.13-43.71,66.48-64.98,86.57-74.93
	c-31.86-25.34-79.7-86.58-68.27-127.04c1.6-5.68,3.44-10.53,5.41-14.67c3.44-23.61,1.51-33.35-1.59-49.03
	c-1.44-7.28-3.89-15.24-7.28-23.6c-17.46-11.68-30.46-26.72-31.1-43.22c-0.11-3.07,0.09-6.02,0.61-8.84
	c-27.89-36.36-69.21-70.78-119.39-85.32c-25.33-7.34-48.48-8.9-69.9-6.1c2.87,1.1,5.74,2.06,8.59,2.83
	c0.82,0.22,1.41,0.93,1.47,1.77c0.07,0.84-0.41,1.64-1.18,1.98c-155.33,69.15-204.75,180.01-228.5,233.29
	c-3.62,8.13-6.48,14.55-9.09,19.4c-0.44,0.81-1.38,1.22-2.27,0.99c-0.89-0.23-1.51-1.05-1.49-1.97
	c1.03-52.09,13.95-95.34,76.89-162.32c29.03-30.89,61.02-62.15,98.16-81.49c14.45-7.53,29.03-12.9,43.82-16.13
	c-6.35-3.14-12.51-6.62-18.31-9.89c-7.96-4.5-15.5-8.75-21.98-11.28c-43.26-0.48-100.53,47.56-139.8,92.78
	C609.5,470.86,581,525.43,585.02,551.97c4.79,12.18,8.9,20.11,12.54,27.12c4.96,9.56,8.88,17.12,12.14,30.7
	c0.03,0.14,0.05,0.28,0.05,0.43c0.05,2.45,0.04,5.04,0.04,7.79c-0.03,12.85-0.06,28.84,5.07,50.79
	c13,55.65,46.12,100.85,98.65,134.79c-0.25-0.3-0.49-0.59-0.74-0.89c-15.61-18.99-24.9-41.31-24.25-58.25
	c0.02-0.6,0.31-1.16,0.79-1.52c0.48-0.36,1.1-0.49,1.68-0.34c41.01,10.09,118.32,21.1,136.3,23.6
	c-9.04-17.73-49.09-96.88-56.34-122.51c-0.15-0.54-0.07-1.11,0.22-1.59c0.29-0.48,0.77-0.81,1.32-0.92
	c11.22-2.22,39.11-0.05,68.64,2.25c17.32,1.35,35.22,2.74,48.89,3.11c19.55,0.52,22.93-1.37,23.5-1.96
	c-0.01-0.03-0.03-0.06-0.04-0.09c-14.56-27.73-33.64-88.51-39.27-125.07c-0.1-0.63,0.11-1.27,0.56-1.72
	c0.45-0.45,1.09-0.66,1.72-0.56c23.24,3.55,56.2,12.31,83.95,22.31c9.74,3.51,20.33,7.68,29.18,12.03
	c-4.32-28.13-4.92-77.22-5.04-123.77l-0.01-3.18c0-0.6,0.26-1.16,0.72-1.54c0.46-0.38,1.06-0.54,1.65-0.43
	c8.24,1.57,25.54,13.98,42.68,34.67c14.38,17.36,33.08,45.89,40.49,83.24c3.27,16.52-6.34,21.37-27.41,32.01
	c-11.32,5.72-26.84,13.55-46.37,26.04c-54.35,34.76-125.65,115.06-150.73,195.41c-0.85,2.71-1.66,5.48-2.44,8.15
	c-4.94,16.89-9.61,32.84-24.11,39.33c-14.63,6.55-36.99,2.2-70.35-13.69c-2.31-1.1-4.58-2.21-6.83-3.34
	c12.24,8.66,27.7,16.5,46.86,21.18c24.55,5.99,41.8-1.42,60.06-9.27C862.72,830.26,876.89,824.17,894.51,824.17z M726.19,811.34
	c7.71,4.46,15.79,8.71,24.23,12.73c31.79,15.14,53.7,19.61,67,13.66c12.82-5.74,17.24-20.83,21.91-36.8
	c0.79-2.69,1.6-5.47,2.46-8.22c11.77-37.71,34.08-77.69,64.5-115.62c26.95-33.6,58.99-63.47,87.89-81.96
	c19.71-12.6,35.33-20.49,46.73-26.24c20.92-10.56,27.97-14.12,25.28-27.66c-7.25-36.53-25.56-64.47-39.64-81.47
	c-14.78-17.84-29.79-29.47-37.97-32.59l0,0.51c0.06,22.73,0.15,57.08,1.68,86.36c0.97,18.54,2.32,31.13,3.76,39.67
	c9.04,4.85,15.43,9.8,15.68,14.2c0.19,3.29-2.45,5.71-7.85,7.18c-1.56,0.43-3.11,0.1-4.48-0.94c-2.92-2.22-5.17-8.52-6.91-17.76
	c-7.5-3.86-17.88-8.33-31.38-13.19c-26.46-9.53-57.67-17.92-80.48-21.68c6,35.89,24.64,94.85,38.42,121.11
	c1,1.91,0.38,3.36-0.08,4.06c-3.76,5.71-27.21,4.54-76.12,0.73c-26.23-2.04-53.3-4.15-65.37-2.66
	c9.63,30.41,56.66,122.08,57.15,123.03c0.34,0.66,0.28,1.46-0.15,2.07c-0.43,0.61-1.16,0.93-1.9,0.83
	c-0.92-0.12-90.75-12.3-138.06-23.6c0.32,15.68,9.11,35.75,23.36,53.09C718.77,803.7,722.2,807.49,726.19,811.34z M1180.03,740.42
	c-32.65,9.77-66.33,35.34-90.47,70.28c-1.5,2.17-1.63,4.76-0.4,7.93c0.59,1.5,1.47,3.09,2.63,4.75
	c24.41-26.99,53.94-54.36,91.34-73.2C1183.97,747.6,1183,744.41,1180.03,740.42z M1147.43,707.83c0.04,0.03,0.08,0.05,0.12,0.08
	c16.9,11.85,27.89,20.79,33.98,27.98c9.1-2.53,18.01-3.82,26.55-3.83c-13.11-16.7-29.23-27.62-34.32-28.68
	C1166.82,701.94,1157.76,703.51,1147.43,707.83z M1080.66,595.75c-0.38,3.8-0.36,7.71,0.19,11.71c3.08,22.5,15.36,43.46,32.86,56.06
	c17.87,12.87,40.81,17.13,66.33,12.31c24.62-4.65,48.77-24.59,60.1-49.64c8.46-18.69,14.03-48.57-7.43-84.84
	c-21.3-36-58.87-45.16-92.03-53.25c-21.73-5.3-42.25-10.31-56.69-21.98c-28.95-23.41-16.37-39.84-10.32-47.73
	c0.69-0.91,1.51-1.97,1.95-2.7c-0.2-0.03-0.47-0.06-0.8-0.08c-6.55-0.4-17.01,1.87-24.95,9.63c-4.09,3.99-6.84,8.91-8.17,14.48
	c12.79,16.92,22.72,34.2,29.36,50.12c11.49,7.58,25.06,13.8,38.48,17.89c5.53,1.69,11.52,3.16,17.87,4.73
	c29.91,7.37,67.15,16.54,81.07,57.07c4.69,13.65,2.27,32.36-6.02,46.58c-5.9,10.12-17.52,23.04-39.33,27.1
	c-4.1,0.76-8.22,1.14-12.32,1.14c-18.63,0-36.98-7.74-51.77-22.13C1090.97,614.35,1084.65,605.08,1080.66,595.75z M913.56,644.67
	L913.56,644.67z M1082.01,587.98c3.33,10.8,10.29,22.08,19.82,31.35c17.1,16.65,39.18,23.91,60.56,19.93
	c20.33-3.78,31.13-15.78,36.61-25.18c8.94-15.32,9.3-32.77,5.69-43.26c-13.21-38.46-47.76-46.97-78.24-54.48
	c-6.4-1.58-12.44-3.07-18.08-4.78c-11.78-3.59-23.93-8.84-34.8-15.34c2.5,6.77,4.37,13.23,5.56,19.25
	c2.64,13.38,4.55,23.03,2.78,40.95c11.98-17.03,26.09-15.13,26.87-15.01s1.41,0.69,1.62,1.44c0.21,0.76-0.04,1.57-0.64,2.07
	C1109.49,545.14,1088.12,563.28,1082.01,587.98z M1076.02,578.35c-0.27,0.87-0.53,1.76-0.79,2.67c-3.15,11.15-1.45,25.22,4.77,41.05
	c-1.41-4.59-2.46-9.3-3.12-14.08c-0.96-7.03-0.46-13.78,0.97-20.1C1076.93,584.66,1076.31,581.46,1076.02,578.35z M840.56,350.35
	c-58.05,10.54-103.3,53.05-145.09,97.52c-58.26,61.99-73.04,103.25-75.48,150.35c1.47-3.19,3.08-6.79,4.87-10.81
	c11.99-26.9,30.12-67.56,65.24-111.13c41.21-51.12,95.17-92.14,160.42-121.99C847.2,353.16,843.86,351.82,840.56,350.35z
	 M1080.66,566.45c-0.14,0.96-0.29,1.94-0.45,2.95c-0.52,3.3-0.51,6.86,0,10.55c5.8-15.96,16.81-28.33,22.83-34.27
	C1097.38,546.85,1088.11,551.2,1080.66,566.45z M994.99,558.82c1.76,8.23,3.54,11.17,4.81,12.14c0.48,0.36,0.77,0.32,1.01,0.26
	c3.13-0.85,4.97-2.01,4.91-3.09C1005.59,566.12,1002.13,562.91,994.99,558.82z M1040.88,445.19c-0.09,1.33-0.11,2.69-0.06,4.08
	c0.51,13.03,10.13,25.62,23.97,36.14C1058.85,472.45,1050.8,458.74,1040.88,445.19z"/>
</svg>
