<?xml version="1.0" encoding="utf-8"?>
<!-- Generator: Adobe Illustrator 26.3.1, SVG Export Plug-In . SVG Version: 6.00 Build 0)  -->
<svg version="1.1" id="Calque_1" xmlns="http://www.w3.org/2000/svg" xmlns:xlink="http://www.w3.org/1999/xlink" x="0px" y="0px"
	 viewBox="0 0 2000 2000" style="enable-background:new 0 0 2000 2000;" xml:space="preserve">
<style type="text/css">
	.st0{clip-path:url(#SVGID_00000052065014386380836050000004761096184803667387_);fill:#FFFFFF;}
	.st1{fill:#F5E9D9;}
	.st2{fill:#E2B590;}
</style>
<g>
	<defs>
		<rect id="SVGID_1_" x="0.06" width="1999.94" height="2000"/>
	</defs>
	<clipPath id="SVGID_00000119082030168287822540000010316717419651927960_">
		<use xlink:href="#SVGID_1_"  style="overflow:visible;"/>
	</clipPath>
	
		<rect x="0.06" style="clip-path:url(#SVGID_00000119082030168287822540000010316717419651927960_);fill:#FFFFFF;" width="1999.94" height="2000"/>
</g>
<path class="st1" d="M613.85,586.96c51.54-40.09,163-116,211,0s30,353,87,414c57,61,153,175,315,147s232-136,292-105
	c60,31,117,78,70,197s-248,355-512,395c-264,40-485-70-598-251S325.85,810.96,613.85,586.96"/>
<path class="st2" d="M1035.75,442.54c-160.71,144.99-130.1,306.9-118.36,360.99c11.74,54.09,91.1,310.68,331.71,286.56
	c240.62-24.11,358.82-328.96,327.59-403.35c-31.23-74.39-70.35-211.34-191.49-277.39C1264.06,343.3,1085.82,397.37,1035.75,442.54"
	/>
<path d="M975.24,1616.98c-104.36,0-184.58-35.39-235.51-61.91c-11.11,2.52-20.76,3.23-27.66,2.24
	c-23.17-3.31-39.64-11.29-41.96-20.34c-0.82-3.21-0.34-8.14,6.62-13.36c5.57-4.18,17.53,2.34,41.35,15.32
	c6.61,3.6,14.02,7.63,22.2,11.91c14.34-3.36,31.93-9.96,50.08-21.33c26.54-16.61,61.08-48.06,74.97-103.6
	c25.12-100.5,25.77-256.14,21.87-265.11c-0.43-0.56-0.53-1.31-0.26-1.98c0.31-0.75,1.04-1.23,1.85-1.23
	c21.54,0,45.48-12.05,60.08-21.04c-21.05,5.42-54.29,7.82-60.08,7.82c-25.76-1.22-46.07-3.15-63.98-4.86
	c-45.48-4.33-78.34-7.46-155.18,4.84c-74.31,11.89-117.55,13.17-128.52,3.82c-1.49-1.27-2.24-2.61-2.61-3.81
	c-5.36,3.32-8.85,5.9-9.31,7.25c-0.65,1.96-2.1,3.11-3.97,3.16c-0.04,0-0.08,0-0.12,0c-12.29,0-48.74-54.73-55.61-71.9
	c-2.11-5.28,0.01-13.85,4.75-23.89c-14.98,8.19-18.48,11.45-18.71,11.66c-0.43,0.42-1.02,0.62-1.61,0.56
	c-0.59-0.07-1.13-0.38-1.46-0.87c-0.36-0.54-8.87-13.47-13.2-34.05c-4-18.99-4.97-48.28,13.13-79.94
	c33.74-59.04,66.18-100.21,146.53-193.96c37.69-43.97,58.66-77.14,75.52-103.79c17.12-27.08,29.5-46.64,49.69-60.1
	c13.69-9.13,42.64-25.82,73.28-43.49c45.15-26.04,96.33-55.55,111.6-68.27c9.96-8.3,16.94-18.33,23.68-29.08
	c-14.9,10.84-28.96,21.92-41.55,31.83c-8.18,6.44-15.9,12.52-22.68,17.6c-10.2,7.65-26.62,17.56-41.81,25.24
	c-26.99,13.65-30.04,10.6-31.19,9.45c-2.39-2.39,0.42-6.13,1.35-7.36c4.15-5.53,10.08-22.49,16.94-42.13
	c14.48-41.42,34.31-98.15,60.79-121.69c28.27-25.13,68.63-10.72,107.66,3.21c15.91,5.68,30.93,11.04,44.64,13.53
	c0.96,0.17,1.66,1.02,1.64,1.99c-0.01,0.97-0.72,1.8-1.68,1.95c-46.86,7.4-65.57,28.94-80.27,51.71
	c28.48-19.44,59.13-36.51,88.14-42.73c12.8-2.74,24.2-7.95,36.26-13.47c44.52-20.35,94.98-43.41,244,40.42
	c0.1,0.06,0.19,0.12,0.28,0.19c3.97,3.2,9.4,6.76,14.65,10.2c14.19,9.3,22.8,15.27,21.17,20.73c-1.19,3.99-7.33,5.69-20.54,5.69
	c-7.15,0-13.41-0.33-19.47-0.66c-29.73-1.59-47.68-2.55-93.78,43.54c-31.17,31.18-49.12,70.67-58.72,105.8
	c7.26-6.77,16.01-12.98,26.22-18.6c44.88-24.68,55.42-42.19,64.72-57.63c8.69-14.43,16.2-26.89,47.29-41.4
	c56.22-26.23,92.55-26.67,117.82-1.4c25.54,25.54,89.14,91.48,89.78,92.14c0.66,0.69,0.75,1.75,0.2,2.53
	c-0.55,0.79-1.57,1.07-2.45,0.68c-0.75-0.33-76.07-33.17-135.13-17.06c-107.58,29.34-107.51,86.92-107.45,137.73
	c0.02,14.31,0.04,27.86-2.57,39.64c47.54,12.02,60.37-21.65,75.2-60.55c12.82-33.63,27.36-71.74,68.24-81.96
	c47.03-11.76,76.27-13.73,97.77-6.59c21.51,7.14,34.69,23.41,48.98,47.35c46.95,78.66,51.27,151.39,42.72,181.09
	c-0.17,0.61-0.62,1.1-1.22,1.32c-35.19,13.2-75.55-24.51-77.25-26.12c-0.4-0.38-0.63-0.9-0.63-1.45c0-0.68-0.51-67.7-41.77-84.21
	c-41.12-16.45-88.2-8.85-100.75,16.25c-3.73,7.46-6.31,22.49-9.29,39.89c-7.1,41.47-16.83,98.28-52.25,107.46
	c-22.44,5.82-59.21,9.65-63.5,2.15c-0.56-0.99-1.14-3.02,1.34-5.5c15.95-15.95,36.23-19.33,52.52-22.04l0.21-0.03
	c12.2-2.03,19.87-5.6,20.53-9.55c0.56-3.39-4.02-7.95-12.55-12.53c-0.07-0.04-0.14-0.08-0.21-0.13
	c-20.48-14.63-36.35-32.19-51.69-49.18c-30-33.22-55.92-61.91-106.22-58.04c-32.36,2.49-53.04,15.21-68.14,24.51
	c-11.17,6.88-19.25,11.84-27.17,9.87c-0.28-0.07-0.55-0.2-0.77-0.38c-77.63-62.7-93.88-123.81-101.7-153.18
	c-3.36-12.64-5.26-19.2-8.54-18.55c-27.45,5.49-42.19,14.34-57.8,23.72c-8.4,5.05-17.08,10.26-27.87,14.89
	c-37.04,15.88-84.85,68.84-84.85,75.62c0,6.11,3.15,11.15,9.37,15c14.04,8.68,40.43,9.68,63.95,5.66c-2.03-2.05-3.31-4.18-3.6-6.3
	c-0.7-5.26,3.94-9.29,13.81-11.98c15.86-4.32,28.22-9.7,39.12-14.43c21.44-9.32,35.61-15.47,52.98-2.45
	c12.46,9.35,25.6,26.22,26.61,40.4c0.41,5.81-1.23,10.6-4.88,14.25l-1.43,1.43c-8.93,8.99-22.44,22.58-44.99,26.92
	c-26.69,5.13-59.68-4.31-98.06-28.07c-32.27-19.98-124.81,45.22-165.36,85.78c-40.57,40.57-58.95,70.05-46.81,118.59
	c10.51,42.03,38.26,57.78,50.1,64.51c0.95,0.53,1.78,1.01,2.5,1.43c-0.17-1.98-0.5-4.75-0.84-7.62
	c-2.54-21.57-7.83-66.46,4.62-110.03c8.51-29.79,26.91-61.65,50.47-87.41c24.84-27.15,53.29-45.51,80.1-51.7
	c15.88-3.67,28.1,5.38,42.25,15.86c13.14,9.73,28.03,20.76,48.77,22.83c15.88,1.59,35.79-2.9,56.87-7.66
	c35.57-8.02,75.89-17.11,111.32-0.91c4.23,0.56,44.92,6.97,61.55,48.54c3.27,8.17,6.16,10.86,7.68,10.68
	c1.95-0.23,4.57-5,5.82-13.67c2.38-16.5-1.11-43.93-16.14-50.37c-8.62-3.69-10.17-4.87-9.25-7.02c0.75-1.75,1.34-3.13,27.89,5.11
	c16.14,5.01,32.28,10.78,43.18,15.45c5.78,2.48,12.3,5.09,19.2,7.86c38.32,15.36,63.15,26.29,59.37,37.65
	c-1.49,4.47-8.65,8.98-51.08,4.04c-18.14-2.11-36.13-5.24-42.98-6.48c1.66,7.6,7.66,28.81,24.34,38.82
	c24.79,14.88,82.08,23.75,161.92-0.2c54.77-16.43,80.55-46.41,80.81-46.71c0.35-0.41,0.84-0.66,1.38-0.7
	c0.53-0.04,1.06,0.13,1.47,0.49c35.17,30.78-35.24,176.91-38.25,183.12c-0.26,0.54-0.75,0.93-1.34,1.07
	c-0.58,0.14-1.2,0.01-1.67-0.36c-0.59-0.44-59.07-44.36-87.62-19.89c-8.18,7.01-14.89,22.45-22.66,40.33
	c-9.9,22.76-22.21,51.08-42.53,72.53c-23.87,25.21-53.99,36.34-92.12,34.06c-37.45-2.25-72.07-19.63-97.46-48.94
	c-23.54-27.18-36.69-61.75-34.32-90.22c4.33-51.92,32.31-106.66,85.09-111.94c25.61-2.56,47.49,8.5,63.36,23.71
	c-2.27-19.59-12.37-37.8-38.2-50.04c-29.02-13.75-57.89-14.92-85.81-3.5c-36.66,15.01-63.3,48.94-72.53,74.12
	c-35.9,97.91-9.85,188.58,77.42,269.47c96.37,89.31,239.68,100.61,356.61,28.11c14.59-9.04,29.55-20.9,44.4-35.03
	c5.71-27.37,10.03-54.64,14.03-79.97c5.39-34.06,10.48-66.23,17.85-92.04c17.09-59.79,44.24-98.8,64.01-121
	c22.81-25.62,43.14-37.24,50.1-37.24c0.11,0,0.21,0,0.31,0.01c2,0.11,3.36,1.19,3.65,2.89c8.92,53.07-9.94,127.13-51.74,203.18
	c-27.15,49.39-60.53,93.61-94.54,126.18c-4.2,20.02-9.16,40.09-15.29,59.51c-7.37,23.32-36.58,105.73-103.15,186.89
	c-32.1,39.14-68.24,72.17-107.42,98.17c-46.25,30.71-97.2,51.89-151.43,62.93C1037.22,1614.06,1005.23,1616.98,975.24,1616.98
	 M745.6,1553.6c65.71,33.76,177.41,79.64,324.68,49.64c259.63-52.89,349.58-315.51,358.98-345.28
	c5.52-17.45,10.07-35.46,13.99-53.49c-13.67,12.6-27.41,23.27-40.84,31.6c-52.02,32.25-109.21,48.13-165.26,48.13
	c-71.61,0.01-141.37-25.91-196.18-76.7c-50.04-46.39-80.55-96.4-90.66-148.65c-7.72-39.9-3.62-82.01,12.2-125.14
	c9.53-25.98,36.99-60.98,74.77-76.45c29.01-11.87,58.97-10.67,89.05,3.58c25.96,12.3,39.35,31.1,40.92,57.46
	c0.01,0.25,0.03,0.51,0.04,0.76c9.76,10.61,16.76,22.64,20.33,33.32c3.56,10.68,2.43,21.33-3.27,30.79
	c-7.24,12.03-21.09,20.79-37.03,23.45c-0.64,0.1-1.28-0.1-1.73-0.54c-0.46-0.45-0.67-1.09-0.58-1.72
	c0.89-6.27,3.48-14.37,6.48-23.75c5.58-17.45,12.55-39.25,11.78-60.06c-15.31-16.11-37.36-28.41-63.42-25.8
	c-50.49,5.05-77.32,58.03-81.51,108.29c-2.28,27.44,10.5,60.88,33.37,87.27c24.68,28.49,58.3,45.38,94.67,47.57
	c83.27,5,110.7-58.11,130.74-104.19c7.97-18.33,14.85-34.17,23.73-41.78c28.21-24.18,79.76,10.46,90.66,18.3
	c4.07-8.6,19.27-41.47,31.16-76.7c17.35-51.39,20.24-85.2,8.43-98.11c-6.17,6.6-31.95,31.57-81.28,46.37
	c-81.09,24.33-139.64,15.1-165.13-0.2c-22.08-13.25-26.59-43.2-26.77-44.46c-0.09-0.64,0.13-1.28,0.6-1.73
	c0.46-0.45,1.12-0.64,1.75-0.52c0.23,0.04,22.81,4.32,45.6,6.97c42.47,4.94,46.44-0.25,46.8-1.34c2.88-8.64-33.19-23.1-57.06-32.67
	c-6.92-2.78-13.46-5.4-19.29-7.89c-16.48-7.06-40.66-14.93-55.12-18.95c14.15,9.58,17.42,35.75,14.98,52.67
	c-0.87,6.07-3.24,16.35-9.31,17.08c-4.23,0.5-8.12-3.8-11.86-13.17c-16.54-41.35-58.18-46.05-58.59-46.09
	c-0.22-0.02-0.44-0.08-0.64-0.17c-34.27-15.81-74-6.86-109.05,1.05c-21.41,4.83-41.63,9.39-58.15,7.73
	c-21.83-2.18-37.19-13.56-50.75-23.6c-13.35-9.89-24.89-18.43-38.97-15.17c-52.35,12.08-109.6,73.23-127.63,136.31
	c-12.23,42.8-7,87.15-4.49,108.46c1.28,10.87,1.48,12.54-0.43,13.47c-0.34,0.17-1.53,0.61-2.71-0.57c-0.54-0.54-2.36-1.57-4.46-2.77
	c-12.29-6.98-41.09-23.32-52.01-67.01c-12.6-50.4,6.23-80.76,47.86-122.39c18.47-18.47,52.19-46,85.89-65.88
	c27.44-16.19,64.36-32.88,84.4-20.47c37.5,23.21,69.53,32.48,95.2,27.54c21.34-4.1,34.32-17.17,42.9-25.81l1.44-1.44
	c2.79-2.8,4.04-6.54,3.72-11.14c-0.91-12.84-13.57-28.9-25.02-37.48c-15.51-11.63-28.11-6.15-48.98,2.92
	c-11.03,4.79-23.53,10.22-39.66,14.62c-4.29,1.17-11.42,3.71-10.9,7.59c0.25,1.89,1.87,3.92,4.44,5.93
	c10-2.04,19.26-4.99,26.56-8.64c6.95-3.47,12.01-6.92,16.07-9.7c7.88-5.37,13.08-8.92,20.5-2.99c11.02,8.82,10.27,16.97,8.84,21.05
	c-3.39,9.66-16.97,16.94-31.6,16.94c-13.36,0-31.09-5.41-41.1-12.4c-25.13,4.91-54.28,4.17-70.13-5.63
	c-7.37-4.56-11.27-10.92-11.27-18.4c0-5.95,15.54-23.63,29.97-37.54c20.44-19.69,41.33-34.92,57.31-41.76
	c10.54-4.52,19.11-9.66,27.39-14.64c15.21-9.14,30.94-18.59,59.07-24.21c7.1-1.42,9.4,7.18,13.19,21.44
	c7.69,28.92,23.69,89.04,99.98,150.81c6.21,1.28,13.58-3.26,23.7-9.49c15.44-9.51,36.6-22.52,69.92-25.09
	c52.26-4.03,80.07,26.76,109.5,59.35c15.17,16.8,30.86,34.17,50.94,48.53c10.5,5.66,15.37,11.26,14.48,16.65
	c-1,6.06-9.01,10.38-23.82,12.85l-0.2,0.03c-15.73,2.62-35.31,5.89-50.35,20.92c-0.39,0.39-0.55,0.65-0.62,0.78
	c0.79,0.8,5.71,2.59,20.06,1.87c12.36-0.61,26.53-2.8,38.89-6.01c32.92-8.54,42.39-63.86,49.31-104.27
	c3.03-17.72,5.65-33.02,9.65-41.01c13.67-27.33,62.12-35.65,105.81-18.18c18.2,7.28,31.63,24.85,38.84,50.81
	c4.76,17.14,5.36,32.4,5.44,36.22c5.12,4.6,41.12,35.56,71.54,25.06c7.98-29.63,3.2-100.25-42.58-176.95
	c-13.82-23.15-26.47-38.86-46.81-45.6c-20.73-6.88-49.3-4.88-95.54,6.68c-38.86,9.71-52.39,45.19-65.47,79.5
	c-12.81,33.6-25.02,65.62-60.73,65.63c-6.27,0-13.27-0.99-21.13-3.13c-1.04-0.29-1.67-1.36-1.41-2.42
	c2.94-11.74,2.92-25.76,2.9-40.59c-0.06-49.65-0.13-111.45,110.4-141.59c48.44-13.21,107.27,5.63,129.1,13.8
	c-16.9-17.5-62.6-64.73-83.28-85.41c-12.33-12.34-27.42-18.07-46.1-17.48c-18.03,0.55-40.01,6.99-67.2,19.68
	c-29.99,13.99-37.2,25.97-45.55,39.84c-9.56,15.88-20.4,33.88-66.22,59.08c-13.19,7.26-22.93,14.99-30.11,22.68
	c-5.51,22.59-7.58,42.89-7.58,57.33c0,8.49-2.6,10.72-4.78,11.09c-3.26,0.54-6.48-2.85-8.66-9.09c-1.42-4.09-5.44-18.94,2.63-38.38
	c3.38-8.15,8.32-15.79,14.77-22.88c9.26-37.31,27.77-80.57,61.48-114.28c47.35-47.35,67.02-46.3,96.82-44.71
	c6,0.32,12.2,0.65,19.25,0.65c15.42,0,16.62-2.54,16.71-2.83c0.86-2.88-12.41-11.57-19.53-16.24c-5.28-3.46-10.73-7.03-14.84-10.33
	c-147.15-82.74-196.6-60.13-240.23-40.19c-12.27,5.61-23.86,10.91-37.09,13.74c-31,6.64-64.11,26.08-94.38,47.44
	c-0.32,0.52-0.64,1.04-0.96,1.57c-7.93,12.91-16.13,26.26-28.6,36.65c-15.53,12.94-66.86,42.54-112.16,68.66
	c-30.58,17.64-59.47,34.3-73.06,43.35c-19.49,12.99-31.04,31.26-48.53,58.91c-16.92,26.76-37.98,60.06-75.86,104.25
	c-80.17,93.53-112.52,134.58-146.1,193.34c-17.43,30.51-16.54,58.7-12.72,76.97c3.24,15.49,9.06,26.69,11.51,30.94
	c2.79-2.06,9.17-6.28,22.74-13.47c6.79-12.53,16.8-26.62,27.31-39.26c17.77-21.36,41.05-43.33,53.09-40.92
	c7.79,1.56,12.71,6.29,13.5,12.99c1.4,11.87-11.32,32.36-51.78,51.04c-17.21,7.94-29.9,14.23-39.22,19.13
	c-6.22,11.69-8.97,20.97-7.1,25.64c3.83,9.59,14.85,27.48,26.79,43.52c16.75,22.5,23.98,26.31,25.2,25.86c0,0,0.09-0.09,0.2-0.41
	c0.84-2.51,5.7-6.23,14.3-11.39c4.66-6.92,19.19-19.76,28.49-27.65c19.94-16.92,41.77-33.05,59.89-44.24
	c25.06-15.49,42.13-21.16,50.73-16.86c3.07,1.54,3.73,3.72,3.74,5.28c0.1,11.54-39.21,32.97-94.76,62
	c-15.59,8.14-33.52,17.51-45.41,24.53c-0.08,0.16-0.14,0.31-0.18,0.44c0.03,0.96,0.52,1.83,1.49,2.67
	c5.65,4.81,29.44,10.6,125.29-4.73c77.33-12.38,110.41-9.23,156.19-4.87c17.87,1.7,38.12,3.63,63.7,4.85
	c8.56-0.01,59.65-4.38,71.95-12.58c2.07-1.38,3.22-2.14,4.49-1.16c0.68,0.52,0.95,1.45,0.68,2.26c-0.7,2.06-14.3,11.1-26,17.28
	c-12.66,6.69-31.1,14.6-48.58,15.35c0.63,3.51,1.25,10.9,1.44,27.01c0.23,19.23-0.32,43.18-1.55,67.43
	c-1.95,38.6-7.41,112.11-22.11,170.91c-14.21,56.83-49.57,89.02-76.73,106.02C776.63,1542.83,760.14,1549.66,745.6,1553.6z
	 M680.99,1526.32c-0.8,0-1.43,0.16-1.87,0.49c-4.17,3.13-5.9,6.21-5.14,9.17c1.86,7.24,17.75,14.39,38.65,17.37
	c4.87,0.7,12.32,0.45,21.49-1.22c-6.52-3.45-12.51-6.72-17.97-9.69C700.43,1533.87,686.57,1526.32,680.99,1526.32z M1590.63,871.38
	c-0.91,0-3.1,0.43-7.06,2.4c-11.31,5.63-30.29,20.42-49.62,45.02c-23.32,29.68-41.83,67-53.52,107.92
	c-7.31,25.58-12.38,57.63-17.75,91.56c-3.73,23.61-7.73,48.9-12.88,74.41c32.26-31.84,63.75-74.12,89.61-121.15
	c41.26-75.07,59.96-147.99,51.36-200.16C1590.73,871.39,1590.68,871.38,1590.63,871.38z M887.37,1161
	C887.37,1161,887.37,1161,887.37,1161C887.37,1161,887.37,1161,887.37,1161z M542.2,1142.51L542.2,1142.51z M672,1052.8
	c-4.28,0-10.9,1.49-21.13,6.28c-34.58,16.18-81.62,55.11-100.42,73.74c9.38-5.19,21.28-11.44,35.52-18.88
	c21.07-11.01,44.95-23.48,62.94-34.29c25.86-15.53,29.69-21.78,29.67-24.13c0-0.26-0.01-0.97-1.53-1.73
	C675.89,1053.22,674.27,1052.8,672,1052.8z M555.81,976.39c-8.9,0-28.22,15.89-48,39.66c-9.72,11.69-17.89,23.19-23.91,33.34
	c8.74-4.48,19.86-9.91,33.96-16.42c36.05-16.63,50.83-35.56,49.48-46.93c-0.58-4.94-4.24-8.33-10.31-9.54
	C556.65,976.43,556.24,976.39,555.81,976.39z M1167.39,925.18c-0.33,19.91-6.79,40.1-12.09,56.67c-2.5,7.83-4.72,14.76-5.84,20.31
	c13.61-2.97,25.24-10.7,31.46-21.04c5.08-8.43,6.08-17.93,2.9-27.47C1180.79,944.57,1175.16,934.45,1167.39,925.18z M853.16,726.29
	c9.32,5.22,23.98,9.57,35.62,9.57c12.8,0,25.02-6.27,27.83-14.26c1.89-5.39-0.72-11.13-7.56-16.6c-4.89-3.91-7.49-2.46-15.75,3.17
	c-4.16,2.84-9.35,6.37-16.54,9.97C870.14,721.45,862,724.22,853.16,726.29z M1150.95,626.96c-18.08,23.94-13.18,45.85-12.29,49.15
	c1.77,6.6,4.31,8.65,4.88,8.65c0,0,0,0,0.01,0c0.28-0.13,1.44-1.74,1.44-7.14C1144.99,664.58,1146.65,646.84,1150.95,626.96z
	 M798.69,538.94c6.77,0.66,45.72-18.83,67.38-35.07c6.74-5.06,14.45-11.12,22.61-17.54c14.82-11.67,31.64-24.91,49.49-37.54
	c15.19-24.66,31.73-49.62,78.29-59.68c-11.25-2.88-23.16-7.13-35.6-11.57c-37.93-13.54-77.16-27.54-103.65-3.98
	c-25.71,22.85-45.34,79.01-59.67,120.02c-7.26,20.78-13,37.19-17.51,43.21C799.23,537.85,798.86,538.54,798.69,538.94z"/>
</svg>
