<svg width="375" height="786" viewBox="0 0 375 786" fill="none" xmlns="http://www.w3.org/2000/svg">
<path fill-rule="evenodd" clip-rule="evenodd" d="M279.835 143.685C339.648 191.683 343.214 273.978 351.786 350.188C360.784 430.187 381.704 517.943 328.752 578.581C271.713 643.899 177.904 655.612 91.4995 648.253C-2.19178 640.273 -101.462 616.409 -152.714 537.574C-205.88 455.797 -160.126 396.697 -119.869 307.852C-82.5251 225.434 -43.437 126.256 44.076 103.261C125.209 81.9421 214.409 91.1827 279.835 143.685Z" stroke="white" stroke-width="0.777042"/>
<path fill-rule="evenodd" clip-rule="evenodd" d="M394.366 272.992C416.49 346.421 372.833 416.273 336.748 483.944C298.869 554.978 266.423 639.158 188.444 659.157C104.445 680.7 20.4897 637.24 -46.5637 582.251C-119.272 522.624 -187.584 446.746 -185.192 352.746C-182.712 255.237 -111.535 232.43 -28.0481 181.992C49.399 135.202 137.773 75.5865 222.927 106.183C301.872 134.549 370.165 192.672 394.366 272.992Z" stroke="white" stroke-width="0.777042"/>
<path fill-rule="evenodd" clip-rule="evenodd" d="M407.438 477.988C375.619 547.765 296.727 571.455 224.964 598.501C149.633 626.891 69.7129 668.745 -2.08193 632.326C-79.4189 593.097 -113.836 505.048 -127.947 419.486C-143.247 326.708 -144.521 224.618 -80.7077 155.557C-14.512 83.9167 54.0233 113.737 150.039 130.914C239.109 146.849 344.852 160.353 388.658 239.526C429.269 312.927 442.243 401.662 407.438 477.988Z" stroke="white" stroke-width="0.777042"/>
<circle cx="302.246" cy="169.395" r="6.99338" stroke="white" stroke-width="1.55408"/>
<circle cx="356.638" cy="201.254" r="3.88521" stroke="white" stroke-width="1.55408"/>
<circle cx="361.875" cy="437.293" r="6.99338" stroke="white" stroke-width="1.55408"/>
<circle cx="288.834" cy="572.498" r="4.66225" stroke="white" stroke-width="1.55408"/>
<circle cx="351.977" cy="543.152" r="4.66225" stroke="white" stroke-width="1.55408"/>
<circle cx="235.217" cy="636.993" r="2.33113" stroke="white" stroke-width="1.55408"/>
<circle cx="1.3285" cy="634.662" r="2.33113" stroke="blue" stroke-width="1.55408"/>
<circle cx="25.0265" cy="110.546" r="4.27373" stroke="white" stroke-width="1.55408"/>
<circle cx="181.212" cy="97.3365" r="4.27373" stroke="white" stroke-width="1.55408"/>
<circle cx="87.969" cy="118.317" r="1.9426" stroke="white" stroke-width="1.55408"/>
<circle cx="52.6111" cy="644.763" r="9.3245" stroke="white" stroke-width="1.55408"/>
<circle cx="293.698" cy="543.152" r="4.66225" stroke="white" stroke-width="1.55408"/>
</svg>
