<?xml version="1.0" encoding="utf-8"?>
<!-- Generator: Adobe Illustrator 26.3.1, SVG Export Plug-In . SVG Version: 6.00 Build 0)  -->
<svg version="1.1" id="Calque_1" xmlns="http://www.w3.org/2000/svg" xmlns:xlink="http://www.w3.org/1999/xlink" x="0px" y="0px"
	 viewBox="0 0 2000 2000" style="enable-background:new 0 0 2000 2000;" xml:space="preserve">
<style type="text/css">
	.st0{clip-path:url(#SVGID_00000181058631484840577120000014117660142704242077_);fill:#FFFFFF;}
	.st1{fill:#F5E9D9;}
	.st2{fill:#E2B590;}
</style>
<g>
	<defs>
		<rect id="SVGID_1_" x="0.06" width="1999.94" height="2000"/>
	</defs>
	<clipPath id="SVGID_00000159448738033351251770000000986726860373482138_">
		<use xlink:href="#SVGID_1_"  style="overflow:visible;"/>
	</clipPath>
	
		<rect x="0.06" style="clip-path:url(#SVGID_00000159448738033351251770000000986726860373482138_);fill:#FFFFFF;" width="1999.94" height="2000"/>
</g>
<path class="st1" d="M1377.15,501.62c-82.8-45.8-187.06,77.74-207.77,183.94c-20.71,106.2,6.99,293.32-2.69,364.62
	c-9.51,69.99-65.74,219.43-241.49,231.67c-141.36,9.84-319.31-73.87-364.7-37.42c-45.39,36.45-43.81,110.04,27.89,193.84
	c112.88,131.92,317.51,187.49,547.36,175.72c229.58-11.76,390.17-217.84,454.67-390.07S1652.33,653.85,1377.15,501.62"/>
<path class="st2" d="M942.93,480.07c197.6,139.57,185.13,321.08,179.29,381.9c-5.85,60.82-50.33,280.37-307.22,321.02
	c-316,50-420.91-282.05-410.93-370.5c15.84-140.44,58.28-222.46,183.94-309.78C713.66,415.41,881.37,436.59,942.93,480.07"/>
<path d="M826.99,1600.46c-0.27,0-0.53-0.05-0.79-0.16c-51.56-22.09-84.12-56.53-96.8-102.34c-13.13-47.48-0.64-92.38,7.98-114.92
	c15.67-40.98,41.59-67.41,60.57-82.37c20.59-16.22,37.25-22.66,37.95-22.93c0.66-0.25,1.41-0.13,1.96,0.31
	c2.59,2.08,5.57,4.91,9.01,8.18c23.18,22.05,71.39,67.96,194.79,65.51c66.35-1.31,129.73-35.26,161.61-55.38
	c28.74-18.15,50.45-36.44,62.54-49.03c-72.78-13.94-155.71-19.27-251.76-16.27l-6.86,0.21c-62.07,1.93-120.71,3.74-170,18.68
	c-18.56,5.63-35.56,10.05-52,14.33c-69.61,18.12-115.6,30.09-150.35,99.58c-14.49,28.99-13.07,64.63-11.92,93.27
	c0.3,7.55,0.59,14.68,0.59,21.28c0,0.84-0.53,1.59-1.32,1.88c-0.79,0.29-1.68,0.04-2.22-0.61c-24.2-29.24-49.79-71.87-32.73-142.58
	c5.63-23.33,18.42-45.67,38.06-66.48c-11.2,2.63-21.19,4.03-29.66,3.08c-26.21-2.91-91.79-13.38-134.68-47.69
	c-58.41-46.73-72.46-141.71-60.47-215.11c0.15-0.9,0.87-1.58,1.77-1.67c0.91-0.09,1.75,0.43,2.07,1.28l3.03,7.96
	c30.17,79.41,50.1,131.87,136.46,169.51c24.33,10.6,59.3,8.33,77.98,6.02c24.15-2.97,42.52-8.45,47.63-11.37
	c-17.02-4.8-87.03-36.57-134.11-79.15c-40.25-36.4-72.29-84.22-90.21-134.65c-19.48-54.8-22.21-111.1-7.91-162.81
	c12.34-44.62,29.82-67.42,54.01-98.99c15.8-20.61,33.7-43.98,54.71-79.28c27.25-45.78,70.67-78.02,125.57-93.26
	c49.01-13.6,104.25-11.9,151.55,4.66c43.25,15.14,74.1,43.7,92.36,64.99c19.78,23.06,29.5,42.87,29.59,43.07
	c0.36,0.75,0.23,1.64-0.34,2.25c-0.57,0.6-1.46,0.79-2.22,0.47l-47.36-19.73c-59.23-24.68-152.71,14.88-179.95,27.6
	c-26.19,12.22-41.08,29.64-48.95,42.11c-9.82,15.54-12.66,29.51-11.12,36.46c0.65,2.95,1.99,4.45,3.97,4.45
	c12.84,0,34.69-13.67,64.93-32.59c5.38-3.37,11.02-6.89,16.9-10.53c61.02-37.69,141.28-24.88,163.62-15.94
	c13.44,5.38,30.03,22.19,27.11,30.17c-2.64,7.19-16.15,2.69-20.59,1.21c-15.83-5.28-45.8-0.15-82.23,14.05
	c-33.99,13.26-66.76,31.91-85.53,48.69c-9.39,8.4-28.91,23.81-54.12,32.7c-24.79,8.74-48.17,8.83-69.51,0.29
	c-37.17,32.92-90.65,104.46-40.12,218.51c11.75,26.53,34.32,54.73,63.53,79.4c27.33,23.09,51.35,35.62,63.04,37.79
	c3.34,0.62,5.82,0.41,6.81-0.58c4.56-4.56-0.18-11.2-10.48-24.58c-9.94-12.93-23.56-30.63-33.39-56.17
	c-22.38-58.2-33.28-102.89-33.31-136.64c0-0.75,0.42-1.44,1.09-1.78c0.67-0.34,1.48-0.28,2.08,0.16c39.05,28.4,80.8,12.18,125-4.99
	c3.87-1.5,7.75-3.01,11.64-4.49c24.47-9.32,58.83-13.1,92.06-16.76c23.73-2.61,46.7-5.14,64.52-9.51
	c-14.01-6.75-23.1-17.54-26.37-35.55c-4.34-23.84,3.18-35.73,10.25-41.51c11.2-9.15,26.33-7.94,35.88-4.12
	c10.94,4.38,20.02,16.41,23.15,30.66c3.22,14.7-0.64,29.16-10.6,39.67c-4.48,4.73-11.37,8.42-19.99,11.39
	c17.15,5.19,40.17,6.71,68.48,8.58c4.17,0.27,8.44,0.55,12.81,0.86c31.21,2.15,60.01-6.89,80.21-24.95
	c-13.68-7.04-24.97-16.27-30.51-27.12c-6.09-11.92-4.77-24.41,3.92-37.11c7.93-11.58,19.55-16.48,31.89-13.44
	c11.8,2.91,21.28,12.82,22.54,23.57c2.07,17.58-5.19,36.53-19.92,51.99c-0.3,0.32-0.61,0.63-0.92,0.95
	c16.13,7.35,35.01,11.82,51.23,12.25c52.29,1.38,81.49,16.45,107.26,29.76c17.8,9.19,34.61,17.87,56.9,21.05
	c35.18,5.03,54.23,5.32,67.28,1.08c1.45-17.57,4.33-30.48,14.39-37.67c9.34-6.67,14.07-2.45,15.3-1.01
	c4.72,5.58,2.59,18.74-8.11,29.44c-5.39,5.39-10.98,9.33-17.79,11.98c-0.31,4.3-0.56,8.93-0.84,13.88
	c-1.71,31.24-4.18,76.26-29.37,130.57c0.73-0.21,1.47-0.42,2.21-0.64c41.1-11.88,109.88-31.76,126.39-116.39
	c5.5-28.16,0.14-58.88-15.08-86.51c-14.48-26.29-35.83-45.71-58.58-53.3c-39.22-13.07-58.32-36.55-56.83-69.82
	c-19.63,8.21-44.44,14.82-88.76,10.71c-42.62-3.95-69.97-24.83-96.41-45.02c-15.18-11.59-29.51-22.53-46.32-30.14
	c-43.02-19.48-84.76-6.9-107.18-0.15c-11.1,3.34-16.66,5.02-19.31,2.5c-1.12-1.07-1.43-2.64-0.92-4.66
	c4.3-17.22,42.29-66.56,120.39-64.67c34.97,0.85,69.37,23.26,85.91,35.76c-13.13-17.8-45.36-53.12-102.23-67.34
	c-49.33-12.33-79.6,3.34-101.71,14.79c-12.94,6.7-23.17,12-32.63,8.85c-0.94-0.32-1.51-1.28-1.34-2.26
	c0.08-0.44,8.43-44.49,47.71-99.48c20.69-28.98,61.94-50.7,110.34-58.11c55.18-8.45,115.1,2.17,168.72,29.91
	c6.25,3.23,12.18,6.22,17.91,9.12c54.99,27.78,91.32,46.13,188.2,164.55c25.42,31.07,45.5,64.21,59.67,98.5
	c12.76,30.89,20.82,62.87,23.96,95.07c5.36,54.9-3.76,109.91-25.66,154.88c-37.01,76.01-71.14,93.94-118.39,118.77
	c-8.15,4.28-16.57,8.71-25.58,13.71c-37.32,20.73-72.23,28.76-98.36,34.42c63.1,22.02,139.95,8.11,207.08-37.82
	c18.69-12.79,38.21-42.03,56.44-84.56c15.31-35.74,26.98-74.55,32.79-98.96c0.2-0.86,0.95-1.48,1.83-1.53
	c0.9-0.06,1.69,0.48,1.99,1.31c8.81,24.21,23.88,103.61-11.61,179.31c-15.53,33.14-33.68,57.22-57.11,75.8
	c-24.75,19.62-55.45,33.3-96.62,43.05c-74.5,17.63-165.03-13.7-179.98-19.19c-1.01,2.56-3.26,5.91-6.58,9.84
	c14.91,3,29.39,6.36,43.47,10.08c41.24,10.92,77.62,24.44,105.17,79.54c8.74,17.48,14.31,44.1,14.53,69.48
	c0.23,26.97-5.3,46.33-15.19,53.12c-0.69,0.48-1.62,0.47-2.31-0.03c-0.68-0.5-0.98-1.38-0.73-2.19c11-36.68-29.66-98.41-82.1-124.62
	c-33.08-16.54-81.27-21.38-116.51,3.88c29.29,5.46,58.42,27.45,75.26,57.17c18.01,31.79,19.69,67.98,4.73,101.89
	c-20.48,46.41-46.5,74.62-81.9,88.78c-0.79,0.32-1.71,0.09-2.27-0.56c-0.55-0.66-0.63-1.6-0.18-2.33
	c22.95-37.8,30.7-72.68,33.17-95.29c3.13-28.76-0.55-54.72-10.1-71.21c-20.17-34.84-50.15-46.91-91.57-36.82
	c25.01,29.59,42.93,94.39,16.52,138.43c-15.09,25.15-39.05,34.33-59.68,39.72c-10.85,20.16-23.38,35.66-32.57,36.97
	c-3.31,0.47-7.82-0.49-10.61-7.74c-2.56-6.63-2.71-11.91-0.46-16.14c4.21-7.93,15.93-10.65,30.77-14.09
	c3.3-0.76,6.71-1.55,10.18-2.43c0.12-0.22,0.23-0.43,0.34-0.65c11.66-22.31,19.82-47.22,21.3-65.02c1.24-14.77,1.38-52-23.81-78.53
	c-16.67-17.56-40.54-25.99-71.02-25.03c-76.18,2.38-115.92,38.24-118.12,106.58c-0.61,18.84,5.02,41.56,15.59,63.37
	c3.07,1.55,6.08,3.04,9.01,4.47c22.5,11.07,40.28,19.81,35.35,36.55c-2.02,6.85-6.7,7.17-9.31,6.75
	c-9.78-1.57-25.89-20.14-38.09-44.82c-33.94-17.26-73.58-42.83-69.64-105.76c1.85-29.58,11.26-51.92,27.98-66.4
	c16.16-14,34.79-16.92,44.39-17.42c-8.34-5.16-26.73-13.7-51.51-8.75c-23.66,4.73-57.03,21.19-81.7,72.78
	c-29.67,62.03,15.84,138.74,36.78,168.84c0.51,0.74,0.47,1.72-0.09,2.41C828.15,1600.21,827.58,1600.46,826.99,1600.46
	 M928.42,1557.07c0.23,0.44,0.47,0.88,0.71,1.32c12.21,22.57,25.31,35.45,31.94,36.51c1.63,0.26,3.67,0.06,4.84-3.93
	c3.97-13.51-11.65-21.19-33.28-31.83C931.24,1558.46,929.84,1557.77,928.42,1557.07z M836.27,1281.91c-3.98,1.69-18.73,8.4-35.97,22
	c-18.54,14.64-43.87,40.49-59.18,80.55c-27.23,71.22-19.96,162.78,80.25,209.31c-18.06-27.12-31.09-55-37.8-80.99
	c-8.49-32.86-6.91-61.8,4.67-86.03c25.38-53.07,59.98-70.07,84.53-74.98c36.24-7.24,58.95,12.34,59.9,13.17
	c0.65,0.57,0.85,1.49,0.52,2.28c-0.33,0.8-1.15,1.28-2,1.22c-0.27-0.03-26.77-1.88-47.94,16.49
	c-15.85,13.76-24.78,35.15-26.56,63.59c-3.6,57.56,31.07,82.79,62.83,99.54c-8.46-18.77-14.38-40.36-13.73-60.48
	c1.15-35.57,12.54-63.05,33.87-81.67c20.51-17.91,50.16-27.59,88.12-28.78c31.67-0.98,56.56,7.85,74.05,26.28
	c18.52,19.51,27.6,49.25,24.9,81.61c-1.58,19.02-10,43.4-20.43,63.97c19.46-5.4,40.16-14.35,53.74-36.98
	c11.89-19.84,15.42-46.44,9.93-74.89c-4.62-23.98-15.42-47.45-28.16-61.25c-0.47-0.51-0.65-1.24-0.45-1.91
	c0.2-0.68,0.73-1.2,1.41-1.38c45.05-12.01,77.5,0.38,99.21,37.87c18.54,32.02,17.48,100.13-19.99,165.3
	c31.55-14.43,55.22-41.39,74.15-84.3c14.44-32.72,12.82-67.63-4.55-98.29c-17.14-30.26-47.36-52.21-76.99-55.91
	c-0.79-0.1-1.45-0.67-1.67-1.44c-0.22-0.78,0.05-1.6,0.67-2.11c36.89-29.5,89.11-24.85,124.51-7.15
	c25.07,12.54,49.06,34,65.81,58.89c15.29,22.72,22.3,45.36,19.84,63.43c13.41-19.97,11.55-79.18-5.22-112.71
	c-26.85-53.7-60.89-66.42-102.61-77.46c-14.72-3.9-29.88-7.39-45.51-10.48c-12.8,13.94-36.53,33.53-65.01,51.52
	c-32.23,20.34-96.35,54.68-163.68,56c-3.17,0.06-6.32,0.09-9.39,0.09c-118.13,0-165.26-44.85-188.22-66.7
	C841.15,1286.3,838.54,1283.81,836.27,1281.91z M1098.53,1555.11c-2.29,0.56-4.53,1.08-6.69,1.58
	c-13.85,3.21-24.79,5.74-28.15,12.07c-1.67,3.14-1.45,7.34,0.66,12.83c2,5.19,4.56,5.46,6.31,5.21
	C1077.51,1585.82,1088.19,1573.58,1098.53,1555.11z M632.85,1268.71c-21.31,21.25-35.85,44.99-41.72,69.33
	c-15.8,65.48,5.88,106.27,28.32,134.64c-0.1-4.88-0.31-10.03-0.52-15.39c-1.16-29.1-2.61-65.31,12.34-95.21
	c35.56-71.13,84.79-83.94,152.92-101.67c16.4-4.27,33.36-8.69,51.85-14.29c49.8-15.09,108.69-16.91,171.04-18.84l6.86-0.22
	c97.42-3.04,181.43,2.47,255.09,16.81c5-5.59,7.65-9.69,7.65-11.62c0-0.66,0.33-1.28,0.87-1.66c0.55-0.37,1.25-0.45,1.86-0.2
	c0.99,0.39,99.9,38.71,179.72,19.81c77.99-18.46,120.34-51.17,151.03-116.65c32.15-68.58,22.15-140.15,13.61-169.61
	c-13.47,53.1-47.02,150.2-89.17,179.04c-37.15,25.42-76.46,41.06-116.84,46.5c-35.77,4.81-70.47,1.13-100.34-10.63
	c-0.82-0.32-1.34-1.14-1.26-2.02c0.07-0.88,0.7-1.61,1.56-1.79l3.64-0.79c26.18-5.66,62.04-13.4,100.32-34.67
	c9.04-5.02,17.49-9.46,25.66-13.76c48.31-25.38,80.22-42.14,116.66-116.97c38.58-79.21,46.67-216.88-57.47-344.17
	c-96.35-117.77-132.38-135.96-186.91-163.51c-5.75-2.9-11.69-5.9-17.94-9.14c-52.88-27.35-111.93-37.83-166.28-29.51
	c-47.36,7.25-87.62,28.37-107.7,56.48c-34.25,47.95-44.64,87.33-46.64,96.06c7.53,1.45,16.57-3.23,27.82-9.05
	c22.66-11.74,53.71-27.82,104.51-15.12c41.21,10.3,69.39,31.45,85.77,47.38c17.78,17.29,25.7,31.95,26.03,32.56
	c0.45,0.85,0.23,1.91-0.53,2.51c-0.77,0.6-1.85,0.56-2.57-0.08c-0.47-0.42-47.39-41.79-93.44-42.91
	c-41.4-1.01-69.43,12.8-85.66,24.57c-19.26,13.96-28.95,29.82-30.76,37.07c-0.11,0.44-0.12,0.7-0.12,0.83
	c1.63,0.66,8.89-1.53,15.31-3.47c22.93-6.91,65.6-19.77,109.99,0.33c17.23,7.8,31.73,18.88,47.1,30.61
	c25.99,19.85,52.87,40.37,94.35,44.22c45.71,4.23,70.17-3.11,89.8-11.68c0.64-0.28,1.39-0.2,1.96,0.21
	c0.58,0.41,0.89,1.09,0.83,1.79c-2.75,32.93,15.38,56.14,53.9,68.98c23.68,7.9,45.85,28,60.81,55.16
	c15.68,28.45,21.19,60.14,15.51,89.21c-16.99,87.03-87.24,107.33-129.21,119.46c-1.92,0.56-3.79,1.1-5.61,1.63
	c-3.41,7.06-7.21,14.26-11.45,21.61c-2.89,5.02-11.82,10.68-17.37,8.19c-3.15-1.42-6.07-5.64-2.04-17.71
	c2.34-7.04,12.94-10.95,28.06-15.43c26.21-54.66,28.64-98.89,30.47-132.28c0.24-4.29,0.46-8.38,0.73-12.27
	c-14.47,4.24-34.41,3.47-67.54-1.26c-22.95-3.28-40.06-12.11-58.17-21.46c-25.38-13.11-54.16-27.96-105.52-29.31
	c-17.18-0.45-37.24-5.19-54.27-13.2c-21.06,19.5-51.45,29.31-84.34,27.04c-4.37-0.3-8.64-0.58-12.8-0.86
	c-30.76-2.03-56.14-3.7-74.58-10.58c-18.84,5.32-43.99,8.09-70.04,10.96c-32.98,3.63-67.08,7.38-91.08,16.52
	c-3.89,1.48-7.76,2.98-11.62,4.48c-44.06,17.12-85.73,33.31-125.57,6.75c0.83,32.79,11.64,75.81,32.99,131.33
	c9.62,25,23.03,42.44,32.83,55.17c10.47,13.61,17.39,22.6,10.14,29.85c-2.02,2.02-5.51,2.59-10.37,1.68
	c-28.56-5.32-102.89-59.44-129.49-119.5c-51.99-117.35,4.04-190.69,42.07-223.96c0.57-0.5,1.38-0.63,2.09-0.34
	c53.82,22.42,105.91-18.67,120.59-31.8c19.1-17.08,52.34-36.02,86.74-49.44c37.28-14.54,68.24-19.69,84.94-14.12
	c10.53,3.51,14.97,2.84,15.57,1.21c1.6-4.37-11.48-19.74-24.84-25.08c-21.84-8.73-100.32-21.25-160.03,15.63
	c-5.88,3.63-11.51,7.16-16.89,10.52c-30.8,19.27-53.06,33.2-67.05,33.2c-3.94,0-6.81-2.76-7.88-7.58
	c-3.79-17.08,14.26-60.66,62.29-83.07c27.62-12.89,122.44-52.97,183.17-27.66l42.18,17.57c-4.05-7.19-12.83-21.51-26.49-37.43
	c-17.93-20.89-48.2-48.9-90.57-63.73c-88.53-30.98-214.07-11.07-272.36,86.87c-21.13,35.5-39.11,58.96-54.97,79.66
	c-23.92,31.2-41.19,53.75-53.33,97.62c-27.66,99.99,10.4,215.16,96.95,293.42c47.5,42.95,118.36,74.74,133.34,78.49
	c1.83,0.46,2.91,1.32,3.19,2.57c0.19,0.83,0.08,2.08-1.5,3.39c-4.85,4.01-26.5,10.24-52.99,13.28c-18.53,2.13-53.27,4.11-77.82-6.59
	c-40.63-17.71-69.57-40.2-91.08-70.78c-19.9-28.3-32.7-61.98-47.52-100.98l-0.31-0.82c-9.68,71.09,4.97,159.67,60.15,203.81
	c42.07,33.66,106.76,43.98,132.62,46.85c9.36,1.03,21.32-1.13,34.59-4.6c0.23-0.22,0.46-0.45,0.69-0.68
	c21.64-21.15,50.04-39.74,82.11-53.77c60.33-26.39,72.2,0.61,76.67,10.77c0.34,0.77,0.64,1.45,0.92,2.01
	c0.33,0.66,0.74,1.4,1.19,2.2c2.48,4.45,6.23,11.18,2.68,16.35c-4.26,6.2-17.44,7.49-41.46,4.06c-30.73-4.39-65.49,6.17-96.16,15.49
	C648.71,1264.17,640.54,1266.66,632.85,1268.71z M756.91,1203.35c-10,0-23.49,2.97-41.85,10.99c-29.84,13.06-55.68,29.7-76.1,48.51
	c5.58-1.6,11.33-3.34,17.17-5.12c31.07-9.44,66.27-20.14,97.89-15.62c27.07,3.87,35.39,0.85,37.6-2.37
	c2.15-3.12-0.76-8.33-2.88-12.14c-0.48-0.85-0.92-1.65-1.27-2.35c-0.3-0.61-0.63-1.35-1-2.19
	C783.49,1216.28,777.8,1203.35,756.91,1203.35z M671,1183.1L671,1183.1z M1361.65,1090.84c-11.76,3.61-20.28,7.03-21.87,11.79
	c-2.33,7-2.37,11.78-0.11,12.8c2.9,1.3,9.9-2.42,12.27-6.54C1355.47,1102.76,1358.7,1096.74,1361.65,1090.84z M1419.27,899.91
	c-1.87,0-4.28,0.99-7,2.93c-8.46,6.05-11.16,17.01-12.57,32.83c5.61-2.49,10.12-5.98,14.61-10.47c9.47-9.47,10.98-20.38,7.88-24.03
	C1421.48,900.33,1420.49,899.91,1419.27,899.91z M936.87,809.24c-6.46,0-13.11,1.73-18.39,6.05c-8.94,7.31-12,20.34-8.85,37.7
	c3.32,18.26,13,28.51,28.5,34.64c10.35-3.02,18.49-6.86,23.34-11.98c12.37-13.05,11.32-28.2,9.6-36.06
	c-2.81-12.79-11.14-23.97-20.73-27.8C946.4,810.21,941.69,809.24,936.87,809.24z M1104.19,799.74c-8.34,0-15.99,4.38-21.59,12.56
	c-7.8,11.4-9.03,22.51-3.65,33.03c5.22,10.24,16.46,19.15,30.12,25.96c0.62-0.62,1.24-1.24,1.84-1.88
	c13.91-14.59,20.78-32.37,18.85-48.77c-1.08-9.16-9.29-17.63-19.53-20.15C1108.19,799.99,1106.17,799.74,1104.19,799.74z"/>
</svg>
