<?xml version="1.0" encoding="utf-8"?>
<!-- Generator: Adobe Illustrator 26.3.1, SVG Export Plug-In . SVG Version: 6.00 Build 0)  -->
<svg version="1.1" id="Calque_1" xmlns="http://www.w3.org/2000/svg" xmlns:xlink="http://www.w3.org/1999/xlink" x="0px" y="0px"
	 viewBox="0 0 2000 2000" style="enable-background:new 0 0 2000 2000;" xml:space="preserve">
<style type="text/css">
	.st0{clip-path:url(#SVGID_00000062911946477900293530000008454129518232273066_);fill:#FFFFFF;}
	.st1{fill:#F5E9D9;}
	.st2{fill:#E2B590;}
</style>
<g>
	<defs>
		<rect id="SVGID_1_" x="0.06" width="1999.94" height="2000"/>
	</defs>
	<clipPath id="SVGID_00000111905570056587879530000002423150621162907839_">
		<use xlink:href="#SVGID_1_"  style="overflow:visible;"/>
	</clipPath>
	
		<rect x="0.06" style="clip-path:url(#SVGID_00000111905570056587879530000002423150621162907839_);fill:#FFFFFF;" width="1999.94" height="2000"/>
</g>
<path class="st1" d="M638.82,701.25c47.2-30.67,148.46-87.72,181.21,15.4c32.76,103.13,26.69,292.19,44.49,361.91
	C882,1147,955,1289,1131,1281c141.56-6.43,308.73-110,358-79s9.07,122.88-45,219c-90,160-254.4,199.02-484.05,214.1
	c-229.65,15.08-411.42-95.52-495.25-259.22C380.86,1212.18,375.13,872.6,638.82,701.25"/>
<path class="st2" d="M1028.35,431.2C835.89,603.41,871.33,794.38,884.98,858.17c13.65,63.79,106.59,366.22,393.52,336.22
	c286.92-30,429.73-390.69,392.99-478.32c-36.75-87.63-82.5-249.08-226.46-326.29C1301.08,312.57,1088.31,377.54,1028.35,431.2"/>
<path d="M953.06,1646.32c-156.07,0.01-243.84-57.84-289.02-92.09c-18.28,2.23-32.21,0.71-38.77-5.33c-3.39-3.13-6.42-9-1.63-19.23
	c0.88-1.88,2.21-3.05,3.95-3.46c5.24-1.26,13.05,4.81,27.21,15.84c3.17,2.47,6.63,5.16,10.41,8.03
	c32.05-4.24,79.07-20.06,125.31-46.49c78.12-44.64,175.3-131.13,194.6-289.68c3.72-30.58,4.92-58.08,4.5-82.63
	c-17.3,15.31-41.1,25.48-71.08,30.31c-35.08,5.66-72.65,8.19-105.8,10.43c-45.8,3.08-89.07,6-90.58,16.59
	c-6.27,43.88-30.42,149.22-119.01,179.56c-3.05,1.04-5.94,2.07-8.67,3.09c-7.89,15.22-16.99,27.26-24.88,34.32
	c-7.14,6.38-13.72,9.36-19.04,8.6c-3.79-0.54-7.89-3.76-8.37-8.86c-0.65-6.92,5.24-20.6,49.5-37.29
	c10.77-21.24,19.05-48.63,18.18-77.22c-1.57-51.88-15.39-88.25-25.13-107.71c-9.84,1.12-18.63,2.5-26.7,3.76
	c-17.78,2.78-33.13,5.18-50.46,3.45c-25.98-2.6-86.73-29.05-103.7-90.74c-2.89-0.28-5.39-1.2-7.55-2.74
	c-6.96-4.99-9.65-16.42-8.22-34.95c2.3-29.87,10.81-84.15,28.15-98.57c5.6-14.73,12.55-27.96,21.15-37.52
	c23.83-26.48,62.84-49.71,100.57-72.18c44.95-26.77,91.42-54.44,114.53-88.34c11.67-17.11,17.23-32.75,22.61-47.88
	c8.41-23.64,16.35-45.96,46.77-67.44c12.81-9.05,25.03-18.69,36.85-28.01c33.36-26.32,62.24-49.11,92.01-49.83l4.36-13.07
	c-22.85,2.55-64.42,33.55-64.85,33.88c-0.64,0.47-1.49,0.53-2.18,0.14c-0.69-0.39-1.09-1.15-1.01-1.94
	c0.04-0.38,3.96-38.39,25.04-92.06c27.43-69.82,89.5-132.89,150.94-153.37c46.36-15.45,124.73-17.68,186.4,7.35
	c41.63-8.22,85.7-7.37,131.54,2.58c64.27,13.95,124.02,41.9,177.58,83.06c47.36,36.41,88.87,82.2,123.35,136.1
	c59.77,93.43,93.09,206.09,84.88,287.01c-7.92,78.12-28.17,143.16-60.19,193.31c-31.65,49.59-66.8,72.39-90.71,82.79
	c-0.76,0.32-1.64,0.15-2.22-0.43c-0.58-0.59-0.74-1.47-0.4-2.23c41.71-93.05,96.06-305.86,3.15-445.21
	c-1.66-2.49-3.39-4.91-5.18-7.25c26.39,73.57,33.57,138.11,21.95,196.98c-9.22,46.67-29.94,88.58-65.22,131.89
	c-0.58,0.71-1.57,0.94-2.4,0.55c-0.83-0.39-1.29-1.3-1.11-2.2c30.92-157.84-13.15-310.71-117.91-408.92
	c-0.62-0.59-0.8-1.51-0.45-2.29c0.36-0.78,1.18-1.25,2.02-1.16c0.3,0.03,30.28,3.12,66.17,15.69c25.78,9.03,58.81,24.52,84.92,49.94
	c-17.81-37.51-54.69-69.58-105.01-91.02c-67.24-28.65-144.49-32.82-196.8-10.63c-47.09,19.98-65.48,45.29-80.25,65.63
	c-0.5,0.69-1,1.37-1.49,2.05c4.04-2.64,7.55-6.06,10.41-10.35c1.69-2.54,4.33-3.26,7.05-1.94c10.16,4.93,22.33,37.86,15.83,57.75
	c-1.27,3.89-3.44,7.94-7.1,11.12c28.4,10.63,53.07,31.83,74.33,50.09c8.75,7.51,17.01,14.61,24.68,20.24
	c18.92,13.88,46.7,22.25,71.22,29.65c31.53,9.51,58.75,17.72,58.75,35.11c0,0.99-0.72,1.83-1.69,1.98
	c-11.45,1.76-27.03,8.45-45.08,16.2c-13.46,5.78-28.57,12.26-45.12,18.14c6.31,8.32,12.87,18.68,19.9,31.62
	c35.87,66.08,110.31,147.5,137.32,150.2c0.65,0.07,1.23,0.45,1.55,1.02c0.32,0.58,0.33,1.28,0.04,1.86
	c-3.95,7.89-9.02,12.53-15.1,13.8c-4.29,0.9-8.27-0.08-11.26-1.35c11.43,27.06,63.51,145.78,105.79,165.67
	c0.62,0.3,1.05,0.89,1.13,1.58c0.08,0.68-0.2,1.36-0.74,1.8c-8.88,7.1-18.77,9.79-28.5,9.79c-18.92,0-37.29-10.15-46.71-17.77
	c2.22,43.37,35.27,93.96,57.8,108.04c0.62,0.39,0.98,1.07,0.94,1.8c-0.03,0.72-0.45,1.37-1.1,1.69c-6.8,3.4-13.76,4.88-20.56,4.88
	c-16.18,0-31.5-8.36-41.94-19.18c-4.17,35.34-26.24,107.48-86.12,175.83c-34.22,39.07-76.05,71.55-124.32,96.55
	c-57.35,29.68-124.07,48.86-198.3,56.97C1001.91,1644.99,976.69,1646.32,953.06,1646.32 M669.65,1553.44
	c52.8,39.51,160.15,106.35,358.68,84.64c135.11-14.78,245.79-67.4,320.05-152.19c61.87-70.64,82.91-145.16,85.59-178.06
	c0.06-0.81,0.61-1.5,1.38-1.75c0.78-0.24,1.63,0.01,2.14,0.63c12.72,15.26,35.75,26.92,57.54,18.15
	c-23.94-17.52-56.79-70.21-56.79-113.95c0-0.81,0.49-1.54,1.23-1.85c0.76-0.31,1.61-0.14,2.18,0.43
	c6.18,6.17,42.51,32.25,70.91,12.7c-48.32-27.17-104.73-165.77-107.16-171.77c-0.34-0.85-0.06-1.83,0.68-2.37s1.75-0.5,2.46,0.08
	c0.06,0.05,6.36,5.18,13.32,3.7c4.21-0.89,7.9-4,11.01-9.28c-32.48-7.74-104.65-91.17-137.55-151.78
	c-7.23-13.32-13.95-23.82-20.4-32.12c-32.67,11.23-70.78,19.77-112.92,15.94c-2.48-0.22-5.08-0.45-7.78-0.69
	c-48.04-4.17-128.16-11.14-148.44-68.13l-50.94,2.21c0.17,3.61-1.28,7.24-4.26,10.6c-10.03,11.31-35.21,17.81-61.22,15.82
	c-37.34-2.87-72.26-23.03-72.61-23.23c-0.77-0.45-1.15-1.36-0.93-2.23c0.22-0.87,0.99-1.48,1.89-1.5l123.42-2.87l8.26-0.36
	c-8.52-11.66-54.36-24.72-88.39-21.48c-36.38,3.46-52.54,20.87-68.17,37.71c-9.75,10.5-19.83,21.36-34.51,28.13
	c-10.06,4.65-25.72,8.81-44.24,13.28c-13.43,15.58-30.28,32.46-49.52,49.45c-31.47,27.77-70.72,56.32-87.48,57.48
	c-4.76,0.33-6.92-1.64-7.9-3.35c-5.94-10.4,5.98-40.84,11.38-53.44c10.83-25.27,67.47-38.63,117.45-50.42
	c4.71-1.11,9.37-2.21,13.91-3.3c14.36-16.77,24.59-31.9,29.35-43.81c4.25-10.63,7.23-23.12,10.38-36.35
	c6.91-29.02,14.74-61.91,38.99-82.12c24.34-20.29,59.69-25.39,102.22-14.75c16.96,4.24,40.38,16.39,61.1,31.71
	c10.63,7.85,35.6,27.92,37.98,44.58c2.19,15.32-5.04,28.84-9.21,35.14c12.71-1.68,49.79-9.05,65.74-38.67l1.76,0.95l-1.76-0.95
	c1.42-2.64,3.73-6.19,7.29-6.55c4.7-0.46,9.04,4.72,15.58,12.58c9.85,11.84,24.73,29.73,51.47,41.89
	c35.68,16.22,61.83,18.07,82.84,19.57c27.18,1.93,47.29,3.36,70.68,32.46c16.96-5.96,32.41-12.59,46.14-18.48
	c17.39-7.46,32.52-13.96,44.24-16.17c-1.92-13.37-26.97-20.92-55.8-29.62c-24.82-7.49-52.95-15.97-72.43-30.25
	c-7.79-5.72-16.11-12.86-24.92-20.43c-22.18-19.06-47.03-40.41-75.8-50.32c-5.56,2.97-13.48,4.27-24.74,2.22
	c-16.4-2.98-37.86,9.1-58.61,20.78c-13.86,7.81-28.19,15.88-40.96,19.36c-0.88,0.24-1.8-0.14-2.25-0.91
	c-0.46-0.78-0.34-1.76,0.29-2.41c48.16-49.51,89.9-55.25,125.82-43.44c3.65-2.4,6.26-5.99,7.83-10.78
	c6.08-18.6-5.99-49.13-13.77-52.91c-0.93-0.45-1.39-0.32-1.98,0.56c-4.88,7.32-11.42,12.3-19.16,15.4
	c-13.98,18.08-28.28,29.53-66.09,22.77c-6.7-1.2-38.43-17.82-63.86-32.59c-15.37-8.93-28.46-17.13-37.87-23.73
	c-15.51-10.88-17.6-14.9-17.6-17.4c0-0.99,0.46-1.85,1.27-2.37c2.75-1.74,8.58,0.71,32.33,11.94
	c40.79,19.29,110.97,52.49,149.3,38.1c2.02-2.65,4.06-5.45,6.19-8.39c15.07-20.74,33.82-46.55,81.93-66.96
	c26.32-11.17,59.36-15.97,95.55-13.87c35.47,2.05,71.56,10.52,104.38,24.51c55.49,23.65,94.99,60.12,111.21,102.7
	c0.02,0.06,0.04,0.11,0.06,0.17c4.56,5.1,8.82,10.55,12.71,16.38c23.18,34.78,38.74,76.24,46.25,123.25
	c6.34,39.7,6.99,83.54,1.94,130.3c-10.18,94.16-39.18,167.97-48.92,190.71c23.16-11.05,55.14-33.56,84.21-79.11
	c31.67-49.62,51.72-114.07,59.58-191.56c8.13-80.08-24.95-191.74-84.27-284.45c-73.12-114.3-179.1-191.51-298.41-217.4
	c-45.97-9.98-87.17-9.97-123.71-3.5c17.08,7.68,32.68,17.59,45.67,30.05c0.53,0.5,0.74,1.25,0.55,1.95
	c-0.18,0.7-0.73,1.25-1.43,1.43c-0.28,0.07-28.82,7.42-60.22,10.04c-70.64,5.89-137.92,51.79-181.93,89.27
	c-5.15,4.39-10.12,8.77-14.87,13.09c-25.89,37.16-38.29,66.83-38.48,67.28c-0.22,0.54-0.67,0.95-1.22,1.14
	c-0.37,0.12-9.28,2.99-26.79,0.07c-0.7-0.12-1.28-0.59-1.54-1.25c-0.26-0.66-0.14-1.4,0.29-1.96c0.28-0.36,25.34-32.12,64.72-67.95
	c13.14-18.82,29.69-39.5,49.81-59.3c35.57-34.99,75.18-60.44,117.74-75.62c11.02-3.93,22.24-7.17,33.65-9.72
	c-59.74-22.35-133.75-19.81-178.08-5.04c-60.39,20.13-121.45,82.24-148.48,151.04c-16.67,42.42-22.5,74.9-24.19,86.43
	c11.59-8.29,46.59-32.08,66.3-32.08c0.64,0,1.25,0.31,1.62,0.83c0.38,0.52,0.48,1.19,0.28,1.8l-5.74,17.22
	c-0.27,0.82-1.04,1.37-1.9,1.37c-28.9,0-57.67,22.7-90.98,48.99c-11.86,9.36-24.12,19.03-37.02,28.14
	c-29.38,20.74-36.76,41.49-45.31,65.51c-5.47,15.36-11.12,31.25-23.08,48.79c-23.61,34.63-70.47,62.54-115.79,89.53
	c-37.47,22.31-76.21,45.39-99.64,71.42c-7.31,8.13-13.41,19.19-18.49,31.65c1.88-0.6,3.81-0.78,5.77-0.53
	c22.02,2.75,91.01-0.1,104.7-11.06c0.06-0.05,0.12-0.09,0.17-0.14c0.41-3.61,0.63-6.95,0.81-9.78c0.3-4.71,0.5-7.81,1.35-9.5
	c1.18-2.35,3.01-2.46,3.74-2.4c2,0.17,3.79,2.06,4.67,4.95c1.49,4.9,0.4,12.25-6.77,18.75c-1.83,14.53-6.93,32.73-24.79,41.66
	c-12.25,6.12-25.95,11.17-38.86,15.65c-8.64,11.46-24.02,26.2-41.22,38.71c-30.19,21.96-33.65,33.23-33.69,33.34
	c-0.28,0.98-1.25,1.61-2.26,1.44c-1.01-0.17-1.73-1.05-1.67-2.07c0.18-3.24,3.53-58.2,18.47-104.54
	c-10.62,18.24-17.77,55.78-20.22,87.59c-1.29,16.78,0.92,27.34,6.56,31.38c1.19,0.86,2.57,1.44,4.14,1.77
	c-0.1-0.43-0.2-0.86-0.3-1.3c-0.96-4.28-0.27-7.77,2.07-10.35c7.29-8.04,29.01-5.36,56.51-1.97c15.77,1.94,33.65,4.14,49.57,4.14
	c23.36,0,65.47-2.01,102.73-6.44c7.49-0.89,14.12-1.8,19.98-2.71c7.14-3.59,13.7-7.26,19.46-10.49
	c13.82-7.75,22.16-12.42,26.59-9.83c1.72,1.01,2.59,2.91,2.59,5.64c0,5.18-6.7,9.39-21.08,13.24c-7.05,1.88-15.85,3.65-26.3,5.29
	c-12.07,6.05-25.8,11.85-40.3,15c-37.88,8.23-81.13,3.95-115.89,0.51c-25.03-2.48-46.65-4.61-55.96-0.63
	c-5.56,2.39-10.33,3.76-14.43,4.12c16.82,58.96,74.99,84.28,99.95,86.77c16.81,1.68,31.93-0.68,49.44-3.42
	c7.7-1.21,16.06-2.52,25.36-3.61c-4.42-8.3-7.61-12.6-7.71-12.73c-0.42-0.56-0.52-1.31-0.26-1.96c0.26-0.65,0.85-1.12,1.55-1.23
	c0.23-0.03,23.37-3.61,47.61-4.32c33.22-0.99,52.68,3.74,57.82,14.02c2.21,4.42,2.43,7.77,0.67,10.24
	c-4.07,5.71-17.53,3.92-36.18,1.46c-14.7-1.95-31.36-4.16-46.51-3.07c-3.74,0.26-7.34,0.58-10.81,0.94
	c9.91,20.2,23.35,56.68,24.9,108.04c0.84,27.59-6.67,54.14-16.81,75.37c1.55-0.56,3.15-1.11,4.79-1.68
	c86.5-29.61,110.18-133.19,116.35-176.34c1.88-13.18,33.62-15.93,94.27-20.01c33.06-2.23,70.54-4.76,105.44-10.38
	c32.6-5.26,55.83-16.89,71.59-31.82c-1.6-58.76-12.38-100.08-19.12-125.95c-2.63-10.1-4.72-18.07-5.34-23.74
	c-0.84-7.56,2.56-9.1,4.66-9.34c12.18-1.41,46.19,39.94,50.98,80.64c1.62,13.8,1.76,40.74-15.52,66.2
	c-3.4,5.01-7.27,9.66-11.6,13.95c0.61,25.63-0.53,54.5-4.46,86.8c-8.51,69.94-32.62,131.93-71.65,184.23
	c-32,42.87-74.03,79.35-124.93,108.44C750.11,1531.29,703.53,1548.15,669.65,1553.44z M629.1,1530.03c-0.21,0-0.4,0.02-0.58,0.06
	c-0.35,0.09-0.81,0.31-1.26,1.27c-3.07,6.55-2.83,11.32,0.72,14.6c5.05,4.65,16.23,6.2,31.49,4.78c-2.53-1.95-4.9-3.8-7.13-5.54
	C641.52,1536.78,632.85,1530.03,629.1,1530.03z M588.82,1373.42c-40.57,16-43,27.98-42.67,31.52c0.28,3.01,2.76,4.97,4.95,5.28
	c4.05,0.57,9.67-2.13,15.81-7.62C573.84,1396.41,581.72,1386.25,588.82,1373.42z M608.19,1177.42c12.99,0,26.46,1.78,38.6,3.39
	c14.61,1.94,29.72,3.93,32.39,0.19c1.01-1.42,0.02-4.12-0.99-6.13c-8.53-17.07-70.9-11.92-98.08-8.01
	c1.57,2.41,4.03,6.41,6.91,11.97c3.97-0.43,8.12-0.8,12.45-1.11C602.34,1177.51,605.26,1177.42,608.19,1177.42z M970.44,970.77
	c-0.1,0-0.21,0.01-0.3,0.02c-1.5,0.17-1.3,3.5-1.14,4.92c0.6,5.37,2.65,13.23,5.24,23.17c6.65,25.49,17.19,65.88,19.14,123.06
	c20.21-21.56,26.26-49,23.31-74.02C1011.92,1007.43,978.99,970.77,970.44,970.77z M439.11,1089.22c10.67,0,24.24,1.34,39.7,2.87
	c34.48,3.41,77.39,7.66,114.65-0.44c9.59-2.08,18.89-5.39,27.58-9.15c-2.33,0.3-4.73,0.6-7.19,0.89
	c-37.43,4.45-79.73,6.47-103.2,6.47c-16.16,0-34.17-2.22-50.06-4.17c-24.25-2.99-47.16-5.82-53.06,0.69
	c-1.43,1.58-1.8,3.8-1.13,6.79c0.18,0.82,0.38,1.63,0.58,2.43c3.8-0.2,8.42-1.48,13.91-3.83
	C425.18,1089.92,431.39,1089.22,439.11,1089.22z M676.35,1059.62c-3.59,0-12.72,5.12-21.58,10.09c-2.71,1.52-5.6,3.13-8.64,4.79
	c29.97-5.78,31.86-11.2,31.86-12.47c0-0.55-0.06-1.86-0.61-2.18C677.12,1059.69,676.77,1059.62,676.35,1059.62z M419.72,965.69
	c-14.1,37.87-19.53,86.01-21.23,105.22c4.52-5.93,13.38-15.18,30.61-27.72c15.41-11.21,28.13-23.31,36.42-33.01
	c-0.69,0.23-1.37,0.46-2.04,0.7c-13.71,4.67-25.55,8.71-32.17,12.68c-7.55,4.53-14.11,5.09-17.55,1.48
	c-2.9-3.04-2.7-8.11,0.51-12.91c6.14-9.21,52.93-26.97,62.57-23.75c1.73,0.58,2.84,1.89,3.12,3.7c0.37,2.38-0.9,5.86-3.45,10.06
	c11.23-3.98,22.81-8.43,33.25-13.65c14.68-7.34,19.92-22.01,22.06-34.88c-19.86,10.52-83.28,12.62-104.65,9.95
	C424.59,963.24,422.15,963.94,419.72,965.69z M473.38,991.9c-11.85,0-51.07,15.37-55.79,22.45c-2.09,3.14-2.47,6.32-0.94,7.93
	c1.51,1.59,5.72,1.98,12.6-2.15c6.99-4.19,19.01-8.29,32.94-13.04c2.62-0.89,5.29-1.81,8.01-2.74c4.04-5.44,6.12-9.61,5.81-11.66
	c-0.05-0.32-0.13-0.41-0.43-0.52C475.01,991.99,474.27,991.9,473.38,991.9z M1353.74,602.38c53.98,52.19,91.02,117.44,110.12,194.05
	c16.41,65.86,18.47,137.06,6,206.44c50.92-64.69,97.69-160.66,33.71-329.34c-26.47-29.37-62.81-46.71-90.6-56.45
	C1386.96,607.97,1364.16,603.91,1353.74,602.38z M707.39,863.46c-2.77,0.66-5.59,1.32-8.46,2c-46.62,11-104.65,24.69-114.69,48.11
	c-10.44,24.35-14.98,43.93-11.58,49.88c0.22,0.39,0.89,1.57,4.15,1.35c13.48-0.94,48.48-24.17,85.1-56.49
	C679.33,892.94,694.74,877.69,707.39,863.46z M538.27,930.89C538.27,930.89,538.26,930.9,538.27,930.89
	c-0.48,0.97-0.71,4.53-0.94,7.98c-0.09,1.47-0.2,3.07-0.33,4.78c2.84-4.16,2.8-7.8,2.56-9.48
	C539.31,932.38,538.67,931.32,538.27,930.89z M1007.19,801.71c0.86,0,1.62,0.55,1.9,1.37c18.6,55.81,98.02,62.71,145.47,66.84
	c2.71,0.24,5.32,0.46,7.8,0.69c40.82,3.71,77.93-4.42,109.9-15.28c-22.08-26.7-41.2-28.06-66.89-29.88
	c-21.32-1.51-47.87-3.4-84.2-19.91c-27.58-12.54-42.81-30.85-52.89-42.97c-4.98-5.98-9.29-11.17-11.92-11.17
	c-0.06,0-0.13,0-0.19,0.01c-1.24,0.12-2.64,1.63-4.17,4.47c-20.39,37.86-71.25,41.11-73.4,41.23c-0.8,0.04-1.54-0.39-1.9-1.1
	c-0.36-0.71-0.26-1.57,0.25-2.18c0.14-0.17,13.74-16.81,11.04-35.75c-3.29-23.04-61.82-64.4-96.09-72.97
	c-28.76-7.19-69.23-10.61-98.69,13.95c-23.23,19.36-30.9,51.56-37.66,79.97c-3.19,13.38-6.19,26.01-10.55,36.91
	c-4.5,11.26-13.7,25.25-26.52,40.73c15.71-3.88,29.47-7.7,38.18-11.72c13.96-6.45,23.33-16.54,33.25-27.22
	c16.14-17.38,32.83-35.36,70.72-38.97c32.79-3.12,85.79,9.67,93.26,25.27l53.22-2.31C1007.13,801.71,1007.16,801.71,1007.19,801.71z
	 M825.49,811.28c11.76,5.85,37.36,17.08,64.17,19.15c29,2.23,50.35-5.94,57.92-14.48c2.3-2.59,3.39-5.2,3.26-7.78l-9.58,0.42
	L825.49,811.28z M1105.96,683.1c-28.56,0-56.77,13.67-85.55,41.37c10.22-4.01,21.28-10.23,32.05-16.3
	c21.37-12.03,43.47-24.48,61.28-21.23c7.15,1.3,13.17,1.24,18.03-0.17c-1.26-0.35-2.53-0.69-3.8-1
	C1120.6,683.99,1113.27,683.1,1105.96,683.1z M929.4,586.87c2.76,4.05,16.07,15.01,53.12,36.51c29.7,17.24,57.41,31.11,62.34,31.99
	c32.32,5.77,46.11-2.09,58.47-16.63c-5.43,1.33-11.31,1.94-17.51,1.94c-40.49,0-94.9-25.74-129.1-41.91
	C945.41,593.42,933.77,587.91,929.4,586.87z M881.78,566.9c11.43,1.5,18.35,0.3,20.62-0.22c1.98-4.57,11.44-25.6,28.97-52.87
	C905.55,538.56,887.73,559.64,881.78,566.9z M1149.5,357.34c-68.55,13.88-120.17,50.45-155.61,85.29
	c-14.91,14.65-27.83,29.8-38.85,44.29c0.47-0.4,0.95-0.81,1.42-1.22c28.26-24.06,56.59-43.72,84.23-58.44
	c34.63-18.44,68.26-29.13,99.96-31.77c24.6-2.05,47.41-7.03,55.97-9.05C1183.16,374.24,1167.05,364.64,1149.5,357.34z"/>
</svg>
