<?xml version="1.0" encoding="utf-8"?>
<!-- Generator: Adobe Illustrator 26.3.1, SVG Export Plug-In . SVG Version: 6.00 Build 0)  -->
<svg version="1.1" id="Calque_1" xmlns="http://www.w3.org/2000/svg" xmlns:xlink="http://www.w3.org/1999/xlink" x="0px" y="0px"
	 viewBox="0 0 2000 2000" style="enable-background:new 0 0 2000 2000;" xml:space="preserve">
<style type="text/css">
	.st0{clip-path:url(#SVGID_00000000937420818720593050000012921461355909617840_);fill:#FFFFFF;}
	.st1{fill:#F5E9D9;}
	.st2{fill:#E2B590;}
</style>
<g>
	<defs>
		<rect id="SVGID_1_" x="0.06" width="1999.94" height="2000"/>
	</defs>
	<clipPath id="SVGID_00000116952605927248804230000016439705539334169246_">
		<use xlink:href="#SVGID_1_"  style="overflow:visible;"/>
	</clipPath>

		<rect x="0.06" style="clip-path:url(#SVGID_00000116952605927248804230000016439705539334169246_);fill:transparent;" width="1999.94" height="2000"/>
</g>
<path class="st1" d="M727.94,459.04c-152.29,6.88-214.74,118.19-234.83,156.13c-20.09,37.93-103.27,229.55,31.61,333.93
	C659.6,1053.46,867.25,930.61,887.16,871c19.9-59.61,65.96-160.29,35.78-259.3C892.77,512.69,775.38,456.89,727.94,459.04"/>
<path class="st2" d="M977.96,494.78c1.74,101.56,78.99,368.03-67.7,460.91c-146.69,92.87-296.53,66.02-382.79,257.79
	c-51.06,113.53,161.45,288.18,287.31,315.09c125.86,26.91,431.18,28.75,604.22-144.3c99.23-99.23,238.14-364.7,167.93-575.33
	c-73.47-220.4-166.02-350.16-303.41-397.86C1165.11,369.96,976.22,393.22,977.96,494.78"/>
<path d="M1059.1,1613.85c-0.35,0-0.71-0.1-1.02-0.28c-64.13-38.36-116.17-77.69-155.33-117.35c-9.89,26.72-26.38,52.55-51.94,70
	c-0.6,0.73-1.37,0.99-1.95,1.07c-0.92,0.13-1.82-0.39-2.15-1.26c-0.33-0.88-0.02-1.86,0.76-2.38c0.1-0.07,0.2-0.13,0.3-0.2
	c0.49-2.2-1.65-12.03-10.53-27c-13.73-23.18-68.83-99.21-201.47-104.31c-0.67-0.03-1.28-0.39-1.63-0.96
	c-19.39-31.93-28.53-62.42-27.16-90.61c1.43-29.49,14.39-57.23,38.5-82.44c13.24-13.84,24.29-28.24,33.46-41.2
	c-5.94,2.4-12.71,4.72-20.4,6.84c-67.19,18.53-96,39.62-100.47,122.27c-0.04,0.66-0.39,1.25-0.95,1.59
	c-0.56,0.35-1.24,0.4-1.85,0.14c-39.49-17.07-69.88-52.92-85.59-100.93c-15.03-45.94-14.93-99.7,0.27-147.48
	c14.2-44.62,43.59-73.99,78.1-94.6c-27.51,4.65-59.11,1.93-92.66-16.05c-21.13-11.32-41.91-44.96-54.22-87.79
	c-13.98-48.65-15.55-101.68-4.4-149.32c0.19-0.8,0.84-1.4,1.65-1.52c0.81-0.13,1.61,0.26,2.02,0.97
	c15.16,25.86,41.84,42.23,75.13,46.11c39.27,4.57,80.73-9.32,105.62-35.4c12.19-12.77,20.75-21.96,26.99-28.67
	c19-20.4,19-20.4,42.48-37.09c1.77-1.26,3.65-2.59,5.67-4.03c-32.16,14.65-58.26,20.07-79.72,20.07c-26.86,0-46.45-8.49-61.57-18.05
	c-8.47,6.1-18.29,8.92-30.25,6.86c-11.23-1.94-25.18-11.17-27.24-21.31c-0.75-3.69-0.22-9.01,6.55-13.37
	c11.02-7.08,21.46,0.99,34.69,11.21c4.71,3.64,9.96,7.7,15.97,11.64c14.07-11.36,24.43-32.66,35.17-54.74
	c5.54-11.4,11.28-23.19,17.68-33.93l2.9-4.89c26.38-44.44,62.51-105.31,142.24-131.17c56.1-18.2,106.1-17.19,144.59,2.92
	c33.64,17.58,57.42,48.66,70.68,92.38c4.07,13.43,8.14,25.8,11.74,36.72c12.7,38.56,21.09,64.03,11.22,80.36
	c-6.07,10.05-18.43,16.13-40.05,19.74c-29.2,4.87-47.98,17.81-63.9,39.06c5.7,3.43,12.6,7.03,21.05,10.81
	c0.68,0.3,1.14,0.96,1.18,1.71c0.04,0.74-0.33,1.45-0.97,1.84c-31.94,19.02-64.6,84.7-67.33,100.47
	c-1.55,8.97-10.04,46.9-45.69,76.16c-7.23,25.52-13.29,57.59-0.12,93.03c10.8,29.09,30.29,40.69,49.13,51.91
	c17.05,10.15,33.16,19.74,41.71,41.12c5.88,14.7,6.72,38.26,7.62,63.2c1.26,35.08,2.55,71.35,18.25,82.14
	c21.6,14.85,36.99,32.76,48.24,45.84c7.41,8.63,13.26,15.43,18.14,18.36c15.34,9.21,39.09,14.15,65.13,13.56
	c25.31-0.56,49.05-6.45,63.5-15.74c9.37-6.03,20.25-18.41,32.84-32.76c11.45-13.04,24.42-27.82,40.01-42.37
	c10.73-10.02,9.99-38.1,9.19-67.84c-0.95-35.79-1.94-72.79,15.06-91.58c7.89-8.72,19.26-18.1,31.31-28.03
	c25.3-20.87,53.98-44.52,65.83-73.33c8.72-21.21-1.79-57.29-11.06-89.13c-3.45-11.84-6.71-23.03-9.05-33.39
	c-6.12-27.08-31.14-47.32-51.25-63.59c-14.26-11.53-25.73-20.81-27.6-29.89c-12.57-5.85-24.88-15.5-35.82-36.52
	c-13.82-26.57-65.21-41-93.4-45.34c-6.75-1.04-12.16-1.55-16.37-1.73c-0.08,16.92-1.65,35.79-3.7,54.99
	c-4.73,44.24,8.43,92.89,39.09,144.61c7.74,13.06,24,27.24,42.89,36.76c4.34-9.24,9.88-17.38,19.19-21.34
	c9.88-4.21,22.6-3,38.89,3.7c3.24,1.33,7.61,2.6,12.24,3.94c12.18,3.53,19.66,5.98,20.84,10.23c0.31,1.09,0.32,2.76-1.35,4.55
	c-7.82,8.44-33.36,15.21-52.57,13.93c-11.98-0.8-24.08-4.33-35.32-9.51c-1.17,2.73-2.27,5.53-3.37,8.31
	c-1.98,5.04-4.03,10.24-6.42,14.77c-16.04,30.43-12.86,60.79-10.76,80.87c0.27,2.58,0.52,5.01,0.71,7.19
	c0.8,9.59,6.41,17.05,12.34,24.94c7.48,9.95,15.21,20.24,13.93,35.58c-1.08,12.95-25.85,23.07-49.81,32.85
	c-2.92,1.19-5.8,2.37-8.59,3.54c-9.33,3.89-16.39,15.56-18.89,31.23c-2.72,16.98,0.26,39.06,13.02,50.07
	c14.01,12.09,36.72,1.84,51.74-4.93c8.85-4,13.3-6,15.66-3.71c1.86,1.8,0.61,4.84,0.14,5.99c-5.24,12.74-42.13,22.36-53.31,25
	c-28.21,6.67-56.85,9.18-72.95,6.38c-7.1-1.23-14.53-3.12-22.04-5.3c-6.88,2.37-14.81,3.87-23.84,4.53
	c-22.76,1.68-44.79-4.16-48.09-12.73c-0.68-1.76-1.15-5.23,3.3-8.7c8.22-6.4,27.9-0.11,50.69,7.16c5.93,1.89,11.94,3.82,17.9,5.56
	c16.51-6.02,26.01-17.57,29.94-35.7c4.14-19.12-4.41-44.18-21.29-62.37c-10.55-11.37-21.92-13.01-30.22-14.21
	c-6.11-0.88-10.94-1.57-13.34-5.59c-1.24-2.08-1.11-4.46,0.36-6.7c5.36-8.2,28.02-14.41,44.92-12.3
	c11.45,1.43,15.71,16.21,19.84,30.52c4.35,15.06,8.45,29.3,19.48,29.3c0.09,0,0.18,0,0.27-0.01c9.84-0.2,11.06-9.93,11.91-25.94
	c0.6-11.14,1.21-22.66,8-28.07c3.47-2.77,8.25-3.64,14.21-2.61c20.69,3.58,34.32,2.96,38.38-1.74c1.45-1.69,1.66-4.01,0.64-7.12
	c-4.91-14.87-22.77-17.16-77.52-16.94c-43.79,0.19-63.24,13.54-74.86,21.52c-9.05,6.22-15.03,10.32-23.68,0.7
	c-7.11-7.91,6.4-25.75,20.85-43.35c2.13-2.59,3.97-4.83,5.18-6.44c12.37-16.49,6.61-43.93-6.67-82.86
	c-5.28-15.47-10.46-27.85-15.75-37.48c-14.34,7.96-30.45,13.56-46.88,13.57c-6.83,0-13.72-0.97-20.56-3.14
	c-16.27-5.16-23.62-9.89-23.84-15.33c-0.29-7.36,12.34-12.51,28.33-19.03c2.12-0.86,4.28-1.74,6.43-2.64
	c14.16-5.9,25.29-6.6,35.04-2.2c8.29,3.74,15.79,11.27,22.96,23.35c16.24-9.65,29.95-22.23,38.72-32.4
	c11.68-13.53,24-38.97,32.96-68.04c12.25-39.75,18.73-86.97,18.76-136.56c0-1.34,0.77-3.13,4.41-4.02c1.75-0.43,4.28-0.65,7.42-0.66
	c-0.28-27.94-5.03-50.06-19.4-55.97c-12.92-5.31-32.53-20.87-47.23-43.67c-11.97-18.56-24.8-48.25-17.96-84.35
	c5.94-31.36-6.56-50.72-18.1-61.43c-6.94-6.45-15.02-11.17-23.34-14.35c-9.49,4.93-17.04,10.54-23.3,15.18
	c-4.32,3.21-8.06,5.98-11.45,7.81c-9.73,5.24-18.73,5.74-24.7,1.38c-4.15-3.03-6.04-7.99-5.05-13.26c1.56-8.32,9.65-15.2,21.64-18.4
	c13.22-3.52,28.55-2.26,42.65,2.88c14.33-7.18,32.87-12.77,57.66-11.81c52.15,2.01,74.42,33.08,92.31,58.04
	c0.52,0.73,1.04,1.45,1.55,2.16c-6.21-30.21-17.05-50.15-33.03-60.81c-18.12-12.08-43.6-13.41-82.61-4.31
	c-0.88,0.21-1.79-0.21-2.22-1c-0.43-0.8-0.26-1.78,0.4-2.4c32.44-30.4,107.09-33.6,161.16-27.12
	c66.87,8.02,108.38,38.1,123.39,89.38c2.58,8.83,4.24,18,5.1,27.17c7.43-7.67,15.75-14.33,24.55-19.54
	c24.53-14.52,52.93-18.16,82.12-10.55c51.5,13.43,125.11,62.43,163.11,156.3c6.27,15.49,12.4,34.11,18.89,53.82
	c28.13,85.43,63.13,191.74,149.56,177.63c0.58-0.09,1.17,0.07,1.62,0.45c0.45,0.38,0.7,0.94,0.7,1.52
	c0,29.22-17.76,65.16-48.74,98.62c-27.37,29.57-59.29,50.4-79.42,51.84c-4.87,0.35-9.65,0.59-14.34,0.74
	c22.48,12.55,42.92,35.53,55.93,63.34c15.5,33.13,18.74,69.05,8.91,98.54c-37.38,112.16-99.57,175.22-100.2,175.84
	c-0.58,0.58-1.45,0.75-2.2,0.43c-0.75-0.33-1.23-1.08-1.21-1.89c0.02-0.84,1.75-84.03-37.9-122.06
	c-12.19-11.68-28.29-22.9-45.33-34.77c-36.44-25.39-74.03-51.57-74.64-84.49c-15.48,32.87,26.38,72.78,74.69,111.28
	c20.85,16.61,35.52,46.61,41.31,84.48c5.36,34.96,2.66,73.61-7.4,106.03c-0.25,0.8-0.96,1.36-1.79,1.41
	c-73.86,4.54-136.39,45.03-175.84,78.2c-42.8,35.98-68.38,71.3-68.63,71.65c-0.48,0.67-1.33,0.98-2.13,0.77
	c-0.8-0.21-1.39-0.89-1.48-1.71c-0.11-0.93-7.93-72.78-5.37-142.92c-18.02,18.73-36.87,36.07-53.46,48.99
	c-48.72,37.92-69.41,104.44-50.3,161.77c0.26,0.79,0.01,1.66-0.65,2.19C1059.99,1613.7,1059.55,1613.85,1059.1,1613.85
	 M904.29,1491.9c33.55,34.33,81.66,73.43,151.34,115.53c-16.82-57.72,4.6-123.3,53.21-161.14c16.99-13.22,36.81-31.39,56.17-51.85
	c0.84-18.46,2.44-36.66,5.13-53.26c20.29-125.14,55.69-159.25,57.19-160.64c0.67-0.62,1.68-0.71,2.44-0.21
	c0.38,0.24,9.35,6.09,16.79,19.52c6.81,12.29,13.55,33.56,7,65.07c-7.1,34.17-35.42,73.81-57.93,101.04
	c-8.31,10.07-17.36,20.25-26.69,30.13c-2.63,60.61,2.89,123.8,4.65,141.8c8.07-10.42,31.57-39.16,66.21-68.29
	c25.37-21.33,51.69-38.71,78.21-51.64c32.74-15.98,65.9-25.19,98.57-27.4c9.55-31.58,12.06-69.01,6.87-102.93
	c-5.64-36.87-19.8-65.97-39.85-81.95c-53.35-42.52-98.9-86.94-71.17-123.77c0.56-0.73,1.55-1,2.4-0.63
	c0.84,0.37,1.33,1.27,1.17,2.18c-5.97,34.47,33.83,62.2,72.32,89.01c17.18,11.97,33.41,23.27,45.82,35.18
	c21.45,20.57,30.94,53.52,35.13,77.53c3.21,18.4,3.88,34.53,4,42.4c13.47-14.84,63.78-74.53,95.82-170.63
	c9.51-28.53,6.32-63.37-8.74-95.58c-13.94-29.8-36.55-53.85-60.86-64.88c-0.47,0-0.94,0-1.41,0c-61.35,0-107.35-18.36-143.5-56.92
	c-32.89-35.08-40.8-60.25-37.24-72.11c2.28-7.6,11.32-12.95,23.04-13.65c16.74-1,38.89,7.63,50.73,34.84
	c14.3,32.85,51.04,79.57,107.52,103.1c0.56,0.24,1.13,0.48,1.7,0.73c7.04-0.05,14.29-0.34,21.76-0.88
	c19.19-1.37,50.04-21.69,76.78-50.57c29.47-31.83,46.71-65.78,47.64-93.57c-38.95,5.48-71.05-12.02-98.07-53.44
	c-23.57-36.13-39.51-84.54-53.58-127.25c-6.47-19.65-12.58-38.21-18.8-53.57c-37.44-92.5-109.81-140.73-160.41-153.93
	c-46.18-12.04-82.23,5.98-105.25,31.39c2.28,36.76-7.84,72.89-22.25,88.62c-6.44,7.03-13.65,9.98-20.86,8.54
	c-2.18-0.44-3.82-1.66-4.73-3.53c-4.02-8.22,5.97-28.98,25.49-68.02c4.8-9.6,11.04-18.71,18.29-26.85
	c-0.74-10.1-2.44-20.24-5.29-29.99c-14.51-49.6-54.89-78.72-120.03-86.54c-49.9-5.99-117.45-3.73-151.59,20.86
	c35.65-7.32,59.79-5.19,77.57,6.67c18.42,12.28,30.31,35.86,36.35,72.08c0.15,0.91-0.34,1.81-1.19,2.17
	c-0.85,0.36-1.83,0.1-2.39-0.64c-2.24-2.99-4.44-6.06-6.76-9.3c-18.29-25.52-39.02-54.45-89.22-56.38
	c-22.07-0.85-39.05,3.68-52.45,9.85c7.8,3.44,15.08,8.1,21.21,13.8c12.27,11.4,25.58,31.95,19.3,65.11
	c-12.23,64.59,39.25,113.9,62.78,123.57c16.28,6.7,21.64,29.83,21.92,59.76c29.61,1.3,96.54,16.88,113.33,49.16
	c9.93,19.08,20.75,28.23,32.17,33.9c0.47-2.79,1.98-5.43,4.51-7.88c12.35-11.94,16.72-22.32,21.34-33.32
	c4.8-11.44,9.77-23.27,23.96-37.35c10.93-10.86,25.37-13.36,39.61-6.86c17.84,8.15,30.87,28.21,29.68,45.66
	c-0.77,11.12-7.16,23.08-13.94,35.74c-11.25,21.02-22.86,42.73-11.13,63.7c1.22-0.05,2.36-0.24,3.5-0.43
	c4.09-0.68,8.72-1.44,15.54,2.93c7.12,4.57,8.97,9.92,8.33,13.4c-0.52,2.82-2.59,4.87-5.54,5.48c-2.55,0.53-11.79,0.95-23.26-16.08
	c-0.29-0.43-0.57-0.86-0.83-1.29c-6.69-0.54-15.53-5.45-32.34-27.42c-12.33-16.13-26.16-20.47-40.79-25.07
	c-4.51-1.42-9.06-2.85-13.6-4.64c3.42,7.07,13.65,15.34,25.17,24.66c20.59,16.65,46.22,37.38,52.64,65.81
	c2.32,10.24,5.56,21.37,8.99,33.15c9.92,34.05,20.18,69.26,10.92,91.77c-12.23,29.73-41.32,53.72-66.99,74.89
	c-11.92,9.84-23.19,19.13-30.88,27.63c-15.93,17.6-14.92,55.43-14.03,88.8c0.82,30.66,1.59,59.62-10.46,70.87
	c-15.44,14.41-28.35,29.11-39.74,42.08c-13.31,15.17-23.83,27.15-33.67,33.48c-32.67,21-99.72,22.13-132.86,2.25
	c-5.43-3.26-11.47-10.28-19.11-19.18c-11.1-12.91-26.3-30.6-47.47-45.15c-17.36-11.93-18.69-49.23-19.98-85.29
	c-0.88-24.59-1.71-47.81-7.33-61.87c-8.05-20.12-23.59-29.37-40.04-39.17c-19.44-11.57-39.54-23.54-50.83-53.94
	c-12.7-34.21-8.11-65.13-1.41-90.31c-8.64,6.4-18.72,12.27-30.46,17.16c-13.68,5.71-31.22,10.51-51.53,16.07
	c-18.88,5.17-39.64,10.86-60.47,18.23c-0.27,0.17-0.53,0.33-0.79,0.48c-12.72,7.58-28.02,14.78-45.25,19.33
	c-38.66,20.46-72.39,50.52-87.72,98.72l-1.91-0.61l1.91,0.61c-31.65,99.49,4.42,207.4,80.47,242.36
	c2.47-39.77,10.8-65.72,26.87-83.91c14.96-16.94,37.09-28.27,76.36-39.11c9.97-2.75,18.51-5.86,25.78-9.15
	c3.37-4.89,6.46-9.51,9.28-13.73c11.74-17.56,18.83-28.16,25.3-28.16c3.38,0,5.78,2.24,6.27,5.85c0.68,5.03-2.46,13.85-13.31,23.51
	c-5.08,4.51-12.98,10.18-24.86,15.68c-9.94,14.38-22.29,31.02-37.57,46.99c-45.62,47.69-49.44,103.97-11.37,167.29
	c83.62,3.46,136.3,35.19,165.81,61.25c32.24,28.48,47.28,59.44,48.86,71.27c23.62-17.28,38.88-42.09,48.04-67.59
	c-10.39-10.71-19.84-21.45-28.33-32.19c-33.57-42.46-44.49-75.53-50.36-93.3c-2.5-7.57-4.31-13.04-6.37-14.82
	c-2.51-2.16-2.16-4.2-1.73-5.22c2.12-5.04,14.8-5.82,25.01-4.96c30.11,2.55,65.53,19.19,74.64,58.25
	C917.24,1420.87,916.32,1456.81,904.29,1491.9z M816.65,1349.08c0.06,0.12,0.23,0.37,0.62,0.71c2.9,2.49,4.65,7.8,7.55,16.59
	c7.13,21.59,21.52,65.16,76.41,122.35c11.14-33.63,11.92-67.79,7.46-86.94c-8.54-36.61-41.95-52.47-70.37-55.11
	C824.64,1345.41,817.41,1347.83,816.65,1349.08z M1228.93,1184.66c-6.22,6.98-36.83,46.1-54.84,157.16
	c-2.44,15.05-3.98,31.42-4.86,48.12c37.76-40.68,72.83-89.33,80.42-125.83c6.27-30.18-0.06-50.44-6.47-62.11
	C1237.86,1192.32,1231.61,1186.76,1228.93,1184.66z M964.25,1236.59c5.68,1.55,11.27,2.87,16.64,3.8
	c34.54,5.99,115.41-13.23,121.88-28.96c0.27-0.65,0.4-1.1,0.48-1.41c-1.97,0.25-6.89,2.47-10.93,4.29
	c-14.99,6.76-40.06,18.07-56,4.32c-13.93-12.02-17.25-35.65-14.36-53.73c2.72-17.05,10.68-29.87,21.3-34.3
	c2.8-1.16,5.69-2.35,8.62-3.54c20.7-8.46,46.46-18.98,47.33-29.48c1.15-13.83-5.79-23.06-13.13-32.84
	c-6.02-8-12.24-16.28-13.14-27.01c-0.18-2.15-0.43-4.56-0.7-7.11c-2.02-19.32-5.41-51.65,11.2-83.15c2.29-4.33,4.21-9.21,6.24-14.37
	c1.13-2.87,2.27-5.76,3.48-8.58c-19.81-9.92-36.54-24.81-44.64-38.48c-31.11-52.48-44.45-101.96-39.63-147.08
	c1.99-18.63,3.58-37.6,3.65-54.64c-4.58,0.04-7.07,0.56-7.85,1.07c-0.06,49.86-6.6,97.37-18.94,137.4
	c-9.11,29.57-21.73,55.54-33.75,69.47c-8.99,10.42-23.06,23.31-39.78,33.22c5.45,9.9,10.74,22.51,16.09,38.16
	c14.07,41.2,19.57,68.57,6.09,86.55c-1.27,1.69-3.13,3.96-5.29,6.58c-8.56,10.43-26.37,32.12-20.96,38.13
	c6.3,7.02,9.36,4.92,18.45-1.32c12-8.23,32.09-22.02,77.1-22.22c53.1-0.23,75.33,1.49,81.34,19.69c1.47,4.49,1,8.18-1.41,10.98
	c-5.16,5.98-19.33,7.01-42.09,3.07c-4.86-0.84-8.46-0.25-11.03,1.8c-5.39,4.29-5.96,14.9-6.5,25.15
	c-0.73,13.8-1.57,29.44-15.82,29.73c-0.13,0.01-0.26,0.01-0.38,0.01c-14.02,0-18.74-16.37-23.31-32.19
	c-3.94-13.66-7.66-26.56-16.49-27.66c-17.46-2.18-37.34,4.81-41.07,10.52c-0.8,1.22-0.58,1.93-0.27,2.46
	c1.42,2.38,5.22,2.93,10.47,3.69c8.89,1.28,21.07,3.03,32.58,15.44c17.73,19.1,26.68,45.6,22.27,65.93
	C988.16,1217.61,979.16,1229.63,964.25,1236.59z M899.41,1223.42c-3.2,0-5.73,0.56-7.41,1.87c-2.77,2.16-2.21,3.62-2.02,4.1
	c2.05,5.32,20.23,11.93,44.06,10.18c6.32-0.46,12.04-1.33,17.2-2.62c-4.09-1.25-8.17-2.56-12.21-3.85
	C923.54,1228.16,908.7,1223.42,899.41,1223.42z M717.84,1172.87c-4.34,0-12.51,12.23-21.98,26.38c-1.68,2.52-3.46,5.17-5.33,7.94
	c23.12-12.26,30.43-25.92,29.62-31.93C719.83,1172.87,718.34,1172.87,717.84,1172.87z M399.63,757.27
	c-9.81,45.74-7.92,96.16,5.41,142.55c12.02,41.83,32.05,74.54,52.27,85.37c37.81,20.25,73.11,20.59,102.63,12.93
	c14.85-7.82,30.39-14.23,45.9-19.73c11.04-7.02,28.51-24.17,46.98-42.29c38.58-37.85,82.31-80.76,103.55-70.61
	c15.28,7.3,10.12,24.1,2.99,47.35c-0.65,2.13-1.32,4.31-2,6.56c30.7-27.71,38.24-61.5,39.68-69.79
	c2.8-16.18,33.7-79.14,66.08-101.21c-7.23-3.35-13.3-6.57-18.42-9.67c-6.99,9.87-13.47,21.39-20.13,34.6
	c-11.03,21.88-33.25,43.76-66.08,65.09c-1.69,1.89-3.59,3.33-5.68,4.21c-1.53,0.64-3.26,1.36-4.15-0.36
	c-0.87-1.67,0.74-2.74,1.52-3.26c0.59-0.39,1.47-0.95,2.59-1.66c1.02-0.65,2.04-1.3,3.04-1.95c7.85-9.31,11.44-32.32,6.65-49.56
	c-1.53-5.51-5.84-11.5-10.39-17.85c-12.24-17.03-27.47-38.22-8.07-70.84c5.02-9.92,13.94-16.6,25.1-18.82
	c12.7-2.52,26.26,1.13,36.27,9.77c6.09,5.25,8.95,10.7,11.98,16.46c4.47,8.51,9.39,17.85,26.4,28.84
	c16.49-21.99,36.27-35.88,66.56-40.93c20.1-3.35,31.95-9.03,37.29-17.86c8.92-14.75,0.76-39.53-11.59-77.04
	c-3.6-10.94-7.69-23.34-11.77-36.81c-12.93-42.66-36.04-72.93-68.7-89.99c-37.51-19.6-86.44-20.52-141.5-2.66
	C635.74,493.49,600.06,553.61,574,597.51l-2.91,4.89c-6.31,10.6-12.01,22.31-17.52,33.64c-10.7,21.99-21.04,43.24-35.12,55.31
	c29.19,17.93,75.28,31.04,158.56-14.17c0.93-0.5,2.08-0.2,2.65,0.69c0.56,0.89,0.33,2.07-0.52,2.69
	c-11.17,8.09-19.45,13.97-26.11,18.7c-23.15,16.45-23.15,16.45-41.88,36.56c-6.25,6.72-14.82,15.91-27.03,28.71
	c-22.48,23.55-57.98,37.5-93.58,37.5c-5.15,0-10.29-0.29-15.4-0.89C442.4,797.32,415.78,781.81,399.63,757.27z M1342.97,857.73
	c-0.8,0-1.58,0.02-2.35,0.07c-9.87,0.59-17.69,4.93-19.45,10.81c-3.09,10.3,4.57,34.34,36.33,68.22
	c33.75,36.01,76.4,54,132.62,55.55c-53.64-24.81-88.67-69.97-102.68-102.13C1376.97,866.19,1358.04,857.73,1342.97,857.73z
	 M749.02,867.91c-21,0-60.83,39.08-93.4,71.04c-14.29,14.03-27.21,26.69-37.56,35.28c16.9-5.51,33.52-10.06,48.9-14.28
	c20.18-5.53,37.6-10.3,51.05-15.91c13.36-5.57,24.51-12.43,33.78-19.9c1.25-4.36,2.53-8.53,3.75-12.48
	c7.41-24.15,10.74-37.02-0.89-42.57C752.98,868.29,751.09,867.91,749.02,867.91z M873.82,899.87c-5.88,0-12.46,1.57-20.03,4.72
	c-2.16,0.9-4.32,1.78-6.46,2.65c-12.2,4.97-26.02,10.6-25.84,15.16c0.08,1.89,2.91,5.92,21.05,11.68c22.08,7,44.8,0.76,64.27-10.06
	c-6.69-11.28-13.61-18.27-21.17-21.68C882,900.7,878.09,899.87,873.82,899.87z M1098.45,922.5c10.93,5.07,22.6,8.52,33.91,9.27
	c19.64,1.31,43.06-5.86,49.37-12.66c0.24-0.26,0.48-0.6,0.43-0.77c-0.67-2.41-11.58-5.57-18.11-7.46c-4.73-1.37-9.2-2.67-12.64-4.08
	c-15.25-6.27-26.96-7.49-35.8-3.72C1107.51,906.54,1102.47,913.97,1098.45,922.5z M1258.48,827.02c7.82,11.3,14.9,14.45,18.63,13.67
	c0.95-0.2,2.13-0.75,2.42-2.29c0.39-2.11-1.1-5.81-6.56-9.31c-5.52-3.54-8.86-2.98-12.72-2.35
	C1259.66,826.84,1259.07,826.93,1258.48,827.02z M777.12,681.55c-2.43,0-4.85,0.23-7.25,0.71c-9.96,1.98-17.89,7.93-22.34,16.76
	c-0.02,0.04-0.04,0.08-0.07,0.12c-18.11,30.4-4.32,49.59,7.84,66.52c4.77,6.64,9.28,12.91,11,19.11
	c3.88,13.99,2.74,32.91-2.77,45.48c28.27-19.39,47.57-39.1,57.45-58.71c6.64-13.17,13.22-24.81,20.38-34.88
	c-17.7-11.45-22.87-21.28-27.57-30.23c-2.97-5.65-5.54-10.54-11.05-15.29C795.56,684.92,786.35,681.55,777.12,681.55z
	 M1165.9,765.29c5.22,2.25,10.57,3.93,16,5.63c14.58,4.58,29.67,9.32,42.77,26.45c13.32,17.41,21.02,23.42,26.59,25.2
	c-10.51-22.07,1.63-44.75,12.43-64.95c6.57-12.27,12.77-23.86,13.48-34.12c1.09-15.91-10.93-34.25-27.35-41.75
	c-7.43-3.39-21.87-7.12-35.14,6.06c-13.62,13.53-18.43,24.99-23.09,36.07c-4.57,10.88-9.3,22.14-22.24,34.64
	C1167.08,760.72,1165.94,762.94,1165.9,765.29z M472.87,667.48c-2.24,0-4.38,0.65-6.57,2.06c-3.91,2.51-5.52,5.61-4.79,9.21
	c1.54,7.6,12.98,16.26,24,18.16c9.99,1.73,18.43-0.45,25.84-5.35c-5.57-3.75-10.5-7.56-14.96-11.01
	C486.03,672.54,479.1,667.48,472.87,667.48z M1206.65,495c-6.07,7.37-11.1,15.23-15.02,23.06c-15.46,30.93-28.82,57.64-25.48,64.47
	c0.25,0.51,0.69,1.12,1.93,1.37c5.84,1.17,11.6-1.3,17.12-7.32C1198.52,562.04,1207.97,529.2,1206.65,495z M859.08,415.42
	c-5.23,0-10.12,0.6-14.41,1.74c-10.46,2.79-17.47,8.5-18.74,15.27c-0.7,3.72,0.6,7.2,3.48,9.3c4.61,3.36,12.25,2.74,20.44-1.67
	c3.13-1.69,6.76-4.38,10.96-7.5c5.66-4.2,12.34-9.16,20.51-13.75C873.74,416.51,866.11,415.42,859.08,415.42z"/>
</svg>
