<?xml version="1.0" encoding="utf-8"?>
<!-- Generator: Adobe Illustrator 26.3.1, SVG Export Plug-In . SVG Version: 6.00 Build 0)  -->
<svg version="1.1" id="Calque_1" xmlns="http://www.w3.org/2000/svg" xmlns:xlink="http://www.w3.org/1999/xlink" x="0px" y="0px"
	 viewBox="0 0 2000 2000" style="enable-background:new 0 0 2000 2000;" xml:space="preserve">
<style type="text/css">
	.st0{clip-path:url(#SVGID_00000069391922463637571620000012333243951733424262_);fill:#FFFFFF;}
	.st1{fill:#E2B590;}
	.st2{fill:#F5E9D9;}
</style>
<g>
	<defs>
		<rect id="SVGID_1_" x="0.06" width="1999.94" height="2000"/>
	</defs>
	<clipPath id="SVGID_00000062159033741921816970000004844268131277733274_">
		<use xlink:href="#SVGID_1_"  style="overflow:visible;"/>
	</clipPath>

		<rect x="0.06" style="clip-path:url(#SVGID_00000062159033741921816970000004844268131277733274_);fill:transparent;" width="1999.94" height="2000"/>
</g>
<path class="st1" d="M647,1537.42c210,146,338.27,157.06,417,125c297-120.96-213-263.96-153.79-744.92c8.63-70.11,93-207,269-199
	c141.55,6.43,308.77,129.34,358.04,98.33c49.26-31,56.14-104.29-5.47-195.76c-97-144-254.9-240.91-484.57-255.58
	C817.79,350.84,581.55,572.34,507,740.46C405,970.46,388.79,1357.9,647,1537.42"/>
<path class="st2" d="M1521,899.46c70,50,172.06,274.64-22.96,462.24c-210.25,202.24-383.43-1-433.73-90.71
	c-79.88-142.44-93.47-187.25-45.31-352.53C1067.15,753.18,1328.69,762.1,1521,899.46"/>
<path d="M1028.51,1637.04c-8.46,0-17.08-0.17-25.89-0.51c-48.66-1.87-96.67-12.17-136.43-23.68c-20.86,6.01-41.33,8.07-55.78,5.13
	c-36.86-7.48-54.39-22.14-62.6-33.12c-9.07-12.12-9.17-22.43-9.17-22.86c0-0.7,0.36-1.35,0.96-1.71c0.6-0.37,1.34-0.39,1.96-0.07
	c0.82,0.43,53.07,27.48,124.76,48.44c8.85-2.62,17.76-5.97,26.29-9.96c20.13-9.41,55.49-30.72,66.04-67.67
	c9.69-33.91,8.63-69.09-4.72-156.84c-8.83-58.02-13.85-101.68-11.62-140.03c2.41-41.48,13.63-75.95,35.31-108.47
	c7.04-10.56,13.52-19.57,19.46-27.37c-2.72-2.65-5.38-5.21-7.96-7.69c-26.89-25.82-48.13-46.22-42.72-87.7
	c5.01-38.39,27.8-93.98,54.22-137.82c-42.09-83.75-114.62-127.28-215.58-129.39c-85.2-1.77-136.83,25.2-174.53,44.89
	c-2.44,1.28-4.81,2.51-7.13,3.71c-10.96,12.94-20.63,25.17-29.88,37.39c0.16,1.56,0.33,3.17,0.49,4.82
	c3.17,32.33,5.61,76.35,7.25,130.84c1.07,35.72,1.66,71.36,1.97,101.73c52.91,0.04,146.75,3.52,180,37.52
	c8.44,8.63,12.53,18.81,12.16,30.25c-1.72,53.29-42.83,84.1-77.02,100.56c-44.6,21.47-96.87,28.39-130.91,27.72
	c-53-1.06-98.07-16.39-130.32-44.32c-26-22.51-43.36-53.36-47.62-84.64c-7.65-56.08,72.5-161.54,115.56-218.2
	c14.06-18.5,25.77-34.69,37.09-50.34c9.27-12.81,18.05-24.95,27.22-37.09c-0.85-7.98-1.72-14.87-2.59-20.83
	c-25.86,5.99-45.97-2.92-46.92-3.35c-0.18-0.08-0.35-0.19-0.5-0.33c-10.12-8.99-12.39-22.84-5.4-32.91
	c6.32-9.11,21.57-15.59,43.77-3.88c3.36,1.77,7.93,7.76,12.34,35.47c2-0.58,4.02-1.26,6.06-2.04c7.78-2.99,15.83-6.96,24.72-11.55
	c6.08-7.16,12.56-14.54,19.59-22.25c28.77-31.56,61.74-51.84,100.79-61.98c35.96-9.34,72.23-9.03,106.07-7.29
	c42.31,2.17,79.43,11.43,110.31,27.53c24.59,12.82,45.67,29.96,64.34,52.32c4.04-11.46,9.9-25.14,17.52-39.93
	c-17.12-1.44-33.09-5.37-47.86-11.79c-32.41-14.09-59.54-39.9-82.95-78.92c-19.49-32.49-57.28-55.18-91.88-55.18
	c-0.88,0-1.66-0.58-1.92-1.42c-0.26-0.84,0.07-1.76,0.81-2.24c14.96-9.93,40.87-15.91,66.02-15.23c27.5,0.75,50.12,8.9,64.32,23.07
	c1.64-12.83,8.78-50.56,37.69-79.47c14.31-14.31,28.05-31.87,38.4-49.62c-12.64-22.33-22.48-44.16-22.48-59.59
	c0-12.75,6.02-21.34,16.1-22.98c10.98-1.78,23.06,5.2,26.41,15.25c5.9,17.71-1.57,42.64-15.47,67.24
	c9.44,16.48,20.36,33.24,29.8,47.72c2.81,4.32,5.5,8.45,8,12.33c12.77,19.87,18.41,40.5,20.89,58.79
	c9.25-3.28,19.07-5.93,29.37-7.92c35.91-6.91,74.36-4.85,102.85,5.51c0.87,0.32,1.41,1.19,1.3,2.11c-0.11,0.92-0.83,1.65-1.75,1.76
	c-53.83,6.41-97.56,46.1-124.76,78.27c-19.29,22.81-34.92,47.04-46.7,69.1c27.45,1.3,57.85-3.93,91.6-15.57
	c63.36-21.85,122.44-25.85,175.59-11.9c43.24,11.35,72.92,32.05,90.2,47.41c20.76,18.45,44.67,30.37,67.27,34.68
	c5.24-13.51,13.1-25.92,21.31-33.25c12.71-11.35,22.56-9.71,27.3-7.72c7.78,3.26,13.32,11.82,13.77,21.29
	c0.37,7.65-2.89,14.1-8.74,17.24c-13.98,7.52-31.89,9.94-51,6.99c-4.55,12.9-6.51,26.42-3.79,36.62
	c5.09,19.08,48.49,91.83,86.79,156.01c18.68,31.31,36.33,60.88,49.21,83.6c20.1,35.41,20.77,40.33,19.66,42.54
	c-0.12,0.25-0.26,0.49-0.4,0.74c2.8,7.67,3.31,15.86,1.53,24.53c-8.07,39.28-31.05,71.7-66.46,93.74
	c-31.64,19.7-72.99,30.68-116.42,30.9c-26.72,0.14-78.28-3-123.4-25.62c-44.73-22.42-70.54-57.35-76.7-103.84
	c-0.09-0.69,0.18-1.38,0.73-1.82c0.55-0.44,1.29-0.56,1.94-0.32c44.04,16.23,150.23,26.08,200.17,14.27
	c0.15-1.99,0.3-3.98,0.44-5.94c-38.63,0.23-81.65-0.04-118.6-3.19c-55.51-4.73-83.82-15.05-86.52-31.53
	c-1.72-10.48,4.08-20.01,17.23-28.33c28.99-18.36,94.26-29.72,166.32-29c9.33,0.1,18.5,0.39,27.46,0.87
	c2.62-49.01,3.53-87.64,2.91-119.94c-1.19-62.77-8.32-99.4-21.8-111.94c-3.6-2.27-69.89-43.49-132.92-55.67
	c-119.88-23.16-196.04,22.48-238.81,64.86c-11.94,11.83-24.5,28.78-36.36,48.22c2.8,5.59,5.54,10.98,8.19,16.21
	c23.49,46.3,40.46,79.75,40.46,126.01c0,30.7-8.35,40.15-26.64,60.85c-6.74,7.63-14.98,16.96-24.77,29.63
	c8.24,8.13,16.89,17.17,25.23,27.6c18.6,23.25,30.86,63.95,34.51,114.62c3.26,45.11-0.76,93.89-10.74,130.49
	c-4.74,17.39-12.75,52.16-13.1,89.67c-0.34,35.73,6.33,63.24,19.81,81.77c28.42,39.09,80.8,41.98,119.74,37.51
	c42.53-4.87,78.75-19.32,79.11-19.47c0.9-0.36,1.92-0.03,2.44,0.79c0.51,0.82,0.37,1.89-0.34,2.54
	C1204.98,1612.87,1129.36,1637.03,1028.51,1637.04 M873.29,1610.66c39.46,11.11,84.32,20.13,129.48,21.87
	c107.73,4.14,188.21-17.14,245.6-65.02c-13.85,4.71-40.4,12.67-69.97,16.07c-25.37,2.91-47.99,1.95-67.25-2.86
	c-24.24-6.06-43.17-18.26-56.26-36.27c-29.5-40.56-23.13-116.91-7.33-174.84c20.43-74.9,14.92-194.12-23.03-241.56
	c-8.1-10.12-16.51-18.94-24.56-26.9c-5.81,7.65-12.15,16.47-19.01,26.76c-45.9,68.85-39.34,138.75-23.07,245.68
	c13.45,88.41,14.48,123.98,4.61,158.54c-8.15,28.52-32.37,53.45-68.19,70.2C887.47,1605.52,880.39,1608.31,873.29,1610.66z
	 M743.1,1565.48c0.76,3.77,2.77,10.19,8.11,17.24c7.82,10.33,24.58,24.15,60,31.34c12.47,2.54,29.67,1.17,47.69-3.37
	c-13.86-4.16-26.6-8.43-37.87-12.47C781.55,1584.09,752.62,1570.22,743.1,1565.48z M569.98,826.42c-8.22,10.98-16.2,22-24.58,33.58
	c-11.34,15.68-23.07,31.88-37.15,50.42c-42.71,56.2-122.2,160.8-114.78,215.24c8.3,60.9,65.35,123.32,174.06,125.5
	c33.57,0.68,85.13-6.15,129.1-27.32c33.19-15.99,73.11-45.8,74.76-97.09c0.33-10.31-3.38-19.5-11.03-27.32
	c-32.16-32.9-124.71-36.28-177.1-36.32c0.45,46.39,0.27,79.54,0.26,80.09c-0.01,1.03-0.79,1.89-1.81,1.98
	c-5.92,0.55-145.46,13.25-176.12-14.69c-4.13-3.76-6.22-8.15-6.22-13.04c0-19.58,35.56-34.25,56.75-41.24
	c31.1-10.28,69.3-16.91,97.33-16.91c2.51,0,5.68-0.03,9.4-0.07c4.69-0.05,10.21-0.1,16.37-0.12c-0.31-30.34-0.9-65.94-1.97-101.62
	c-1.63-54.39-4.07-98.32-7.23-130.56C570.02,826.75,570,826.58,569.98,826.42z M1227.42,1127.45
	c14.1,90.46,108.69,122.74,193.89,122.74c0.59,0,1.17,0,1.76-0.01c71.13-0.37,160.68-32.39,178.98-121.44
	c1.44-7.02,1.22-13.7-0.66-20.03c-11.48,10.83-46.11,21.72-113.56,21.72c-9.9,0-21.45,0.11-33.68,0.23
	c-7.66,0.08-15.66,0.16-23.87,0.22c-0.18,2.55-0.37,5.12-0.57,7.71c-0.06,0.87-0.67,1.59-1.51,1.8
	C1379.39,1152.59,1274.12,1143.34,1227.42,1127.45z M579.27,1063.1c-6.17,0.02-11.68,0.07-16.37,0.12
	c-3.74,0.04-6.92,0.07-9.44,0.07c-27.64,0-65.35,6.55-96.08,16.7c-34.32,11.34-54,24.99-54,37.45c0,3.77,1.61,7.07,4.92,10.08
	c27.57,25.11,154.55,15.25,171.25,13.83C579.58,1133.79,579.67,1103.45,579.27,1063.1z M1427.72,1138.45h0.01H1427.72z
	 M1398.03,1042.83c-68.67,0-130.01,10.99-157.51,28.4c-11.67,7.39-16.85,15.57-15.42,24.31c2.33,14.22,30.23,23.7,82.91,28.2
	c36.89,3.14,79.93,3.41,118.55,3.16c2.24-30.71,4.03-58.27,5.39-83.18c-8.91-0.47-18.02-0.76-27.29-0.86
	C1402.44,1042.84,1400.23,1042.83,1398.03,1042.83z M1435.94,1043.95c-1.35,24.85-3.13,52.32-5.36,82.93
	c8.09-0.06,15.97-0.14,23.53-0.22c12.24-0.12,23.8-0.23,33.72-0.23c74.25,0,104.5-12.94,112.06-21.91
	c-3.78-8.91-11-17.07-21.62-24.41C1550.21,1060.73,1498.3,1047.71,1435.94,1043.95z M1002.74,869.3
	c-25.58,42.98-47.48,96.8-52.36,134.15c-5.15,39.48,14.43,58.28,41.52,84.3c2.48,2.38,5.04,4.83,7.64,7.38
	c9.73-12.57,17.93-21.85,24.65-29.45c18.12-20.53,25.63-29.02,25.63-58.21c0-45.3-16.79-78.4-40.03-124.2
	C1007.5,878.74,1005.15,874.09,1002.74,869.3z M1436.16,1039.96c63.1,3.82,115.76,17.09,144.38,36.86
	c6.73,4.65,12.19,9.62,16.35,14.9c-10.55-21.36-38.79-68.7-64.35-111.54c-40.31-67.55-81.99-137.41-87.23-157.03
	c-2.92-10.96-1.01-25,3.61-38.36c-0.8-0.16-1.61-0.32-2.42-0.49c-23.02-4.95-45.88-17.07-66.09-35.04
	c-30.47-27.08-116.97-84.67-261.83-34.72c-34.48,11.89-66.17,16.99-94.76,15.3c-8.68,16.67-15.12,31.96-19.23,44.29
	c-0.23,0.69-0.82,1.2-1.54,1.34c-0.72,0.13-1.45-0.14-1.91-0.71c-41.1-50.71-98.03-77.26-174.03-81.15
	c-68.52-3.51-140.68-1.16-203.7,67.98c-4.55,4.99-8.87,9.84-12.99,14.58c37.93-19.8,89.8-46.22,174.72-44.44
	c59.72,1.24,110.07,16.82,149.65,46.29c27.97,20.82,50.33,48.02,68.3,83.09c11.66-18.87,23.93-35.31,35.63-46.9
	c28.44-28.17,61.86-48.45,99.34-60.26c43.47-13.71,91.6-15.62,143.05-5.68c65.24,12.6,133.77,55.88,134.45,56.32
	c0.1,0.06,0.2,0.14,0.28,0.21c14.41,13.21,22.01,50.8,23.23,114.93C1439.69,952.11,1438.77,990.83,1436.16,1039.96z M570.69,798.72
	c0.74,5.05,1.48,10.76,2.21,17.2c6.77-8.86,13.8-17.77,21.42-26.99c-5.81,2.87-11.32,5.4-16.75,7.49
	C575.25,797.32,572.95,798.08,570.69,798.72z M521.8,792.85c2.43,1.01,21.18,8.3,44.4,2.9c-4-25.42-7.98-31.72-10.32-32.95
	c-19.89-10.49-33.23-5.15-38.62,2.62C512.31,772.55,512.31,784.22,521.8,792.85z M1454.41,781.65c17.56,2.66,34.16,0.6,47.67-6.66
	c4.52-2.43,6.94-7.36,6.64-13.52c-0.38-7.84-5.04-15.16-11.33-17.79c-6.78-2.84-14.76-0.42-23.09,7.02
	C1466.7,757.47,1459.39,769.06,1454.41,781.65z M803.72,579.92c33.94,2.76,69.49,25.36,88.38,56.84
	c33.53,55.89,75.63,85.33,129.19,89.29c12-22.73,28.08-47.83,48.02-71.42c26.26-31.05,67.72-69,118.99-78.4
	c-35.95-10.65-82.74-9.28-122.45,5.15c1.48,12.89,1.48,24.46,1.48,33.57c0,15.26-12.68,43.36-30.88,59.29
	c-11.48,10.04-24.1,14.48-36.51,12.83c-35.88-4.78-59.12-15.98-71.79-59.03c-9.29-31.58,21-42.43,21.3-42.53
	c0.35-0.12,0.72-0.14,1.07-0.06c21.14,4.55,31.95,15.01,43.39,26.08c2.72,2.63,5.52,5.34,8.53,8.04
	c13.99-17.35,34.34-31.28,59.06-40.67c-2.38-18.07-7.84-38.49-20.41-58.05c-2.49-3.88-5.18-8-7.99-12.31
	c-9.08-13.95-19.52-29.97-28.75-45.92c-10.37,17.46-23.81,34.56-37.81,48.55c-34.13,34.13-36.96,80.88-36.99,81.35
	c-0.04,0.82-0.58,1.53-1.35,1.79c-0.78,0.26-1.63,0.03-2.16-0.59C899.48,562.72,835.68,563.59,803.72,579.92z M950.26,589.49
	c-3.79,1.48-25.94,11.35-18.27,37.43c12.11,41.18,33.41,51.52,68.48,56.19c11.39,1.52,22.61-2.47,33.35-11.87
	c19-16.64,29.51-43.84,29.51-56.28c0-8.75,0-19.81-1.35-32.11c-23.1,9-43.54,22.55-57.69,40.85c-0.33,0.44-0.84,0.71-1.39,0.77
	c-0.54,0.05-1.09-0.12-1.51-0.48c-3.68-3.23-7.02-6.45-10.25-9.58C979.75,603.38,969.9,593.85,950.26,589.49z M999.19,379.89
	c-0.95,0-1.89,0.07-2.81,0.22c-8.1,1.31-12.74,8.25-12.74,19.03c0,14.19,8.99,34.48,20.78,55.54
	c12.67-22.93,19.33-45.79,13.92-62.01C1015.91,385.36,1007.4,379.89,999.19,379.89z"/>
</svg>
