<svg width="730" height="702" viewBox="0 0 730 702" fill="none" xmlns="http://www.w3.org/2000/svg">
<path fill-rule="evenodd" clip-rule="evenodd" d="M643.357 436.074C611.635 505.575 532.803 529.089 461.103 555.956C385.838 584.16 306.002 625.774 234.193 589.394C156.842 550.206 122.333 462.417 108.127 377.13C92.7216 284.651 91.3254 182.908 155.029 114.159C221.111 42.843 289.654 72.6431 385.65 89.8768C474.701 105.864 580.416 119.449 624.298 198.404C664.981 271.603 678.055 360.05 643.357 436.074Z" stroke="white" stroke-width="0.777042"/>
<circle cx="650.108" cy="313.108" r="2.33113" stroke="white" stroke-width="1.55408"/>
<circle cx="133.108" cy="411.108" r="2.33113" stroke="white" stroke-width="1.55408"/>
<circle cx="453.108" cy="116.108" r="2.33113" stroke="white" stroke-width="1.55408"/>
<circle cx="425.439" cy="484.439" r="4.66225" stroke="white" stroke-width="1.55408"/>
<circle cx="198.439" cy="132.439" r="4.66225" stroke="white" stroke-width="1.55408"/>
<circle cx="658.439" cy="385.439" r="4.66225" stroke="white" stroke-width="1.55408"/>
<circle cx="318.102" cy="598.102" r="9.3245" stroke="white" stroke-width="1.55408"/>
<circle cx="183.102" cy="91.1015" r="9.3245" stroke="white" stroke-width="1.55408"/>
<circle cx="513.439" cy="516.439" r="4.66225" stroke="white" stroke-width="1.55408"/>
<circle cx="624.77" cy="470.77" r="6.99338" stroke="white" stroke-width="1.55408"/>
<circle cx="547.662" cy="515.662" r="3.88521" stroke="white" stroke-width="1.55408"/>
<circle cx="416.77" cy="574.77" r="6.99338" stroke="white" stroke-width="1.55408"/>
<circle cx="225.72" cy="585.72" r="1.9426" stroke="white" stroke-width="1.55408"/>
<circle cx="110.051" cy="375.051" r="4.27373" stroke="white" stroke-width="1.55408"/>
<circle cx="352.051" cy="81.0508" r="4.27373" stroke="white" stroke-width="1.55408"/>
<circle cx="151.051" cy="506.051" r="4.27373" stroke="white" stroke-width="1.55408"/>
</svg>
