<?xml version="1.0" encoding="utf-8"?>
<!-- Generator: Adobe Illustrator 26.3.1, SVG Export Plug-In . SVG Version: 6.00 Build 0)  -->
<svg version="1.1" id="Calque_1" xmlns="http://www.w3.org/2000/svg" xmlns:xlink="http://www.w3.org/1999/xlink" x="0px" y="0px"
	 viewBox="0 0 2000 2000" style="enable-background:new 0 0 2000 2000;" xml:space="preserve">
<style type="text/css">
	.st0{clip-path:url(#SVGID_00000006689709008014882160000005185090917919598997_);fill:#FFFFFF;}
	.st1{fill:#F5E9D9;}
	.st2{fill:#E2B590;}
</style>
<g>
	<defs>
		<rect id="SVGID_1_" x="0.06" width="1999.94" height="2000"/>
	</defs>
	<clipPath id="SVGID_00000011018737694018524810000014381786444208570293_">
		<use xlink:href="#SVGID_1_"  style="overflow:visible;"/>
	</clipPath>

		<rect x="0.06" style="clip-path:url(#SVGID_00000011018737694018524810000014381786444208570293_);fill:transparent;" width="1999.94" height="2000"/>
</g>
<path class="st1" d="M551,575c77-55,194.75,55.77,227.5,158.9c32.75,103.13,26.69,292.18,44.49,361.9
	c17.47,68.44,90.47,210.44,266.47,202.44c141.55-6.43,308.73-110,358-79c49.26,31.01,56.14,104.3-5.47,195.76
	c-97,144-293.91,222.67-523.58,237.35C689,1667,505.83,1480.7,422,1317S295.1,757.79,551,575"/>
<path class="st2" d="M986.82,448.44C794.36,620.65,829.8,811.62,843.45,875.41c13.65,63.79,106.59,366.22,393.51,336.22
	c286.93-30,383.45-384.05,362.04-476.63c-34-147-89.04-228.79-233-306S1046.78,394.78,986.82,448.44"/>
<path d="M1016.46,1592.03c-42.74,0-86.04-5.85-128.99-17.44c-99.43-26.85-180.06-79.19-232.06-116.23
	c-66.29-47.22-152.51-110.51-153.38-111.15c-0.75-0.55-1.02-1.54-0.66-2.39c0.36-0.86,1.27-1.34,2.18-1.19
	c8.4,1.46,206.27,35.98,260.78,63.24c0.94,0.46,1.86,0.94,2.78,1.42c-3.23-22.73-3.52-47.75-0.17-71.25
	c11.73-82.12,29.67-145.82,82.75-209.52c0.6-0.72,1.63-0.93,2.46-0.49c0.83,0.43,1.25,1.39,1.01,2.3
	c-29.11,106.74-22.84,176.2,21.66,239.77c45.55,65.06,111.12,73.83,200.46,26.81c27.89-14.68,50.67-41.76,68.14-80.89
	c-17.59-17.27-33.59-36.72-44.3-51.36c-6.33-8.66-26.82-37.66-24.87-47.45c3.19-15.92,19.49-19.81,42.05-25.2
	c17.74-4.23,39.47-9.42,62.48-21.99c3.45-31.45,5.18-65.09,5.18-100.58c0-5.51,0.56-9.74,1.67-12.58c1.57-4.02,4.03-4.86,5.81-4.86
	c10.08,0,23.96,29.18,23.96,50.36c0,26.24-3.44,52.59-28.41,67.57c-1.49,0.89-2.98,1.75-4.46,2.59
	c-2.24,19.93-5.16,38.99-8.76,57.09c-6.53,32.78-15.06,61.28-25.57,85.44c21.34,20.48,43.24,35.89,59.93,37.74
	c8.69,0.96,16.73-2.42,23.91-10.07c28.11-29.97,36.7-118.28,28.78-163.19c-7.87-44.57-20.08-74.19-29.89-97.98
	c-10.69-25.91-18.4-44.63-14.01-67.36c0.06-0.3,0.18-0.58,0.37-0.82c16.41-21.89,42.22-43.88,74.64-63.62
	c32.7-19.9,69.87-36.11,107.49-46.86c64.67-18.48,143.01,9.62,168.76,18.85c2.78,1,5.45,1.96,7.19,2.52
	c-0.99-2.12-3.08-5.7-5.4-9.68c-7.69-13.19-22-37.76-37.38-76.19c-25.66-64.16-78.12-112.56-107.1-135.7
	c-44.21-35.3-84.95-53.78-102.34-53.78c-15.45,0-31.22,5.39-47.06,15.96c16.89,35.62,30.62,71.48,32.59,97.12
	c2.4,31.28-1.34,56.61-7.78,75.49c4.38,12.23,6.25,27.82,2.25,45.82c-5.01,22.55-25.7,51.41-55.34,77.21
	c-27.64,24.05-56.22,39.59-72.82,39.59c-3.81,0-7.11-2.37-9.82-7.03c-8.93-15.39-11.45-56.51-6.43-104.76
	c5.57-53.5,18.86-101.84,36.46-132.64c24.57-42.99,50.14-73.96,75.7-92.04c-30.15-62.79-69.53-124.41-70.16-125.39
	c-0.45-0.71-0.42-1.62,0.09-2.29c0.51-0.67,1.38-0.95,2.18-0.7c0.72,0.22,72.72,22.88,159.81,93.64
	c64.69,52.57,115.98,42.49,148.5,28.67c-15.27-4.36-32.42-13.11-46.09-25.65c-7.13-6.54-14.25-13.18-21.12-19.6
	c-45.91-42.87-89.78-83.83-152.69-107.93c-61.14-0.21-152.46,10.59-219.89,40.09c-59.46,26.01-145.9,92.07-194.14,174.58
	c1.3,1.01,2.6,2.05,3.92,3.11c21.12,17.16,40.95,39.27,59.25,60.61c0.12,0.14,0.22,0.3,0.3,0.47
	c11.71,25.75-6.14,70.06-53.05,131.68c-34.66,45.54-73.18,84.18-73.57,84.57c-0.59,0.59-1.48,0.75-2.23,0.41
	c-0.76-0.34-1.23-1.11-1.18-1.94c0.06-0.99,5.81-100.22,32.98-208.89c6.15-24.59,16.35-47.75,28.49-68.89
	c-22.15-16.65-41.33-23.86-58.42-22.02c-30.1,38.01-40.57,85.73-32.02,145.83c14.42,46.93,16.79,80.22,6.34,89.08
	c-2.65,2.25-5.92,2.58-9.19,0.95c-0.12-0.06-0.23-0.13-0.34-0.21c-17.01-13.32-32.16-27.58-45.34-42.66
	c1.23,16.45,3.31,31.65,6.05,44.96c12.97,4.08,23.84,9.54,30.96,16.67c17.24,17.24,19.02,27.72,17.48,33.48
	c-1.13,4.23-4.38,7.26-9.15,8.53c-7.37,1.98-16.48-0.6-22.14-6.26c-8.33-8.33-15.5-25.71-20.6-49.32c-22.32-6.68-52.68-10-87-9.09
	c-55.61,1.48-105.92,13.44-131.29,31.19c-23.57,16.5-39.42,30.15-45.55,47.22c-5.4,15.01-3.57,33.02,6.38,61.5
	c14.13-24.19,61.28-79.43,114.85-79.43c26.93,0,76.34,13.32,120.15,32.4c23.87,10.4,79.4,37.34,79.4,62.88
	c0,38.64-16.17,60.64-16.86,61.56c-0.06,0.08-0.12,0.15-0.19,0.22c-0.75,0.75-8.44,8.35-19.22,15.93
	c1.38,6.29,2.49,13.23,3.33,20.84c2.42,21.82-2.57,58.18-12.14,88.42c-7.05,22.29-22.9,60.68-49.72,67.39
	c-2.25,0.56-4.81,0.83-7.65,0.83c-26.59,0.01-77.53-24-124.59-59.47c-37.97-28.63-104.98-88.48-127.17-167.74
	c-17.72-63.28-22.88-130.35-15.34-199.35c7.83-71.61,27.43-127.7,42.49-162.14c21.5-49.15,53.38-97.04,94.73-142.31
	c40.75-44.62,92.11-88.25,152.67-129.68c44.91-30.73,101.23-51.77,167.38-62.53c54.44-8.86,104.16-8.91,134.1-8.91
	c0.18,0,0.37,0,0.55,0h0.62c52.59,0,117.3,10.28,177.53,28.2c60.48,18,110.27,41.91,136.58,65.59c0.65,0.58,0.84,1.51,0.49,2.31
	c-0.36,0.79-1.19,1.26-2.05,1.17c-7.47-0.83-16.17-1.4-25.82-1.66c58.42,24.69,100.41,63.9,144.25,104.83
	c6.87,6.42,13.97,13.05,21.09,19.58c14.53,13.32,33.51,22.34,49.23,25.99c5.45-2.54,10.28-5.08,14.45-7.28
	c9.05-4.76,14.03-7.39,17.16-5.5c1.41,0.85,2.12,2.44,2.12,4.72c0,5.45-2.75,9.53-7.94,11.82c-5.83,2.56-14.92,2.62-25.35,0.4
	c-13.18,5.98-30.24,11.96-50.35,13.13c-2.34,0.14-4.7,0.2-7.05,0.2c-33.25,0-66.83-13.59-99.9-40.47
	c-72.87-59.2-134.98-84.47-153.12-91.08c10.05,15.98,41.79,67.5,67.18,120.34c16.37-10.83,32.72-16.35,48.79-16.35
	c21.43,0,64.54,22.47,104.84,54.65c29.29,23.39,82.31,72.33,108.31,137.34c15.27,38.17,29.49,62.56,37.12,75.67
	c5.7,9.78,7.42,12.73,6.2,14.86c-0.49,0.85-1.38,1.33-2.46,1.33c-1.21,0-3.44-0.78-10.33-3.25c-25.45-9.12-102.88-36.9-166.31-18.77
	c-74.6,21.31-146.75,64.94-179.76,108.66c-3.98,21.36,3.52,39.53,13.86,64.62c9.89,23.98,22.19,53.82,30.13,98.82
	c7.98,45.18,0.16,134.68-29.79,166.62c-8.09,8.62-17.26,12.42-27.27,11.31c-18.46-2.05-40.76-18.21-61.23-37.8
	c-17.77,39.27-40.95,66.55-69.31,81.48c-48.96,25.76-91.87,35.06-127.55,27.62c-30.78-6.41-56.31-24.62-78.05-55.68
	c-21.56-30.8-33.66-61.6-38.07-96.93c-4.82-38.53-0.42-83.48,13.44-137.16c-47.96,60.6-64.82,121.99-76.01,200.3
	c-3.46,24.19-3.01,49.97,0.52,73.03c39.14,22.03,57.46,53.84,55.07,68.58c-0.76,4.7-3.57,7.63-7.9,8.25
	c-8.84,1.26-17.09-1.87-24.52-9.31c-12.35-12.35-21.59-36.57-26.21-64.92c-1.73-0.95-3.5-1.88-5.32-2.79
	c-47.66-23.83-211.95-54.3-251.21-61.36c21.86,16.01,91.07,66.61,146.39,106.02c121.5,86.54,310.17,190.59,544.82,95.34
	c90.52-36.74,202.99-117.29,245.61-175.89c58.45-80.37,126.03-203.45,116.04-333.39c-0.59-7.65-3.66-13.83-9.12-18.4
	c-8.68,4.78-21.29,6.03-37.49,7.64c-13.43,1.34-30.16,3-49.76,7.07c-5.37,1.12-8.27,0.91-9.7-0.69c-0.77-0.87-0.97-2.07-0.56-3.29
	c2.06-6.14,23.39-18.09,42.38-21.88c8.56-1.72,37.43-6.22,55.38,6.31c4.65-3.32,7.55-8.19,8.89-15.68
	c0.94-5.21,2.05-10.14,3.14-14.9c3.45-15.23,6.44-28.38,2.38-44.62c-0.42-1.2-6.07-4.86-20.82-8.46
	c-45.95-11.22-140.88-13.89-206.73,46.72c4.2,6.77,22.01,37.04,34.76,81.56c13.35,46.62,23.75,118.92-2.51,198.58
	c-69.8,211.78-158.47,256.11-229.72,291.73c-28.46,14.24-66.12,21.37-106.03,20.1c-41.53-1.33-81.37-11.9-112.17-29.78
	c-43.18-25.06-67.37-62.96-69.96-109.61c-0.06-1.1,0.78-2.04,1.89-2.1c1.11-0.07,2.05,0.78,2.11,1.88
	c2.51,45.24,26.02,82.02,67.97,106.37c67.66,39.27,162.14,35.7,214.41,9.57c70.58-35.29,158.42-79.21,227.7-289.41
	c25.94-78.69,15.66-150.14,2.46-196.23c-14.29-49.93-34.95-81.58-35.15-81.9c-0.54-0.81-0.41-1.89,0.3-2.56
	c30.86-28.93,72.56-47.3,120.59-53.12c40.2-4.87,76.61-0.1,97.27,5.98c10.8,3.18,16.69,6.45,17.51,9.7
	c4.29,17.16,1.06,31.4-2.36,46.48c-1.08,4.72-2.18,9.6-3.1,14.73c-1.48,8.25-4.71,13.74-9.59,17.53c5.74,5.19,8.97,12.03,9.62,20.37
	c4.8,62.45-7.91,129.46-37.79,199.17c-19.57,45.65-46.15,91.71-79.01,136.89c-21.15,29.09-59.03,63.81-106.65,97.77
	c-46.27,32.99-97.54,61.96-140.68,79.47c-55.29,22.44-111.67,35.04-167.57,37.45C1029.83,1591.89,1023.15,1592.03,1016.46,1592.03
	 M772.27,1415.73c4.6,26.11,13.23,48.18,24.64,59.6c6.5,6.49,13.6,9.24,21.13,8.17c2.56-0.37,4.04-1.98,4.52-4.93
	C824.45,1466.89,809.03,1437.4,772.27,1415.73z M1014.7,411.96c-59.06,0-196.13,0.21-299.21,70.74
	C592.81,566.64,512.34,655.06,469.49,753c-18.23,41.66-74.04,190.67-26.97,358.8c21.88,78.12,88.16,137.3,125.73,165.62
	c56.22,42.39,109.67,62.75,128.86,57.96c24.93-6.23,40.07-43.22,46.88-64.71c9.42-29.77,14.35-65.46,11.98-86.78
	c-0.76-6.85-1.73-13.13-2.92-18.85c-15.3,10.05-35.4,18.73-50.99,9.37c-16.22-9.73-25.78-25.82-23.25-39.14
	c1.95-10.27,10.46-17.17,23.95-19.42c13.4-2.23,24.13-0.13,32.79,6.42c9.07,6.86,15.7,18.75,20.05,36.06
	c9.5-6.83,16.35-13.45,17.29-14.37c1.21-1.7,15.98-23.19,15.98-59.06c0-16.08-28.78-38.22-76.99-59.21
	c-43.36-18.88-92.11-32.07-118.55-32.07c-51.88,0-101.5,57.3-113.45,81.2c-0.36,0.72-1.11,1.14-1.9,1.1
	c-0.8-0.04-1.49-0.56-1.76-1.31c-11.6-31.89-13.88-51.72-7.88-68.42c6.49-18.05,22.8-32.18,47.02-49.13
	c25.97-18.18,77.12-30.41,133.48-31.91c28.21-0.75,60.68,1.51,86.19,8.69c-1.51-7.59-2.81-15.77-3.88-24.45
	c-0.98-7.94-1.73-16.1-2.25-24.4c-29.91-35.85-48.92-76.06-55.8-118.69c-8.94-55.42,3.04-114.13,33.75-165.3
	c13.06-21.77,33.03-43.51,57.76-62.88c27.71-21.71,60.31-39.84,96.89-53.88c87.59-33.63,192.33-41.02,302.87-21.36
	c1.09,0.19,1.82,1.23,1.62,2.32c-0.19,1.09-1.23,1.81-2.32,1.62c-109.82-19.52-213.82-12.21-300.73,21.16
	c-69.03,26.5-124.67,68.45-152.65,115.08c-43.08,71.81-58.43,180.25,18.25,275.38c-1.61-32.96,0.25-67.92,5.49-101.12
	c9.43-59.74,37.22-118.82,78.24-166.36c24.27-28.13,53.15-52.35,85.83-72.01c36.29-21.82,77.6-38.18,122.79-48.61
	c81.73-18.86,145.57-20.45,220.34-5.5c18.44,3.69,35.37,8.64,51.11,14.63c11.72,0.06,21.9,0.51,30.18,1.2
	c-26.9-21.95-73.83-43.85-130.27-60.65c-59.87-17.82-124.17-28.04-176.39-28.04h-0.62C1015.07,411.96,1014.88,411.96,1014.7,411.96z
	 M1178.25,1173.85c-22.54,11.87-43.66,16.91-61.01,21.05c-21.9,5.23-36.37,8.68-39.05,22.09c-0.85,4.25,6.35,19.93,24.17,44.3
	c12.35,16.9,27.35,34.57,42.79,49.78c10.11-23.57,18.36-51.35,24.71-83.24C1173.27,1210.68,1176.07,1192.67,1178.25,1173.85z
	 M712.52,1119c-2.87,0-5.9,0.26-9.1,0.8c-11.72,1.95-19.06,7.71-20.68,16.22c-2.22,11.7,6.57,26.08,21.38,34.96
	c14.17,8.5,33.43-0.39,47.98-10.21c-4.1-17.17-10.37-28.81-18.96-35.31C727.42,1121.14,720.62,1119,712.52,1119z M1191.45,1055
	c-0.78,0-1.48,0.78-2.08,2.31c-0.93,2.38-1.4,6.12-1.4,11.13c0,34.57-1.64,67.39-4.89,98.16c0.62-0.36,1.24-0.73,1.86-1.1
	c21.97-13.18,26.47-35.17,26.47-64.14C1211.41,1079.75,1197.24,1055,1191.45,1055z M1461.65,1034.14c0.77,0.07,2.35,0.05,5.36-0.58
	c19.82-4.12,36.66-5.8,50.19-7.14c15.25-1.52,26.49-2.64,34.24-6.26c-13.39-8.16-34.62-7.85-50.7-4.63
	C1481.85,1019.31,1464.23,1030.17,1461.65,1034.14z M1272.65,666.26c-24.85,17.74-49.83,48.16-73.97,90.39
	c-37.78,66.12-47.69,202.99-30.04,233.41c1.94,3.34,4.08,5.04,6.36,5.04c15.45,0,43.66-15.51,70.19-38.61
	c29.02-25.26,49.23-53.32,54.06-75.06c3.29-14.77,2.35-27.91-0.65-38.72c-4.32,10.72-9.51,18.96-14.76,24.63
	c-6.68,7.22-13.96,11.04-21.05,11.04c-19.39,0-34.12-8.7-40.41-23.88c-5.74-13.86-3.18-30.64,6.08-39.9
	c20.12-20.12,46.59-8.41,51.69-5.86c5.8,2.9,13.16,10.59,18.43,22.02c5.37-17.84,8.3-41.11,6.12-69.47
	C1302.8,736.56,1289.31,701.41,1272.65,666.26z M875.38,721.57c-12.24,21.55-21.85,44.19-27.68,67.5
	c-23.47,93.89-30.91,180.69-32.51,202.76C838.51,967.75,961,837.53,937.34,784.18c-18.12-21.13-37.75-42.99-58.54-59.89
	C877.65,723.36,876.51,722.45,875.38,721.57z M740.35,939.62c4.82,21.49,11.43,37.5,19.02,45.09c4.63,4.63,12.31,6.82,18.27,5.23
	c2.35-0.63,5.36-2.13,6.32-5.7c1.04-3.88,0.29-12.89-16.44-29.62C761.58,948.68,752.28,943.63,740.35,939.62z M780.98,929.55
	c1.75,0.82,3.27,0.66,4.64-0.51c6.78-5.74,8.85-31.45-7.62-85c-0.03-0.1-0.05-0.2-0.07-0.3c-8.81-61.67,2.1-110.63,33.34-149.69
	c0.33-0.41,0.8-0.67,1.31-0.73c18.27-2.29,38.53,5.06,61.74,22.42c18.98-32.16,42.25-59.46,62.09-79.74
	c40.42-41.33,90.33-77.28,133.52-96.17c49.18-21.52,105.41-31.36,143.92-35.82c24.73-2.87,47.44-4.18,66.83-4.49
	c-12.6-4.29-25.97-7.92-40.24-10.77c-74.16-14.83-137.51-13.25-218.65,5.47c-182.89,42.21-266.53,174.23-283.81,283.7
	c-5.77,36.56-7.04,73.36-5.08,105.78C746.24,899.45,762.17,914.82,780.98,929.55z M1256.53,807.05c-8.14,0-17.27,2.41-25.24,10.38
	c-8.17,8.16-10.36,23.11-5.21,35.54c3.31,7.99,12.48,21.41,36.71,21.41c5.95,0,12.21-3.37,18.12-9.75
	c5.69-6.15,11.31-15.5,15.72-27.92c-4.85-12.85-12.52-21.51-18.27-24.38C1275.74,811.01,1266.95,807.05,1256.53,807.05z
	 M1523.78,655.22c7.25,1.02,13.41,0.69,17.57-1.14c3.73-1.64,5.55-4.31,5.55-8.16c0-1.04-0.21-1.32-0.21-1.32
	c-1.29-0.63-7.9,2.84-13.2,5.63C1530.64,651.73,1527.4,653.44,1523.78,655.22z"/>
</svg>
