<?xml version="1.0" encoding="utf-8"?>
<!-- Generator: Adobe Illustrator 26.3.1, SVG Export Plug-In . SVG Version: 6.00 Build 0)  -->
<svg version="1.1" id="Calque_1" xmlns="http://www.w3.org/2000/svg" xmlns:xlink="http://www.w3.org/1999/xlink" x="0px" y="0px"
	 viewBox="0 0 2000 2000" style="enable-background:new 0 0 2000 2000;" xml:space="preserve">
<style type="text/css">
	.st0{clip-path:url(#SVGID_00000120544115632392603240000012250785141041621121_);fill:#FFFFFF;}
	.st1{fill:#E2B590;}
	.st2{fill:#F5E9D9;}
</style>
<g>
	<defs>
		<rect id="SVGID_1_" x="0.06" width="1999.94" height="2000"/>
	</defs>
	<clipPath id="SVGID_00000047056554896077162820000012646481983577886090_">
		<use xlink:href="#SVGID_1_"  style="overflow:visible;"/>
	</clipPath>
	
		<rect x="0.06" style="clip-path:url(#SVGID_00000047056554896077162820000012646481983577886090_);fill:#FFFFFF;" width="1999.94" height="2000"/>
</g>
<path class="st1" d="M649,505c210-146,346.79-172.92,417-125c262.17,178.92-179,348-153.79,744.92c4.48,70.49,93,207,269,199
	c141.56-6.44,308.78-129.34,358.04-98.34c49.27,31.01,56.15,104.3-5.46,195.76c-97,144-254.9,240.91-484.58,255.58
	C819.8,1691.57,531.56,1494.12,457,1326C355,1096,390.79,684.52,649,505"/>
<path class="st2" d="M1530.11,1114.25c41.09-57.01,164.96-245.94-30.07-433.53c-210.25-202.24-383.43,1-433.73,90.7
	c-79.87,142.44-88.15,206.12-39.99,371.41C1074.48,1308.1,1361.54,1348.14,1530.11,1114.25"/>
<path d="M1046.56,1673.01c-2.8,0-6.72-1.84-10.7-9.66c-4.59-9.03-0.41-23.96,6.68-41.89c-0.3-0.42-0.61-0.84-0.93-1.28
	c-10.8-14.83-27.12-37.25-29.21-80.65c-1.9-39.46,6.51-56.25,12.07-67.37c2.96-5.92,5.1-10.2,4.54-15.55
	c-0.36-3.46-0.36-12.69-0.14-25.19c-3.52,6.87-7.86,12.61-13.2,16.71c-0.04,0.03-0.07,0.05-0.1,0.07
	c-35.23,23.82-62.34,20.67-75.96,9.77c-0.6-0.48-0.87-1.26-0.7-2c0.17-0.75,0.75-1.33,1.49-1.51c17.75-4.18,36.33-21.36,52.31-48.38
	c13.92-23.55,23.59-51.63,24.62-71.54c0.36-6.85,0.78-13.06,1.19-19.07c2.04-30.35,3.39-50.39-8.38-83.75
	c-9.23-26.15-39.02-63.35-83.87-104.74c-45.98-42.43-104.01-85.58-163.4-121.5c-26.24-15.87-51.07-32.21-75.09-48.01
	c-57.89-38.1-110.17-72.51-167.35-91.53c-26.39,8.39-55.66,13.82-85.46,12.24c-6.12-0.32-10.91-3.07-13.15-7.54
	c-2.17-4.33-1.67-9.59,1.32-14.07c4.53-6.78,13.45-10.22,24.45-9.43c25.6,1.84,49.67,6.96,72.89,14.59
	c47.05-15.17,84.7-39.73,98.98-49.81c10.61-7.49,24.79-17.88,39.79-28.87c14.05-10.29,28.8-21.1,42.63-31.01
	c9.99-7.53,20.45-14.83,31.22-21.78c9.07-6.06,16.64-10.77,21.84-13.37c0.97-0.48,2.14-0.11,2.65,0.84
	c0.51,0.95,0.18,2.14-0.76,2.68c-7.38,4.28-14.65,8.74-21.79,13.36c-9.04,6.06-19.61,13.48-30.8,21.51
	c-19.24,14.5-36.75,29.86-51.45,45.24c-24.77,25.92-38.78,49.33-37.49,62.62c0.5,5.11,3.22,8.46,8.33,10.22
	c22.78,7.87,104.28-83.2,143.45-126.96c27.78-31.04,29.72-32.76,32.07-31.98c4.4,1.47,6.91,6.31,7.96,13.31
	c12.11-10.78,23.46-20.16,32.9-27.25c0.73-0.55,1.74-0.53,2.45,0.04c0.71,0.57,0.95,1.55,0.58,2.38
	c-39.14,87.48-61.05,161.11-75.43,253.6c36.2,2.8,87.04-37.34,97.74-93.48c9.45-49.63,9.45-122.03,9.45-160.93
	c0-1.01,0.75-1.85,1.74-1.98c1-0.13,1.93,0.5,2.19,1.47c6.29,23.9,26.27,52.26,52.13,74c22.12,18.59,58.27,40.75,104.87,40.75h1.08
	c1.1,0,1.99,0.89,2,1.99c0.96,144.41,1.36,385.02,1.44,442.68c1.86-5.29,4.4-12,7.65-19.52c-1.69-61.3-2.46-150.46-3.22-237.84
	c-0.64-73.41-1.24-142.74-2.37-185.26c-0.03-1.1,0.84-2.02,1.95-2.05c80.29-2.21,137.85-62.97,153.21-121.86
	c0.26-1.01,1.25-1.65,2.28-1.46c1.03,0.18,1.75,1.12,1.65,2.16c-0.74,7.74-1.61,15.57-2.46,23.14
	c-4.65,41.64-9.45,84.69,4.77,139.84c14.6,56.61,74.98,93.25,89.38,101.29c-0.93-13.33-6.3-64.79-36.28-154.71
	c-6.45-19.34-13.5-43.85-18.87-65.56c-8.58-34.69-6.97-37.19-6.36-38.13c0.39-0.61,1.02-1.01,1.71-1.08
	c0.95-0.1,1.83,0.48,2.12,1.38c1.88,5.87,3.74,11.74,5.6,17.6c20.97,66.05,40.77,128.43,76.14,169.24
	c25.64,29.58,66.68,33.51,78.07,34.03c-2.55-6.05-8.97-21.15-17.42-40.32c-35.1-20.48-59.47-56.77-68.62-72.02
	c-23.65-39.42-33.18-71.91-23.72-80.84c2.64-2.48,7.74-4.11,17.07,2.26c16.38,11.18,54.98,94.54,78.45,147.83
	c19.98,11.35,43.41,17.31,69.39,10.81c2.68-0.67,4.24-2.05,4.92-4.34c6.22-21.04-60.56-100.11-94.13-136.95
	c-4.25-4.51-6.62-7.18-6.69-7.27c-0.73-0.82-0.66-2.07,0.15-2.8c0.81-0.73,2.06-0.68,2.81,0.12c0.07,0.08,2.14,2.3,5.64,6.15
	c9.62,10.25,30.87,31.96,57.91,53.94c28.77,23.4,69.27,51.17,109.49,61.53c-6.93-6.68-14.68-14.38-23.14-22.78
	c-42.71-42.43-101.21-100.54-154.61-126.52c-92.33-44.92-109.59-44.9-160.72-44.87l-3.06,0c-7.91,21.29-20.99,51.83-43.79,76.74
	c-26.88,29.35-61.3,44.24-102.31,44.24c-54.79,0-90.68-24.67-111.13-45.37c-25.77-26.07-38.72-57.16-42.41-78.16
	c-18.65-1.18-114.62,18.37-182.36,54.5c-38.71,20.64-59.62,38.33-79.84,55.43c-16.87,14.26-32.8,27.73-57.7,41.81
	c-15.95,9.01-35.6,17.03-49.28,22.17c-9.1,3.42-15.97,5.72-19.26,6.78c-8.57,2.78-8.86,2.6-9.71,2.08
	c-0.62-0.38-0.99-1.08-0.96-1.81c0.05-1.23,1.08-1.75,1.42-1.92c4.44-2.22,30.11-17.72,39.88-24.37
	c18.88-12.85,32.54-24.74,47-37.33c21.56-18.78,46.01-40.05,93.26-68.7c115.16-69.79,190.46-73.71,235.45-76.05l2.69-0.14
	c0.91-0.05,1.76,0.54,2.02,1.43c23.84,80.19,65.18,121.02,122.88,121.37c-0.32-48.02-0.68-75.86-1.07-82.73
	c-1.01-18.1-9.28-28.51-16.04-34.05c-10.22-8.37-22.07-10.17-29.12-9.16c-0.56,0.08-1.13-0.08-1.57-0.44
	c-0.43-0.36-0.69-0.89-0.72-1.46c-1.41-38.15,20.81-93.47,38.66-137.93c4.52-11.24,8.82-21.93,12.44-31.61
	c-4.07-15.86-4.96-27.68-5.6-36.19c-0.14-1.9-0.27-3.65-0.43-5.28c-0.8-8.63,1.42-15.79,5.79-18.69c2.27-1.51,4.92-1.65,7.26-0.39
	c4.8,2.58,7.55,10.33,7.55,21.27c0.16,8.65-4.09,22.59-10.41,39.57c2.91,10.99,7.41,23.94,14.53,39.27
	c22.86,49.24,30.84,97.36,35.6,126.11l0.58,3.48c0.11,0.64-0.11,1.3-0.57,1.75c-0.46,0.46-1.12,0.66-1.76,0.54
	c-11.17-2.03-21.96,0.89-30.36,8.22c-9.48,8.29-14.56,21.02-13.94,34.94c0.28,6.35,0.47,39.69,0.67,82.87
	c37.7-0.42,64.63-19.33,80.68-35.28c23.68-23.53,39.59-56.98,39.59-83.23c0-1.06,0.83-1.94,1.89-2
	c43.16-2.27,87.39,5.03,131.48,21.71c39.98,15.12,78.73,37.45,115.19,66.36c38.32,30.4,73.07,66.31,100.98,95.16
	c16.57,17.12,31.12,32.16,43.28,42.94c16.89,0.98,33.41,0.57,48.19,0.21c22.92-0.56,38.06-0.94,42.88,3.94
	c1.14,1.16,1.71,2.62,1.65,4.23c-0.2,5.21-3.68,10.51-9.32,14.17c-7.82,5.08-26.31,11.46-62.21-2.9
	c-6.37-2.55-13.99-8.05-22.77-15.73c-1.85-0.11-3.7-0.24-5.54-0.39c-2.91-0.24-5.83-0.58-8.75-1.03
	c9.89,9.03,17.53,15.02,21.53,15.7c0.9,0.15,1.58,0.89,1.66,1.79c0.08,0.9-0.45,1.75-1.3,2.06
	c-112.04,41.15-181.4,71.34-255.94,111.38c-86.18,46.29-151.29,101.13-224.76,189.29c-14.7,17.64-25.5,38.22-32.78,54.92
	c1.09,39.69,2.56,67.67,4.62,74.75c1.78,6.12,3.75,13.68,5.83,21.69c10.09,38.8,25.33,97.43,50.09,108.85
	c25.05,11.56,37.08,10.77,37.2,10.76c1-0.07,1.92,0.6,2.12,1.59c0.21,0.99-0.35,1.97-1.31,2.3c-2.15,0.73-53.03,17.65-78.25-9.08
	c-8.52-9.03-13.65-16.91-16.72-23.42l0.02,28.22c3.06,4.88,24.67,41.02,20.16,81.35c-2.19,19.56-11.84,42.13-21.18,63.95
	c-2.59,6.06-5.15,12.04-7.45,17.77c3.45,4.82,6.1,8.88,7.2,12.88c5.03,18.29,2.63,35.69-5.36,38.78
	C1048.28,1672.82,1047.48,1673.01,1046.56,1673.01 M1045.32,1625.36c-6.02,15.61-9.59,28.91-5.89,36.18
	c2.77,5.45,5.78,8.18,8.05,7.3c4.53-1.76,7.93-15.87,2.94-33.99C1049.64,1632.01,1047.8,1628.93,1045.32,1625.36z M1033.07,1421.62
	c-0.4,17.28-0.51,30.41-0.08,34.58c0.68,6.51-1.8,11.47-4.94,17.75c-5.38,10.74-13.5,26.98-11.65,65.39
	c1.99,41.48,17.39,63.29,27.91,77.75c2.04-4.99,4.26-10.18,6.54-15.52c9.22-21.56,18.76-43.85,20.88-62.83
	c4.6-41.04-19.61-78.85-19.86-79.22c-0.21-0.33-0.32-0.71-0.32-1.09l-0.02-41.43c-0.73-4.94-0.01-7.74,0.07-8.01
	c0.26-0.97,1.21-1.58,2.19-1.45c0.99,0.14,1.73,0.98,1.73,1.98l0.01,6.92c1.01,6.72,5.11,18.47,19.63,33.85
	c16.98,18,47.94,14.24,63.92,10.72c-6.45-1.35-15.8-4.15-28.26-9.9c-26.48-12.23-41.4-69.6-52.29-111.48
	c-2.08-7.98-4.03-15.52-5.8-21.58c-2-6.87-3.44-31.39-4.53-66.86c-5.35,13.47-7.92,22.77-7.98,22.99c-0.26,0.97-1.2,1.59-2.19,1.46
	c-1-0.14-1.74-0.98-1.74-1.98c0-2.89-0.36-288.93-1.44-453.36c-47.38-0.28-84.06-22.79-106.54-41.68
	c-22.42-18.84-40.54-42.64-49.5-64.46c-0.08,40.65-0.9,104.38-9.52,149.59C858,923,803.05,964.99,765.08,960.24
	c-0.54-0.07-1.02-0.35-1.35-0.78c-0.33-0.43-0.46-0.98-0.38-1.51c14.04-91.29,35.28-164.15,72.86-249.5
	c-8.58,6.74-18.34,14.99-28.59,24.18c0.84,15.44-3.57,38.15-10.08,59.06c-10.74,34.49-27.4,66.61-45.71,88.12
	c-18.48,21.71-38.57,32.85-58.86,32.85c-5.32,0-10.65-0.77-15.97-2.3c-0.52-0.15-0.96-0.51-1.21-0.99c-0.25-0.48-0.3-1.05-0.13-1.56
	c9.67-29,17.41-43.9,35.77-73.95c19.41-31.77,58.17-72.31,92.01-102.85c-0.6-6.81-2.31-11.16-4.91-12.55
	c-3.17,2.33-15.47,16.07-28.46,30.58c-56.09,62.67-117.49,128.7-143.67,128.71c-1.47,0-2.83-0.21-4.07-0.64
	c-6.56-2.26-10.36-6.97-11.01-13.61c-1.42-14.64,12.64-38.61,38.58-65.77c3.42-3.58,6.98-7.15,10.69-10.71
	c-14.64,10.73-28.43,20.82-38.83,28.16c-13.92,9.82-49.78,33.25-95.02,48.67c55.64,19.47,106.78,53.12,163.23,90.27
	c23.98,15.78,48.78,32.1,74.96,47.93c59.61,36.05,117.87,79.37,164.04,121.98c45.33,41.82,75.49,79.59,84.93,106.35
	c12.05,34.13,10.68,54.51,8.6,85.35c-0.41,5.99-0.83,12.19-1.18,19.01c-2.11,40.47-36.44,109.07-75.83,122.41
	c13.04,7.58,37.22,8.41,67.78-12.24c6.92-5.34,12.05-13.77,15.8-24.05c1.17-49.75,4.71-132.26,4.92-136.94
	c0.04-1.04,0.86-1.86,1.89-1.92c1.06-0.04,1.93,0.7,2.08,1.71C1038.61,1288.12,1050.58,1372.98,1033.07,1421.62z M1036.85,1311.63
	c-1.01,25.11-2.46,62.87-3.35,93.7C1040.04,1375.28,1038.81,1337,1036.85,1311.63z M1046.38,820.23
	c1.1,42.7,1.69,111.04,2.32,183.34c0.7,80.57,1.46,167.4,3.01,229.47c7.23-15.4,17.13-32.96,29.94-48.34
	c73.83-88.58,139.29-143.7,225.95-190.25c73.65-39.56,142.23-69.51,251.66-109.84c-5.65-3.22-13.43-9.84-23.06-18.89
	c-43.15-9.05-87.08-38.93-117.78-63.9c-7.83-6.37-15.18-12.72-21.91-18.78c4.86,5.79,9.87,11.88,14.83,18.08
	c35.42,44.27,51.51,73.07,47.81,85.59c-1.08,3.63-3.77,6.08-7.79,7.08c-25.2,6.3-48.02,1.42-67.74-8.73
	c9.26,21.13,15.65,36.39,16.51,38.44c0.26,0.61,0.19,1.31-0.17,1.87c-0.37,0.55-0.98,0.89-1.65,0.9
	c-0.51,0.03-53.07,0.38-84.16-35.49c-35.13-40.54-54.97-101.49-75.56-166.34c4.54,20.34,12.88,51.54,22.04,79
	c35.27,105.81,36.66,158.87,36.67,159.39c0.01,0.7-0.34,1.36-0.93,1.73c-0.6,0.37-1.34,0.41-1.97,0.09
	c-0.19-0.1-19.59-9.95-40.78-27.74c-19.62-16.47-44.87-43.34-53.76-77.79c-14.41-55.87-9.56-99.29-4.88-141.29
	c0.18-1.56,0.35-3.14,0.53-4.72c-9.54,23.79-25.46,46.63-45.26,64.56C1121.14,804.02,1085.27,818.71,1046.38,820.23z M680.12,907.06
	c56.53,14.2,97.92-66.22,113.59-116.55c7.07-22.72,10.05-41.54,9.96-54.32c-33,30.02-70.07,69.05-88.83,99.75
	C697.09,865,689.36,879.74,680.12,907.06z M1564.35,868.81c6.79,5.64,12.72,9.68,17.73,11.68c35.51,14.2,52.77,7.01,58.55,3.26
	c4.55-2.95,7.36-7.06,7.5-10.97c0.02-0.51-0.13-0.89-0.5-1.26c-3.6-3.65-20.44-3.23-39.94-2.75
	C1594.98,869.08,1579.79,869.45,1564.35,868.81z M1291.25,730.81c-1.15,0-2.19,0.31-3.02,1.09c-5.22,4.92-3.2,29.87,24.4,75.88
	c8.54,14.24,30.65,47.28,62.35,67.65c-23.47-52.96-59.73-130.68-74.68-140.88C1297.97,732.96,1294.26,730.81,1291.25,730.81z
	 M444.44,851.03c-11.47,0-16.34,5.33-17.97,7.77c-2.19,3.27-2.59,7.03-1.08,10.06c1.6,3.19,5.07,5.08,9.78,5.33
	c27.25,1.44,54.08-3.09,78.61-10.38c-21.26-6.58-43.24-11-66.48-12.68C446.31,851.06,445.36,851.03,444.44,851.03z M1538.14,862.03
	c4.84,0.97,9.68,1.67,14.47,2.06c0.12,0.01,0.24,0.02,0.36,0.03c-11.5-10.56-24.8-24.31-39.71-39.72
	c-27.84-28.77-62.48-64.58-100.6-94.81c-75.69-60.03-161.58-91-242.1-87.3c-0.74,26.93-16.92,60.48-40.74,84.16
	c-16.76,16.66-45.04,36.44-84.77,36.44c-0.24,0-0.48,0-0.73,0c-1.1-0.01-1.99-0.9-1.99-2c-0.21-44.08-0.39-78.32-0.68-84.69
	c-0.68-15.14,4.9-29.04,15.31-38.13c8.64-7.54,19.52-10.89,30.92-9.56l-0.12-0.77c-4.74-28.55-12.66-76.33-35.29-125.08
	c-6.09-13.12-10.3-24.64-13.26-34.71c-3.19,8.32-6.78,17.26-10.52,26.57c-17.38,43.27-38.93,96.92-38.44,134.15
	c9.88-0.67,21.41,3.22,29.99,10.25c7.38,6.05,16.41,17.36,17.51,36.92c0.39,7.04,0.75,35.61,1.08,84.93
	c0.01,1.1-0.88,2.02-1.98,2.03c-0.43,0-0.87,0.01-1.3,0.01c-59.69,0-102.41-41.28-126.99-122.72l-1.12,0.06
	c-44.62,2.32-119.29,6.21-233.59,75.48c-46.96,28.46-71.27,49.62-92.71,68.29c-14.55,12.67-28.3,24.64-47.38,37.62
	c-5.42,3.68-16.16,10.38-25.33,15.91c16.1-5.68,40.79-15.34,59.02-25.64c24.58-13.89,40.37-27.24,57.09-41.38
	c20.38-17.24,41.46-35.06,80.54-55.9c70.34-37.52,171.36-57.26,186.3-54.77c0.85,0.14,1.51,0.81,1.65,1.66
	c3.22,20.39,15.83,51.45,41.55,77.48c19.92,20.15,54.87,44.18,108.28,44.18c98.74,0,131.92-90.07,142.83-119.67
	c0.29-0.79,1.04-1.31,1.87-1.31l4.46,0c51.88-0.04,69.31-0.05,162.47,45.28c53.99,26.27,112.77,84.65,155.68,127.27
	C1520.27,844.69,1529.82,854.17,1538.14,862.03z M1041.13,404.03c-0.58,0-1.17,0.19-1.75,0.58c-2.54,1.68-4.76,6.97-4.01,14.98
	c0.15,1.65,0.28,3.43,0.43,5.35c0.58,7.69,1.3,17.35,4.07,29.79c5.02-13.99,8.24-25.38,8.11-32.55c0-10.96-2.81-16.37-5.45-17.78
	C1042.07,404.16,1041.6,404.03,1041.13,404.03z"/>
</svg>
