<?xml version="1.0" encoding="utf-8"?>
<!-- Generator: Adobe Illustrator 26.3.1, SVG Export Plug-In . SVG Version: 6.00 Build 0)  -->
<svg version="1.1" id="Calque_1" xmlns="http://www.w3.org/2000/svg" xmlns:xlink="http://www.w3.org/1999/xlink" x="0px" y="0px"
	 viewBox="0 0 2000 2000" style="enable-background:new 0 0 2000 2000;" xml:space="preserve">
<style type="text/css">
	.st0{clip-path:url(#SVGID_00000023998613681047942790000012707649434476326580_);fill:#FFFFFF;}
	.st1{fill:#F5E9D9;}
	.st2{fill:#E2B590;}
</style>
<g>
	<defs>
		<rect id="SVGID_1_" x="0.06" width="1999.94" height="2000"/>
	</defs>
	<clipPath id="SVGID_00000111182120629809792550000000380728891440062108_">
		<use xlink:href="#SVGID_1_"  style="overflow:visible;"/>
	</clipPath>

		<rect x="0.06" style="clip-path:url(#SVGID_00000111182120629809792550000000380728891440062108_);fill:transparent;" width="1999.94" height="2000"/>
</g>
<path class="st1" d="M732.04,1615.75c-86.08-43.9-147.92-206.37,27.39-298.59c97.79-51.44,276.33-133.84,331.14-182.79
	c53.8-48.04,126.32-170.3,58.05-336.74c-65.94-160.74-254.04-161.66-240.07-287.24c6.57-59.08,91.97-169.63,204.26-161.13
	C1342,366.6,1476.23,520,1550,785.99c62.74,226.2-17.84,498.69-126.73,651.7S1018.11,1761.63,732.04,1615.75"/>
<path class="st2" d="M666.75,1169.72c174.52,66.06,285.16-20.26,321.52-50.25c36.36-29.99,199.34-190.3,84.56-364.29
	C958.04,581.19,698.88,637.2,646.65,681.76c-82.94,70.75-117.05,133.28-118.62,251.3C526.45,1051.07,612.38,1149.14,666.75,1169.72"
	/>
<path d="M1058.16,1729.83c-26.91,0-52.32-5.25-75.01-15.64c-13.05-5.98-26.47-16.43-35.44-24.14c-4.42-3.81-8.78-7.84-12.26-11.34
	c-5.29-5.32-5.28-5.96-5.27-6.76c0.01-0.79,0.5-1.55,1.23-1.86c1.35-0.59,2.16-0.11,6.61,3.94c15.8,14.39,73.7,12.57,153.79-18.75
	c28.89-11.31,45.92-34.16,50.72-68.02c-13.13,21.4-46.33,46.39-68.61,52.89c-35.15,10.26-78.51,18.28-102.01-11
	c-0.51-0.64-0.58-1.53-0.18-2.24c0.4-0.71,1.2-1.11,2.01-1c30.79,4.16,75.22,2.12,105.53-63.1c3.57-7.68,1.08-18.61-2.08-32.44
	c-6.33-27.76-15-65.77,11.99-118.01c26.35-51,54.48-68.5,73.44-74.19c14.83-4.46,26.39-2.69,32.04-1.21
	c-6.78-20.07-27.07-34.96-43.38-44.09c-20.32-11.37-38.66-16.52-38.81-16.56c-1.08-0.23-1.76-1.3-1.53-2.38
	c0.24-1.08,1.31-1.76,2.39-1.52c0.74,0.16,74.92,21.66,86.25,67.14c0.19,0.73-0.07,1.51-0.65,2c-0.58,0.5-1.38,0.62-2.08,0.32
	c-0.13-0.06-13.86-5.74-33.38,0.22c-18.13,5.54-45.13,22.54-70.73,72.1c-26.32,50.95-17.84,88.14-11.65,115.29
	c3.33,14.58,5.96,26.09,1.81,35.02c-13.47,28.97-31.35,48.72-53.13,58.69c-14.93,6.83-31.75,9.23-51.3,7.3
	c22.73,22.8,62.07,15.24,94.33,5.82c25.31-7.39,66.29-40.56,70.96-61.74c0.23-1.01,1.2-1.69,2.23-1.55s1.78,1.05,1.73,2.09
	c-2.26,42.42-20.58,70.64-54.45,83.89c-37.27,14.58-72.43,23.81-101.7,26.71c-19.57,1.93-35.41,0.86-46.14-3
	c10.11,9.18,25.35,21.4,39.4,27.84c76.97,35.26,169.25,4.95,222.42-38.14c37.65-30.51,152.22-123.36,71.16-295.68
	c-38.62-82.09-79.31-114.91-106.65-127.98c-29.45-14.09-50.1-8.88-50.31-8.82c-0.63,0.16-1.3,0.02-1.79-0.4
	c-0.5-0.41-0.77-1.04-0.72-1.69c0.07-0.87,1.94-21.51,28.68-33.72c24.43-11.16,47-12.27,68.99-3.41
	c27.61,11.14,53.82,37.49,80.14,80.59c16.51,27.01,30.02,50.29,40.65,70.09c-0.45-4.3-0.89-8.44-1.35-12.38
	c-9.59-83.61-46-124.49-76.64-150.76c-32.26-27.65-73.61-33.76-119.58-17.68c-0.84,0.29-1.78-0.01-2.29-0.74
	c-0.52-0.73-0.49-1.71,0.07-2.41c0.94-1.16,2.01-2.54,3.2-4.08c8.9-11.49,25.47-32.89,48.4-41.08c31.96-11.44,50-0.11,80.84,26.6
	c10.84,9.38,29.63,26.39,49.65,44.71c-9.31-22.65-20.84-48.57-36.88-73.85c-10.21-16.09-27.92-27.73-48.61-31.93
	c-24.66-5-50.76,0.9-73.5,16.63c-0.79,0.54-1.85,0.45-2.53-0.21c-0.69-0.67-0.8-1.72-0.29-2.53c6.84-10.56,22.13-26.15,44.54-38.24
	c18.4-9.92,48.27-20.83,86.02-16.38c31.17,3.68,53.28,40.13,72.79,72.29c6.82,11.24,13.26,21.86,19.83,30.83
	c15.67,21.4,26.37,23.26,32.12,24.25c0.66,0.12,1.26,0.22,1.81,0.34c-0.17-0.15-0.34-0.3-0.52-0.46
	c-7.99-7.05-26.72-23.55-33.57-51.06c-12.04-48.33-23.86-83.92-66.56-101.62c-29.45-12.2-63.86-10.34-94.69-1.18
	c-0.73,0.65-1.45,1.3-2.18,1.95c-16.9,15.13-31.52,28.19-41.48,25.96c-3.3-0.74-5.81-3.08-7.45-6.97c-0.38-0.89-0.06-1.93,0.76-2.46
	c14.7-9.43,31.38-17.03,48.51-22.2c8.52-7.6,17.18-15.14,25.08-20.21c28.22-18.11,79.34-36.35,104.51-12.42
	c10.18,9.68,21.57,26.12,33.09,44.91c-1.61-14.89-3.22-32.6-4.92-53.93c-0.92-11.58-5.01-20.01-12.49-25.78
	c-12.63-9.72-34.99-11.51-68.35-5.47c-35.85,6.49-89.91,28.91-123.87,62.8c-0.51,0.51-1.25,0.7-1.95,0.51
	c-0.69-0.19-1.23-0.75-1.41-1.44c-5.17-20.77-1.72-56.18,23.47-93.31c19.87-29.28,50.99-55.93,83.92-84.15
	c27.99-23.97,56.93-48.77,80.09-76.37c46.12-54.99,62.81-133.99,58.88-187.9c-1.62-22.3-12.97-49.84-32.38-79.08
	c3.15,27.4,0.59,55.48-7.94,81.52c-17.14,52.3-34.4,78.58-44.88,90.9c9.05-3.38,22.4-5.88,37.74-0.83
	c28.75,9.45,18.41,44.04,18.3,44.39c-0.23,0.75-0.87,1.29-1.65,1.39c-0.76,0.1-1.53-0.25-1.95-0.91
	c-0.15-0.23-15.03-23.26-38.95-28.54c-24.8-5.48-34.62,3.94-64.88,37.44c-4.12,4.56-6.64,8.49-8.13,11.8
	c2.19-0.33,4.31-0.53,6.33-0.54c0.15,0,0.31,0,0.46,0c30.18,0,52.41,11.52,54.12,28.08c0.47,4.58,0.67,12.48-3.33,13.87
	c-3.17,1.1-5.96-2.57-7.77-5.43c-9.64-15.18-51.91-19.73-52.33-19.78c-0.53-0.05-1.02-0.32-1.35-0.73
	c-0.2-0.25-2.87-3.72-1.91-10.22c-5.06,1.25-10.3,2.98-15.18,4.59c-3.26,1.07-6.33,2.09-9.25,2.94
	c-26.69,7.79-43.03,19.13-46.02,31.39c34.15,5.14,66.47,28.3,71.18,40.28c1.39,3.53,0.08,5.52-0.82,6.39
	c-5.03,4.86-16.47-2.21-36.24-15.13c-12.2-7.96-26.02-16.99-36.61-20.6c-0.64-0.22-1.12-0.74-1.29-1.39
	c-0.54-2.06-0.79-4.09-0.75-6.1c-2.41-0.26-4.83-0.41-7.25-0.46c-39.79-0.75-79.58,16.03-94.66,33.14
	c22.22,1.73,42.01,7.42,59.03,16.99c25.14,14.13,40.33,28.87,40.64,39.44c0.11,3.89-1.76,7.19-5.43,9.54
	c-0.87,0.56-2.03,0.36-2.66-0.46c-14.23-18.48-33.47-28.94-52.14-37.49c-15.05-6.9-27.36-9.26-35.5-10.83
	c-7.5-1.44-12.02-2.31-13.37-5.7c-0.9-2.24-0.02-4.83,1.85-7.9c-3.56-0.13-7.18-0.17-10.87-0.11c-22.59,0.39-50.97,9.48-77.87,24.94
	c-24.49,14.07-43.12,30.82-48.81,43.84c25.78-10.09,51.26-3.2,74.5,3.09c6.02,1.63,11.71,3.17,17.33,4.41
	c34.42,7.6,97.57,41.29,95.59,78.58c-0.05,0.87-0.65,1.61-1.49,1.83c-0.84,0.22-1.73-0.13-2.2-0.86
	c-13.29-20.95-65.32-33.49-111.22-44.56c-34.85-8.4-64.95-15.66-74.4-25.54c-2.01-2.1-3.92-5.33-3.84-9.97
	c-6.93,3.67-13.87,8.77-20.82,15.66c-33.49,33.21-52.01,66.32-57.92,85.42c40.66-31.59,116.09-19.98,150.97-12.27
	c53.5,11.82,123.62,57.06,116.28,103.9c-0.11,0.75-0.63,1.36-1.35,1.59c-0.71,0.24-1.49,0.06-2.03-0.47l-1.47-1.46
	c-19.02-18.79-40.59-40.08-111.58-64.3c-44.44-15.16-90.65-11.22-121.23-8.62c-21.73,1.85-33.69,2.87-35.31-3.62
	c-0.26-1.03-0.38-2.22-0.38-3.56c-4.1,4.59-7.47,9.74-10.08,15.44c-22.37,48.72-26.43,90.68-27.17,105.09
	c6.2-6.36,20.18-18.93,42.44-29.47c28.14-13.34,75.31-25.64,140.22-8.53c33.04,8.7,59.2,21.43,75.66,36.8
	c15.78,14.74,22.2,31.23,18.57,47.68c-0.12,0.51-0.44,0.96-0.88,1.25c-0.45,0.29-0.99,0.38-1.51,0.27c-2.23-0.5-6.24-3-12.88-7.14
	c-21.43-13.38-66.02-41.21-128.94-50.61c-33.7-5.03-63.22-3.08-87.75,5.8c-18.25,6.62-33.11,17.19-40.77,29.02
	c-5.88,9.08-11.2,35.93-9.45,67.79c0.9,16.47,4.35,43.8,16.69,65.26c37.91,5.96,76.55,9.8,113.33,11.15
	c94.14,3.46,162.35-13.5,163.02-13.67c0.72-0.18,1.48,0.05,1.97,0.59c0.5,0.55,0.66,1.32,0.41,2.02
	c-8.35,23.51-54.57,68.85-105.03,72.39c-14.97,1.05-24.05,2.07-30.29,5.29c1.46,2.41,2.78,5,3.93,7.74
	c6.26,14.95,6.45,31.51,0.51,44.28c-5.79,12.46-13.45,14.74-18.69,12.72c-7.84-3.02-12.55-16.52-6.37-36.47
	c4.85-15.67,8.34-24.39,14.99-29.51c-4.37-6-9.77-10.35-15.61-12.44c-11.38-4.05-20.56-3.65-29.1,1.91
	c1.18,2.04,2.17,4.32,2.93,6.89c6.07,20.52,0.18,48.57-12.11,57.73c-5.44,4.05-11.77,4.12-17.8,0.18
	c-17.33-11.3,0.62-39.02,6.52-48.13c4.95-7.65,9.86-13.48,14.96-17.61c-5.56-6.94-14.57-10.46-25.9-14.88
	c-15.04-5.88-33.77-13.19-52.81-31.96c-4.39-4.33-8.14-9.27-11.34-14.57c-25.6-4.07-50.84-9.11-74.95-15
	c-23.09-5.64-43.97-11.82-61.63-18.13c3.57,7.14,6.96,14.88,10.17,23.2c28.31,73.37,2.35,130.09-18.5,175.66
	c-3.97,8.68-7.73,16.89-10.86,24.69c-10.23,25.46,0.09,50.45,10.55,66.93c13.36,21.06,31.45,36.15,40.04,41.75
	c0.59,0.39,0.94,1.05,0.91,1.76c-0.03,0.71-0.43,1.34-1.05,1.68c-23.79,12.8-65.42-1.87-89.1-31.38
	c-9.4-11.72-13.18-29.55-16.22-43.88c-1.78-8.38-3.99-18.82-6.47-19.36c-0.16-0.04-0.82,0.14-1.84,1.41
	c-6.93,8.63-14.52,47.41,2.24,83.4c11.8,25.33,61.55,47.1,96.91,56.32c20.91-5.29,35.96-8.9,39.53,0.35c1.19,3.09,0,5.74-3.18,7.1
	c-5.75,2.44-19.56,1.01-36.46-3.3c-0.05,0.01-0.1,0.02-0.16,0.04c-20.04,5.07-44.99,11.38-66.59,8.1
	c-38.95-5.91-74.87-27.52-101.15-60.84c-26.52-33.63-41.29-76.93-41.59-121.92c-0.43-63.68,11.02-116.54,34.02-157.11
	c17.35-30.6,41.23-54.64,73-73.51c8.73-5.18,17.57-9.46,26.84-13.02c-21.71-18.8-26.32-23.09-25.15-26.82
	c0.78-2.49,4.04-2.84,5.61-3c6.55-0.7,19.85-0.42,35.4,9.3c5.05,3.15,9.92,7.02,14.6,11.58c33.13-7.2,73.84-9.24,132.24-12.16
	l0.86-0.04c-0.8-24.03-16.67-38.75-33.78-51.08c-15.19-10.94-39.99-16.67-68.01-15.69c-29.76,1.04-58.29,9.4-80.34,23.55
	c-34,21.81-60.11,44.7-79.58,65.97c-12.55,36.06-36.38,86.06-46.54,88.54c-1.46,0.36-2.81-0.02-3.8-1.06
	c-1.45-1.52-1.92-4.23-1.44-8.29c1.29-10.79,10.09-33.04,30.65-60.23c4.74-6.27,10.59-13.43,17.7-21.21
	c1.49-4.34,2.81-8.49,3.94-12.36c1.68-5.76,10.31-25.59,29.79-47.81c24.47-27.92,57.17-49.11,94.58-61.3
	c55.82-18.18,108.89-1.63,136.51,22.18c0.7-18.61-5.48-33.61-18.42-44.62c-23.17-19.74-64.41-22.69-93.17-15.4
	c-15.58,3.95-38.79,11.21-62.71,18.84c-17.38,15.49-32.68,28.51-47.92,32.96c-29.64,8.65-50.14,2.63-54.53-2.51
	c-1.52-1.78-1.05-3.31-0.78-3.88c0.79-1.67,2.83-2.44,6.23-2.39c0.05,0,0.1,0,0.15,0c8.21,0,45.28-11.87,81.14-23.35
	c4.55-1.46,9.13-2.93,13.68-4.38c1.12-1,2.26-2.02,3.4-3.04c21.25-19,45.33-40.53,73.75-51.2c36.31-13.63,75.93,0.48,98.82,16.69
	c8.7,6.17,14.73,12.4,17.14,17.54c8.65-12.96,12.18-25.54,10.22-36.6c-1.98-11.18-9.51-21.19-22.38-29.74
	c-28.65-19.03-79.34-12.29-105.83-6.91c-13.96,9.56-26.3,18.93-34.89,25.45c-5.66,4.3-9.76,7.41-12.02,8.87
	c-14.1,9.04-28.93,11.81-34.49,6.43c-1.74-1.69-4-5.63,0.46-13.11c5.11-8.57,37.9-22.04,73.09-30.04c1.84-0.42,3.89-0.87,6.13-1.32
	c29.32-20.11,64.9-40.43,89.65-38.33c38.16,3.22,55.81,31.37,60.62,43.58c12.86-15.2,11.95-24.26-3.04-44.9
	c-24.13-33.25-63.99-17.3-99.16-3.22c-18.87,7.55-35.17,14.08-47.31,12.44c-0.76-0.1-1.39-0.63-1.63-1.36
	c-0.24-0.73-0.04-1.53,0.51-2.06c30.37-29.31,66.25-59.41,102.14-60.43c35.27-1.01,72.6,18.55,87,37.24
	c0.67,0.88,0.51,2.13-0.36,2.81c-0.88,0.67-2.13,0.51-2.81-0.36c-13.8-17.92-49.7-36.66-83.72-35.69
	c-33.23,0.95-67.03,28.37-96.11,56.08c10.85-0.39,25.45-6.24,40.8-12.38c34.72-13.9,77.92-31.19,103.89,4.59
	c16.77,23.1,16.87,34.39,0.49,52.53c-0.5,0.55-1.25,0.78-1.97,0.6c-0.72-0.18-1.28-0.74-1.46-1.46c-0.69-2.77-4.74-12.9-13.98-22.85
	c-11.66-12.55-26.55-19.67-44.24-21.17c-21.22-1.8-52.24,14.73-79.18,32.43c28.42-4.89,72.89-8.54,99.64,9.22
	c13.81,9.18,21.92,20.07,24.1,32.38c2.33,13.14-2.3,28.06-13.38,43.14c-0.52,0.7-1.43,0.99-2.25,0.71
	c-0.83-0.28-1.38-1.06-1.36-1.93c0.07-3.39-5.1-10.74-16.62-18.9c-22.09-15.66-60.26-29.29-95.11-16.21
	c-26.29,9.87-49.04,29.51-69.23,47.52c20.9-6.63,40.61-12.7,54.43-16.2c29.76-7.54,72.54-4.38,96.75,16.23
	c14.91,12.7,21.49,30.23,19.55,52.11c-0.07,0.77-0.57,1.43-1.29,1.7c-0.72,0.27-1.53,0.11-2.08-0.42
	c-25.76-24.49-79.19-42.48-135.62-24.1c-83.25,27.12-117.22,90.85-121.77,106.43c-0.41,1.41-0.85,2.87-1.32,4.36
	c17.68-18.3,41.93-39.38,74.39-60.21c49.52-31.77,121.54-30.29,152.85-7.73c18.42,13.26,35.47,29.26,35.47,56.22
	c0,1.06-0.84,1.94-1.9,1.99l-2.79,0.14c-56.77,2.85-96.71,4.85-129.11,11.56c8.09,8.62,15.6,19.4,22.48,32.28
	c18.29,6.74,40.48,13.38,65.27,19.44c23.02,5.63,47.07,10.47,71.48,14.44c-11.51-21.71-14.81-48.08-15.69-64.24
	c-1.6-29.17,2.65-58.69,10.09-70.19c15.36-23.71,59.26-47.53,132.47-36.6c63.74,9.52,108.81,37.66,130.47,51.18
	c4.05,2.53,7.49,4.67,9.68,5.8c2.22-14.22-3.91-28.54-17.83-41.55c-15.98-14.92-41.55-27.32-73.95-35.86
	c-63.63-16.76-109.78-4.8-137.29,8.19c-29.82,14.08-44.8,32.37-44.95,32.56c-0.53,0.65-1.41,0.91-2.21,0.63
	c-0.8-0.28-1.34-1.02-1.35-1.86c-0.01-0.51-0.31-51.17,27.69-112.14c3.69-8.04,8.62-14.76,14.49-20.37
	c4.15-20.06,24.94-57.64,60.43-92.84c8.1-8.03,16.24-13.72,24.36-17.61c0.28-1.04,0.66-2.14,1.14-3.29
	c5.78-13.85,25.2-31.56,50.69-46.2c27.47-15.78,56.55-25.06,79.79-25.47c4.63-0.08,9.16-0.01,13.6,0.22
	c14.21-18.6,57.11-37.65,99.65-36.82c2.55,0.05,5.1,0.21,7.64,0.49c2.96-13.97,20.09-26.28,48.97-34.71
	c2.85-0.83,5.89-1.83,9.11-2.9c5.62-1.85,11.69-3.86,17.54-5.16c1.48-4.23,4.43-9.37,9.84-15.36c30.8-34.1,41.82-44.61,68.71-38.66
	c19.8,4.37,33.42,19.54,38.85,26.63c1.65-8.77,3.02-28.77-16.71-35.26c-23.58-7.75-42.61,4.05-45.91,6.29
	c-0.33,0.24-0.54,0.38-0.62,0.44c-0.91,0.58-2.11,0.35-2.73-0.53c-0.61-0.88-0.42-2.09,0.44-2.74c0.06-0.05,0.24-0.19,0.53-0.39
	c3.5-2.66,28.47-23.67,52.88-98.17c9.17-27.98,11.29-58.37,6.71-87.64c-2.88-4.09-5.9-8.2-9.08-12.34
	c-25.63-33.37-58.31-64.04-87.42-82.03c-65.84-40.71-142.66-46.6-222.15-17.03c-46.99,17.48-84.43,54.64-100.17,99.39
	c-11.54,32.82-9.42,65.08,5.97,90.84c2.85,4.78,6.81,9.3,11.52,13.65c4.77-4.41,9.49-7.4,12.7-6.92c1.48,0.22,2.6,1.12,3.14,2.53
	c1.07,2.78-0.51,7.96-3.66,14.19c9.09,6.55,19.43,12.75,29.61,18.85l3.22,1.93c9.94,5.97,24.22,10.75,38.67,13.16
	c2.76-6.41,6.29-12.28,10.14-17.31c15.09-19.73,36.11-30,53.56-26.14c0.84,0.19,1.47,0.89,1.56,1.74c0.09,0.85-0.37,1.67-1.16,2.03
	c-20.11,9.19-34.62,25.12-45.58,41.39c10.2,0.11,19.48-1.36,26.21-4.86c29.42-15.3,29.15-35.84,28.84-59.62
	c-0.17-12.99-0.35-26.43,4.19-40.27c9.56-29.2,27.6-46.24,56.75-53.63c31.73-8.04,48.6,10.27,49.3,11.06
	c0.7,0.78,0.68,1.96-0.04,2.71c-0.72,0.76-1.9,0.83-2.71,0.17c-2.21-1.53-19.54-2.32-37.45,4.71
	c-13.87,5.44-31.54,17.07-36.95,41.57c-4.72,21.35,3.05,43.89,10.56,65.69c10,29.03,20.35,59.05,2.18,87.46
	c-13.63,21.31-35.61,32.91-60.26,31.85c-24.91-1.08-47.47-15.27-58.86-37.02c-1.75-3.35-3.09-6.76-4.06-10.17
	c-4.4,8.25-8.03,14.01-11.89,15.77c-14.15,6.46-34.85,5.78-54.01-1.78c-18.17-7.17-31.47-19.09-37.43-33.56
	c-1.2-2.91-1.95-5.88-2.32-8.85c-5.36,3.79-9.57,4.9-12.76,3.41c-11.06-5.17-27.63-20.58-37.94-47.02
	c-7.95-20.37-14.66-54.04-1.5-98.8c23.48-79.85,144.4-217.03,317.53-172.32c67.34,17.39,117.45,53.1,144.9,103.27
	c10.27,18.77,17.19,39.42,20.63,60.68c21.01,30.13,35.71,61.52,37.62,87.77c3.98,54.71-12.97,134.91-59.81,190.76
	c-23.37,27.86-52.43,52.76-80.54,76.84c-32.73,28.04-63.65,54.52-83.22,83.36c-23.09,34.02-27.41,66.34-23.65,86.62
	c34.68-33.07,87.84-54.93,123.39-61.36c35.02-6.34,57.73-4.36,71.49,6.24c8.32,6.4,13.05,16.03,14.05,28.63
	c2.04,25.63,3.94,45.99,5.88,62.44c8.16,13.71,16.31,28.28,24.07,42.14c12.74,22.76,23.74,42.42,31.18,51.69
	c3.09,3.85,4.16,7.03,3.2,9.45c-0.38,0.98-1.48,2.68-4.45,3.09c-6.48,0.91-18.63-4.8-26.95-15.6
	c-16.46-21.38-23.99-31.17-30.91-89.39c-12.81-21.42-25.85-41.04-36.93-51.58c-23.34-22.18-73.48-3.87-99.6,12.89
	c-5.79,3.72-12.08,8.88-18.44,14.42c4.68-1.18,9.38-2.17,14.06-2.96c27.56-4.65,53.56-2.37,75.2,6.6
	c47.86,19.84,59.05,64.74,68.91,104.35c6.55,26.29,23.97,41.64,32.34,49.02c4.03,3.56,5.54,4.89,4.56,6.81
	c-0.97,1.91-3.32,1.49-7.41,0.59c-0.53-0.12-1.12-0.22-1.77-0.34c-6.31-1.09-18.05-3.13-34.67-25.83
	c-6.67-9.11-13.15-19.8-20.02-31.11c-19.03-31.38-40.6-66.95-69.84-70.39c-59.87-7.06-102.13,24.49-119.82,44.04
	c21.21-11.75,44.58-15.73,66.85-11.21c21.74,4.42,40.4,16.7,51.19,33.7c18.11,28.54,30.47,57.77,40.39,82.32
	c36.26,33.24,74.04,68.37,74.65,68.94c0.56,0.52,0.78,1.32,0.55,2.05c-0.22,0.74-0.85,1.28-1.6,1.39
	c-1.15,0.18-28.34,4.2-46.1-10.26c-10.13-8.24-18.14-28.17-28.29-53.39c-0.84-2.09-1.7-4.22-2.57-6.4
	c-22.27-20.41-43.86-40.01-55.8-50.34c-32.72-28.33-48.41-36.03-76.88-25.86c-21.13,7.56-36.91,27.31-45.74,38.69
	c44.88-13.88,85.29-6.85,117.2,20.5c31.2,26.75,68.27,68.35,78.02,153.34c0.78,6.82,1.53,14.21,2.33,22.02
	c0.01,0.09,0.02,0.18,0.02,0.27c23.19,44.68,29.97,69.69,21.9,78.64c-2.52,2.79-5.08,3.78-7.6,2.96
	c-9.55-3.13-13.43-33.75-18.17-80.21c-11.29-21.73-26.35-48.04-45.17-78.85c-60.54-99.11-111.21-90.63-144.06-75.63
	c-19.26,8.8-24.48,22.08-25.87,27.73c6.94-1.03,25.3-2.1,49.72,9.49c28.02,13.29,69.65,46.64,108.89,130.06
	c33.22,70.6,37.87,135.71,13.83,193.53c-20.91,50.29-59.14,85.13-86.08,106.96c-29.7,24.06-67.57,41.7-106.62,49.65
	C1087.83,1728.28,1072.77,1729.83,1058.16,1729.83 M630.34,1214.06c-9.82,3.63-19.1,8.04-28.24,13.47
	c-71.44,42.43-105.8,116.73-105.06,227.15c0.6,89.99,60.51,166.87,139.34,178.83c18.5,2.81,39.92-1.78,58.29-6.33
	c-7.72-2.25-15.87-5.02-24.07-8.22c-16.9-6.61-57.4-24.55-68.51-48.41c-17.11-36.75-10.12-77.14-1.73-87.59
	c2.31-2.88,4.44-3.13,5.82-2.82c4.99,1.1,6.79,9.59,9.52,22.44c2.95,13.91,6.62,31.23,15.43,42.2
	c21.57,26.89,58.41,41.04,81.04,31.8c-9.59-6.91-25.96-21.46-38.33-40.96c-15.71-24.76-19.48-49.16-10.88-70.56
	c3.17-7.89,6.94-16.14,10.93-24.86c20.54-44.89,46.11-100.76,18.41-172.56c-3.74-9.71-7.74-18.6-11.96-26.66
	c-21.47-8.01-37.58-16.18-46.24-23.68l-2.66-2.3C631.06,1214.68,630.7,1214.37,630.34,1214.06z M711.07,1627.2
	c12.53,2.71,22.3,3.47,26.34,1.74c1.38-0.58,1.36-1.07,1.01-1.98C736.45,1621.86,725.24,1623.76,711.07,1627.2z M1343.54,1372.15
	c1.5,14.41,3.13,28.63,5.2,40.47c3.71,21.24,7.34,25.41,9.17,26.01c1.1,0.36,2.45-0.8,3.39-1.83
	C1367.47,1429.96,1361.5,1408.3,1343.54,1372.15z M964.96,1352.42c-5.89,4.7-8.93,12.73-13.44,27.28
	c-5.39,17.42-1.97,29.26,3.99,31.56c4.46,1.72,9.82-2.47,13.63-10.67c5.47-11.78,5.26-27.12-0.58-41.05
	C967.51,1357.01,966.3,1354.63,964.96,1352.42z M914.73,1340.87c-4.67,3.82-9.19,9.27-13.85,16.45
	c-14.59,22.54-17.11,36.47-7.69,42.61c4.66,3.04,9.11,3.03,13.22-0.04c10.94-8.15,16.22-34.59,10.66-53.38
	C916.46,1344.42,915.68,1342.55,914.73,1340.87z M933.12,1329.84c4.75,0,9.82,1.01,15.31,2.97c6.66,2.37,12.77,7.29,17.64,14.05
	c6.78-3.58,16.53-4.79,32.26-5.89c21.69-1.52,45.32-11.56,66.55-28.27c17.24-13.57,28.75-28.13,33.51-37.96
	c-15.77,3.5-78.29,15.89-160.3,12.89c-35.84-1.32-73.43-4.99-110.41-10.68c2.61,3.94,5.57,7.61,8.91,10.9
	c18.45,18.2,36.75,25.34,51.46,31.08c11.64,4.55,21.49,8.39,27.69,16.23C921.17,1331.58,926.88,1329.84,933.12,1329.84z
	 M521.62,1220.73c-27.05,31.61-39.13,58.65-40.68,71.62c-0.43,3.61,0.17,4.77,0.32,5c1.68-0.23,8.6-6.71,22.22-34.5
	C510.1,1249.36,516.46,1234.51,521.62,1220.73z M1330.05,1208.5c9.67,24.04,17.4,42.96,26.55,50.41
	c12.4,10.09,30.47,10.32,38.65,9.82C1385.95,1260.09,1358.2,1234.35,1330.05,1208.5z M634.67,1212.52l2.03,1.76
	c7.79,6.74,21.9,14.06,40.71,21.35c-6.58-11.65-13.69-21.37-21.31-29.12C648.61,1208.21,641.5,1210.19,634.67,1212.52z
	 M605.69,1185.6c1.11,2.69,10.41,10.84,25.48,23.89c6.87-2.44,14-4.52,21.5-6.3c-3.89-3.58-7.9-6.67-12.04-9.25
	c-14.53-9.08-26.82-9.36-32.86-8.72C606.63,1185.34,606.01,1185.49,605.69,1185.6z M1386.69,1047.23
	c6.5,49.1,13.88,58.69,28.97,78.29c7.76,10.07,18.65,14.72,23.22,14.08c0.26-0.03,1.13-0.19,1.29-0.6c0.22-0.55-0.08-2.33-2.6-5.47
	c-7.65-9.53-18.72-29.33-31.55-52.25C1399.94,1070.41,1393.39,1058.71,1386.69,1047.23z M516.86,1098.25
	c1.47,1.21,5.68,3.35,13.4,4.41c7.51,1.04,19.95,1.26,36.53-3.58c12.46-3.64,25.33-13.65,39.58-26.09c-1.68,0.53-3.35,1.07-5.03,1.6
	c-38.07,12.2-74,23.75-82.58,23.55C517.89,1098.11,517.28,1098.18,516.86,1098.25z M932.97,994.53c23.65,0,50.07,2.47,76,11.32
	c70.02,23.88,92.62,45.04,111.61,63.77c0.97-18.64-11.16-38.91-34.56-57.54c-21.81-17.36-52.11-31.84-79.06-37.8
	c-19.81-4.38-58.34-11.15-93.82-7.32c-25.29,2.72-44.67,10.23-57.95,22.39c-0.53,3.02-0.58,5.41-0.17,7.08
	c0.79,3.18,16.89,1.81,31.09,0.6C899.3,995.9,915.37,994.53,932.97,994.53z M1172.97,1041.34c1.03,1.74,2.31,2.76,3.89,3.12
	c7.15,1.6,20.13-9.19,33.35-20.94C1196.62,1028.32,1183.94,1034.47,1172.97,1041.34z M678.61,975.43
	c-35.09,8.34-63.34,20.95-67.19,27.4c-1.31,2.19-3.19,6.17-1.11,8.19c3.61,3.49,16.34,1.54,29.55-6.93
	c2.14-1.37,6.39-4.6,11.77-8.68C658.92,989.87,668.21,982.82,678.61,975.43z M939.81,879.51c-0.64,3.73,0.21,6.84,2.53,9.26
	c8.63,9.03,39.63,16.5,72.45,24.42c42.98,10.36,91.24,22,109.63,41.22c-4.92-30.21-56.55-60.56-92.11-68.41
	c-5.72-1.26-11.45-2.81-17.51-4.46C990.3,874.92,965.18,868.12,939.81,879.51z M1083.52,806.15c-2.87,4.17-2.98,5.66-2.77,6.19
	c0.54,1.35,5.34,2.28,10.42,3.25c8.33,1.6,20.92,4.03,36.41,11.12c18.61,8.53,37.8,18.93,52.41,37.13c1.5-1.38,2.21-3.02,2.15-4.95
	c-0.26-8.88-15.41-23.03-38.6-36.07C1126.37,813.17,1106.23,807.58,1083.52,806.15z M1192.76,773.75
	c10.9,3.98,24.45,12.83,36.45,20.67c11.95,7.8,28.3,18.48,31.29,15.6c0.44-0.43,0.05-1.57-0.13-2.05
	c-3.96-10.06-34.71-32.77-67.95-37.78C1192.41,771.37,1192.52,772.56,1192.76,773.75z M1268.04,734.39
	c6.84,0.81,44.39,5.9,54.28,21.5c1.68,2.65,2.7,3.45,3.11,3.68c0.55-0.89,1.19-4.18,0.64-9.56c-1.26-12.2-18.88-24.49-50.12-24.49
	c-0.16,0-0.31,0-0.46,0c-2.45,0.01-5.09,0.33-7.84,0.85C1266.66,730.56,1267.5,733.24,1268.04,734.39z M1057.86,649.68
	c0.86,4.62,2.41,9.23,4.77,13.74c10.73,20.5,31.99,33.87,55.48,34.88c23.21,1,43.88-9.93,56.72-30.01
	c17.12-26.79,7.55-54.58-2.59-84.01c-7.7-22.32-15.65-45.4-10.69-67.85c6.09-27.56,26.43-39.98,42.43-45.55
	c10.81-3.76,22.14-5.1,29.8-4.81c-7.01-4.53-20.25-10-39.48-5.12c-28.08,7.11-44.72,22.84-53.94,51
	c-4.33,13.21-4.16,26.31-3.99,38.97c0.31,24.06,0.61,46.78-31,63.22c-7.91,4.12-18.87,5.67-30.67,5.3
	c-6.34,9.92-11.42,19.76-15.71,28.07C1058.61,648.24,1058.23,648.96,1057.86,649.68z M953.17,623.71c0.17,3.58,0.88,7.04,2.22,10.29
	c5.55,13.46,18.05,24.6,35.2,31.37c17.91,7.06,37.88,7.79,50.88,1.86c3.3-1.51,7.45-9.01,12.22-18.19
	c-1.72-10.83-0.03-21.65,3.57-31.43c-14.6-2.53-28.92-7.42-39.19-13.58l-3.22-1.93c-10.09-6.05-20.34-12.19-29.46-18.72
	c-7.21,12.82-19.62,28.7-29.3,37.73C955.09,622.04,954.11,622.91,953.17,623.71z M1061.29,618.24c-2.9,7.61-4.58,15.89-4.23,24.28
	c3.7-7.13,7.97-15.17,13.06-23.33C1067.2,618.98,1064.24,618.66,1061.29,618.24z M1147.59,307.2
	c-134.8,0-226.58,110.21-246.58,178.2c-12.84,43.67-6.33,76.42,1.39,96.21c9.88,25.34,25.52,39.99,35.91,44.85
	c0.82,0.38,3.75,0.97,10.76-4.57c-0.03-18.44,12.47-36.14,17.08-42.03c1.9-2.43,3.99-4.84,6.12-7.05c-4.92-4.55-9.07-9.32-12.1-14.4
	c-16.01-26.8-18.25-60.26-6.31-94.22c16.13-45.86,54.46-83.92,102.55-101.81c42.53-15.82,84.28-21.75,124.09-17.63
	c35.81,3.71,69.98,15.48,101.55,35.01c31.74,19.63,66.35,52.79,92.72,88.53c-3.71-17.89-9.96-35.21-18.67-51.14
	c-26.92-49.18-76.16-84.21-142.4-101.32C1190.7,309.88,1168.61,307.2,1147.59,307.2z M975.25,575.47c-0.08,0.08-0.16,0.16-0.24,0.25
	c-10.78,11.18-20.32,27.44-21.71,42.51c0.02-0.02,0.04-0.04,0.06-0.06c11.32-10.56,22.43-25.96,28.73-37.22
	C979.71,579.16,977.42,577.33,975.25,575.47z M1062.89,614.37c3.27,0.44,6.52,0.76,9.71,0.93c10.33-15.76,23.87-31.53,42.5-41.78
	c-14.4,0.04-30.92,9.58-42.99,25.35C1068.65,603.4,1065.45,608.66,1062.89,614.37z M978.13,572.68c1.87,1.59,3.83,3.16,5.87,4.7
	c2.55-5.03,3.8-8.83,3.23-10.32c0-0.01,0-0.02,0-0.02C986.46,566.86,983.3,567.98,978.13,572.68z"/>
</svg>
