<?xml version="1.0" encoding="utf-8"?>
<!-- Generator: Adobe Illustrator 26.3.1, SVG Export Plug-In . SVG Version: 6.00 Build 0)  -->
<svg version="1.1" id="Calque_1" xmlns="http://www.w3.org/2000/svg" xmlns:xlink="http://www.w3.org/1999/xlink" x="0px" y="0px"
	 viewBox="0 0 2000 2000" style="enable-background:new 0 0 2000 2000;" xml:space="preserve">
<style type="text/css">
	.st0{clip-path:url(#SVGID_00000075128240530890573780000012950301028635971478_);fill:#FFFFFF;}
	.st1{fill:#F5E9D9;}
	.st2{fill:#E2B590;}
</style>
<g>
	<defs>
		<rect id="SVGID_1_" x="0.06" width="1999.94" height="2000"/>
	</defs>
	<clipPath id="SVGID_00000111170556534774726810000018185192419745478573_">
		<use xlink:href="#SVGID_1_"  style="overflow:visible;"/>
	</clipPath>
	
		<rect x="0.06" style="clip-path:url(#SVGID_00000111170556534774726810000018185192419745478573_);fill:#FFFFFF;" width="1999.94" height="2000"/>
</g>
<path class="st1" d="M1085.87,358.06c-66.37-0.01-203.1,29.72-172.19,153.51c30.91,123.78,153.95,309.81,179.21,390.81
	c24.8,79.51,39.36,267.21-142.26,368.05c-146.08,81.11-377.96,80.56-408.24,142.16c-30.28,61.6,66.91,128.96,180.65,192
	c189.32,104.93,387.97,83.4,627.83-43.53c239.85-126.92,299.11-402.82,282-619C1615.75,725.88,1572.67,358.12,1085.87,358.06"/>
<path class="st2" d="M543.88,677.28c-148.34,132.73-121.02,279.92-110.5,329.08c10.52,49.16,82.15,282.26,303.29,259.13
	c221.14-23.12,331.21-301.11,302.89-368.65c-28.32-67.54-63.58-191.97-174.54-251.48C754.08,585.85,590.1,635.93,543.88,677.28"/>
<path d="M963.69,1659.57c-18.86,0-37.15-0.94-55.09-3c-63.71-7.33-122.81-28.11-197.6-69.48c-7.25-4.01-14.47-8.27-21.62-12.72
	c-40.67-0.41-75.15-9.82-95.05-27.12c-17.54-15.25-33.08-47.3-37.79-77.93c-0.13-0.85,0.29-1.68,1.04-2.08
	c0.76-0.4,1.68-0.27,2.3,0.31c26.81,25.13,76.77,69.21,130.7,102.86c19.7,0.14,40.91-1.92,62.62-6.21
	c78.31-15.48,151.52-56.78,206.16-116.31c39.35-42.86,67.97-93.09,90.3-144.3c-50.81,8.09-108.96-1.7-160.37-10.36
	c-21.87-3.69-42.53-7.17-61.01-9.01c-33.82-3.39-69.85,4.3-98.81,10.48c-25.42,5.42-45.5,9.71-56.2,5.12
	c-7.79-3.34-21.89-15.77-26.24-27.64c-1.8-4.93-1.8-9.27,0.02-12.91c8.08-16.15,75.61-21.44,115.15-23.16
	c17.22-0.75,30.79-2.9,41.57-5.75c-6.07-1.24-11.89-3.34-17.23-6.25c-19.64-10.71-21.45-21.94-23.96-37.48
	c-1.1-6.8-2.34-14.52-5.34-23.52c-10.46-31.38-24.91-41.33-35.45-48.59c-5.28-3.63-9.45-6.5-11.71-11.03
	c-4.46-8.91,13.39-19.18,40.42-34.73c18.64-10.72,39.76-22.87,57.83-37.06c27.4-21.53,41.49-35.85,56.4-51.01
	c9.16-9.31,18.62-18.93,31.72-30.84c36.84-33.49,77.51-25.96,101.81-21.47c6.94,1.29,12.43,2.3,15.99,2.05
	c32.83-2.35,53.36-28.44,61.07-40.33c-13.19,6.38-45.5,19.98-79.88,19.11c-46.37-1.17-67.7-41.64-67.91-42.05
	c-0.32-0.62-0.29-1.36,0.07-1.96c0.36-0.59,1.01-0.96,1.71-0.96c5.79,0,10.36-0.92,14.78-1.81c9.61-1.93,18.7-3.75,36.54,5.17
	c26.93,13.47,47.32,14.51,64.17,3.28c13.71-9.14,24.33-48.15,24.61-66.57c-11.86,1.2-22.15,4.17-30.12,6.47l-1.15,0.33
	c-0.5,2.31-0.83,4.85-1.17,7.53c-1.51,11.73-3.4,26.34-21.58,36.73c-20.92,11.95-46.74,4.31-56.59-5.54
	c-4.69-4.69-3.81-8.15-2.87-9.79c26.03-45.56,39.66-51.43,112.12-48.28c1.51,0.07,3.54,0.93,4.58,4.65c0.28,1.03,0.48,2.27,0.59,3.7
	c23.31-1.37,52.39,4.36,81.24,33.21c43.59,43.59,97.74,87.73,168.67,84.5c62.89-2.86,118.2-37.26,139.02-50.21
	c1.98-1.23,3.65-2.27,5-3.08c6.05-3.63,16.63-11.71,26.97-20.52c1.75-5.31,4.73-10.71,7.53-15.79c3.26-5.9,6.61-11.98,6.41-15.68
	c-10.1,5.85-31.21,13.24-60.18,13.24c-25.83,0-57.91-5.87-94.04-23.94c-74.15-37.08-164.88-22.03-165.79-21.88
	c-0.66,0.11-1.33-0.11-1.79-0.6c-0.46-0.49-0.65-1.17-0.5-1.82c5.71-24.75,13.5-38.76,23.8-42.82c6.12-2.41,12.93-1.14,20.24,3.79
	c14.41,9.73,55.17,0.69,91.14-7.28c17.41-3.86,34.27-7.6,47.97-9.26c-26.99-3.41-58.38-2.49-92.4,7.51
	c-0.99,0.29-2.04-0.22-2.42-1.18c-0.06-0.15-6.27-15.49-15.31-24.54c-7.82-7.81-19.86-11.64-38.08-17.43
	c-16.68-5.3-39.51-12.56-68.51-26.29c-54.57-25.85-65.3-59.19-67.02-66.33c-1.76-0.3-5.54-0.52-9.84,1.75
	c-6.46,3.4-11.48,10.93-14.91,22.38c-11.06,36.88,28.66,61.32,46.25,70.12c11.24,5.62,26.37,7.89,41,10.08
	c18.7,2.8,36.36,5.44,43.02,15.19c2.73,4,3.44,8.97,2.12,14.79c-8.28,36.44-25.37,54.62-38.24,63.44
	c-14.08,9.65-26.1,10.55-26.6,10.59c-0.6,0.04-1.19-0.19-1.6-0.64s-0.6-1.05-0.52-1.64c2.3-16.11-6.42-30.36-25.93-42.35
	c-47.57-29.23-141.62-33.85-163.17-18.76c-21.98,15.38-21.65,18.68-18.51,50.16c1.16,11.59,2.74,27.47,3.6,48.97
	c1.81,45.26-25.3,66.5-56.69,91.1c-13.85,10.85-28.17,22.08-41.54,36.4c-6.92,7.41-16.53,18.61-27.67,31.57
	c-34.27,39.89-76.92,89.55-96.14,95.04c-23.57,6.73-58.36,9.41-82.73,6.36c-16.05-2-22.09-5.24-29.09-9
	c-4.14-2.22-8.42-4.51-15.41-6.84c-4.46-1.49-7.95-1.36-10.67,0.39c-0.68,0.43-1.29,0.96-1.86,1.56
	c5.48,7.92,36.05,19.45,60.69,22.53c12.71,1.58,23.95-1.85,32.98-4.6c9.02-2.76,16.13-4.93,21.45-1.38
	c9.97,6.64,21.84,42.07,19.72,49.48c-3.87,13.55-26.57,17.75-46.99,14.89c-2.6-0.37-5.24-0.86-7.79-1.5
	c-5.03,5.24-9.61,12.59-8.19,26.83c0.89,8.94,5.77,23.28,10.07,35.93c6.43,18.9,8.47,25.75,6.19,28.35
	c-0.71,0.8-1.76,1.13-2.88,0.91c-15.09-3.02-32.96-14.41-61.3-76.77c-6.23-13.71-13.42-22.86-19.76-30.92
	c-9.52-12.11-17.05-21.68-15.07-39.46l0.14-1.29c0.83-7.54,1.89-17.26,6.12-23.58c-1.97-9.98,31.62-30.86,106.28-76.21
	c5.73-3.48,11.6-7.05,17.61-10.7c53.88-32.8,120.96-155.06,157-220.74c12.31-22.44,21.21-38.66,25.28-43.54
	c15.17-18.21,52.38-44.11,86.05-54.21c17.35-5.21,41.25-30.78,62.34-53.34c14.92-15.96,28.04-30,37.75-36.01
	c-23.85-7.4-62.8,47.71-63.21,48.3c-0.42,0.61-1.15,0.93-1.88,0.84c-23.79-2.92-51.59-22.56-76.26-53.89
	c-22.87-29.04-38.99-63.4-42.08-89.67c-0.1-0.84,0.34-1.65,1.1-2.02c0.76-0.38,1.67-0.24,2.28,0.35
	c50.7,48.6,64.92,58.34,114.16,60.8c15.84,0.79,34.89-4.34,53.31-9.31c26.09-7.03,50.73-13.67,65.85-3.93
	c6.99,4.5,11.27,11.99,13.07,22.89c0.17,1.03-0.48,2.01-1.49,2.27c-3.4,0.85-7.13,1.25-11.08,1.67c-9.06,0.97-18.38,1.96-24.99,8.48
	c5.68-1.45,10.84-2.19,15.87-2.9c9.07-1.29,17.64-2.51,28.28-7.83c13.94-6.97,23.99-17.62,32.07-26.17
	c7.25-7.69,12.49-13.24,17.68-12.68c2.49,0.27,4.59,1.89,6.43,4.94c3.86,6.44,6.13,14.65,8.14,21.9c1.54,5.56,3.64,13.17,5.52,13.66
	c0.32,0.08,1.04-0.21,2.12-1.29c2.15-2.16,2.73-6.94,1.58-13.13c-3.06-16.51-17.24-38.47-35.65-46.66
	c-19.11-8.49-44.56-4.29-71.51,0.16c-11.82,1.95-24.04,3.97-35.85,4.88c-13.8,1.06-26.8,1.57-39.03,1.57
	c-109.1,0.01-159.07-40.28-207.56-88.77c-34.07-34.07-51.4-69-59.94-92.3c-0.29-0.8-0.05-1.69,0.6-2.23
	c0.65-0.54,1.58-0.61,2.3-0.17c113.04,67.78,194.99,75.98,249.22,81.4c46.89,4.69,123.38-9.49,199.59-37.02
	c43.82-15.82,89.22-22.37,127.83-18.43c39.57,4.04,68,18.83,80.04,41.65c29.56,56-14.85,114.72-54.03,166.54
	c-23.23,30.72-45.2,59.77-47.12,83.14c1.18,0.54,2.57,1.16,4.12,1.84c18.24,8.03,60.76,26.76,86.52,74.47
	c12.55,2.94,23.77,6.63,33.43,10.42c43.38,17.04,79.63,45.77,99.47,78.83c1,1.67,3.34,5.58-21.47,28.02
	c-2.45,2.22-4.98,4.44-7.54,6.63c-1.36,4.62-1.53,8.99,0.65,12.62c40.19,66.98,65.72,146.63,73.84,230.32
	c8.79,90.54-3.87,181.05-36.61,261.72c-17.05,42.02-40.92,81.03-70.94,115.95c-27.83,32.36-61.11,61.44-98.93,86.42
	c-68.68,45.36-150.8,76.53-237.48,90.12C1066.8,1653.08,1013.28,1659.57,963.69,1659.57 M697,1574.35
	c5.29,3.2,10.61,6.29,15.95,9.24c144.61,79.99,234.35,84.19,414.61,55.91c191.64-30.06,342.76-138.48,404.26-290.04
	c62.78-154.7,48.27-346.44-36.95-488.48c-1.97-3.28-2.52-6.83-2.15-10.52c-9.14,7.58-17.97,14.21-23.47,17.51
	c-1.34,0.8-2.99,1.83-4.94,3.04c-21.07,13.1-77.02,47.9-140.96,50.81c-2.53,0.12-5.05,0.17-7.53,0.17
	c-68.8,0.01-121.48-43.17-164.15-85.84c-28.05-28.05-55.74-33.6-78.3-32.16c-0.29,19.71-11.4,60.27-26.32,70.22
	c-18.17,12.11-39.83,11.15-68.18-3.03c-16.61-8.3-24.65-6.69-33.96-4.82c-3.72,0.75-7.54,1.51-12.12,1.78
	c5.66,8.94,25.89,36.14,62.78,37.07c43.46,1.11,83.64-21.57,84.04-21.8c0.77-0.44,1.73-0.32,2.37,0.28
	c0.64,0.61,0.81,1.56,0.41,2.35c-0.22,0.45-23.08,45.18-67.82,48.37c-4.09,0.29-9.79-0.76-17.01-2.1
	c-23.57-4.36-63.02-11.66-98.39,20.49c-13.02,11.83-22.45,21.42-31.56,30.68c-15.01,15.25-29.18,29.66-56.78,51.34
	c-18.3,14.38-39.55,26.6-58.3,37.39c-20.46,11.77-41.61,23.93-38.84,29.47c1.8,3.61,5.6,6.22,10.4,9.53
	c10.39,7.15,26.09,17.96,36.98,50.61c3.1,9.31,4.38,17.2,5.5,24.15c2.41,14.96,4.01,24.83,21.92,34.6
	c8.59,4.69,17.21,6.5,24.48,6.97c17.24-6.04,25.52-13.79,30.58-18.52c2.86-2.68,4.76-4.45,7.01-4.45c0.45,0,0.89,0.16,1.25,0.44
	c4.49,3.59,5.3,8.3,2.22,12.91c-4.03,6.06-14.49,11.16-26.65,13c-4.62,0.7-9.27,0.92-13.85,0.67c-12.23,4.19-28.68,7.52-51.12,8.5
	c-63.85,2.77-106.67,10.8-111.75,20.95c-1.31,2.62-1.26,5.89,0.15,9.74c3.93,10.72,17.08,22.35,24.06,25.34
	c9.53,4.09,30.04-0.29,53.79-5.35c29.23-6.24,65.6-14,100.04-10.55c18.61,1.86,39.34,5.35,61.28,9.04
	c51.97,8.76,110.86,18.68,161.6,9.94c22.09-51.51,37.96-103.84,52.12-150.53c13.13-43.29,24.47-80.69,38.13-109.96
	c22.23-47.65,45.99-73.75,70.6-77.58c17.98-2.8,36.68,6.17,55.58,26.64c18.03,19.54,26.66,46.33,24.95,77.5
	c-1.53,28.03-11.15,58.7-27.82,88.7c-14,25.21-48.37,59.42-89.69,89.28c-43.74,31.61-87.71,53.21-121.04,59.5
	c-22.63,52.39-51.74,103.89-92.07,147.83c-55.21,60.14-129.19,101.88-208.33,117.52C734.38,1572,715.14,1574.04,697,1574.35z
	 M561.53,1474.54c5.52,27.93,19.65,55.96,35.43,69.69c18.17,15.79,49.09,24.76,85.9,26.03
	C633.6,1538.72,588.28,1499.33,561.53,1474.54z M1218.84,964.65c-1.95,0-3.89,0.15-5.81,0.45c-23.22,3.61-45.96,28.95-67.6,75.32
	c-13.54,29.02-24.84,66.28-37.93,109.43c-13.96,46.06-29.59,97.59-51.2,148.47c32.43-6.81,74.66-27.84,116.79-58.29
	c40.87-29.54,74.8-63.25,88.53-87.98c27.71-49.87,43.16-118.5,3.43-161.54C1249.19,973.33,1233.68,964.65,1218.84,964.65z
	 M557.73,1087.79c-2.84,5.53-3.73,13.64-4.43,20.04l-0.14,1.29c-1.79,16.15,4.93,24.71,14.24,36.55
	c6.48,8.24,13.82,17.58,20.26,31.74c26.98,59.35,43.64,71.17,57.5,74.29c-0.03-3.54-3.83-14.71-6.93-23.84
	c-4.37-12.86-9.32-27.43-10.26-36.82c-1.45-14.56,2.9-22.79,7.87-28.47c-7.96-2.64-14.18-6.83-14.18-12.7
	c0-7.65,4.85-13.19,12.37-14.12c6.66-0.82,14.81,2.58,16.79,10.48c1.55,6.22-2.52,9.96-6.84,13.91c-0.13,0.12-0.26,0.24-0.39,0.36
	c1.56,0.33,3.2,0.61,4.9,0.85c18.25,2.55,39.38-0.79,42.59-12.03c1.48-5.19-9.15-39.1-18.1-45.06c-3.74-2.49-10.06-0.56-18.07,1.88
	c-9.4,2.87-21.09,6.44-34.64,4.75C599.19,1108.25,566.83,1097.96,557.73,1087.79z M850.02,1208.79c-0.89,0.5-2.39,1.9-3.75,3.17
	c-4.22,3.95-10.6,9.92-22.13,15.37c0.95-0.11,1.83-0.22,2.63-0.34c10.92-1.66,20.54-6.18,23.92-11.26
	C852.4,1213.15,852.18,1210.87,850.02,1208.79z M636.03,1139.63c-0.52,0-1.02,0.03-1.52,0.09c-2.08,0.26-8.85,1.74-8.85,10.15
	c0,3.61,5.15,7.14,13.28,9.49c0.79-0.77,1.58-1.48,2.33-2.17c4.36-4,6.6-6.25,5.66-9.99
	C645.64,1142.1,640.63,1139.63,636.03,1139.63z M567.04,1077.42c2.1,0,4.38,0.41,6.82,1.22c7.31,2.44,11.95,4.93,16.04,7.12
	c6.65,3.56,12.39,6.64,27.7,8.55c23.9,2.99,58.02,0.37,81.14-6.24c18.07-5.16,62.08-56.39,94.21-93.8
	c11.17-13,20.81-24.23,27.78-31.7c13.58-14.55,28.03-25.87,41.99-36.82c30.53-23.92,56.89-44.58,55.16-87.79
	c-0.86-21.38-2.43-37.19-3.59-48.73c-3.14-31.44-3.7-37.1,20.19-53.83c11.56-8.09,40.2-11.13,74.73-7.93
	c37.12,3.44,70.96,13.12,92.83,26.56c19.66,12.08,29.32,27.14,28.08,43.69c4.06-0.75,12.78-3.03,22.41-9.69
	c12.21-8.44,28.44-25.85,36.4-60.89c1.08-4.75,0.58-8.56-1.53-11.64c-5.67-8.3-22.49-10.82-40.31-13.49
	c-14.93-2.24-30.38-4.55-42.19-10.45c-39.1-19.55-56.7-46.83-48.29-74.84c3.77-12.58,9.49-20.94,16.99-24.83
	c7.35-3.82,13.65-1.79,13.92-1.7c0.7,0.23,1.22,0.84,1.34,1.57c0.06,0.36,6.98,37.19,65.06,64.7c28.76,13.62,50.52,20.54,68.01,26.1
	c18.78,5.97,31.19,9.91,39.69,18.41c7.91,7.91,13.57,19.83,15.49,24.21c42.31-12.1,80.55-10.43,111.41-3.94
	c-25.24-44.26-65.45-61.96-82.91-69.65c-2.16-0.95-4.02-1.77-5.47-2.47c-0.72-0.35-1.17-1.1-1.13-1.9
	c1.24-24.83,23.96-54.87,48.02-86.68c38.46-50.86,82.05-108.51,53.69-162.26c-11.4-21.6-38.72-35.64-76.92-39.54
	c-38.01-3.88-82.79,2.59-126.06,18.21c-76.74,27.71-153.89,41.98-201.35,37.23c-53.79-5.38-134.67-13.47-245.93-79.01
	c9.01,22.73,25.93,54.47,56.97,85.51c53.22,53.21,108.26,96.42,243.45,86.04c11.64-0.89,23.77-2.9,35.51-4.84
	c27.55-4.55,53.58-8.85,73.79,0.13c20.35,9.05,34.75,32.3,37.96,49.58c1.43,7.72,0.5,13.49-2.69,16.69
	c-2.05,2.05-4.06,2.83-5.97,2.32c-4.1-1.08-5.89-7.53-8.36-16.47c-1.93-7-4.13-14.94-7.71-20.91c-1.7-2.84-3.01-2.98-3.44-3.03
	c-3.19-0.36-8.36,5.12-14.33,11.45c-7.86,8.32-18.61,19.71-33.2,27.01c-11.21,5.61-20.09,6.87-29.5,8.21
	c-6.57,0.93-13.37,1.9-21.18,4.51c-0.79,0.27-1.67,0.01-2.19-0.65c-0.52-0.65-0.59-1.56-0.16-2.28
	c7.52-12.53,20.35-13.89,31.67-15.1c3.08-0.33,6.03-0.64,8.7-1.17c-1.75-8.71-5.35-14.71-10.95-18.31
	c-13.63-8.78-37.43-2.36-62.64,4.43c-18.72,5.05-38.09,10.26-54.55,9.44c-48.85-2.44-65.01-12.6-112.5-57.86
	c4.49,24.73,19.59,55.53,40.39,81.94c23.61,29.99,49.93,48.95,72.43,52.24c6.04-8.4,46.31-62.45,71.32-46.82
	c0.63,0.39,0.99,1.11,0.94,1.85c-0.06,0.74-0.53,1.39-1.21,1.69c-9.17,3.93-24.19,20-40.1,37.02
	c-21.43,22.93-45.72,48.93-64.11,54.44c-31.91,9.57-69.26,35.1-84.12,52.94c-3.82,4.59-12.64,20.66-24.84,42.9
	c-36.22,66.01-103.64,188.89-158.43,222.23c-6.01,3.66-11.89,7.23-17.62,10.71c-31.49,19.13-58.68,35.65-77.4,48.32
	c-14.24,9.64-21.13,15.47-24.37,18.98C563.56,1077.72,565.23,1077.42,567.04,1077.42z M1040.2,795.04
	c-47.23,0-59.24,9.31-80.77,46.99c-0.63,1.1,0.2,2.96,2.22,4.98c7.87,7.88,31.91,16.25,51.77,4.9c16.46-9.41,18.13-22.35,19.6-33.77
	c0.42-3.23,0.81-6.28,1.51-9.1c0.18-0.69,0.71-1.24,1.39-1.44l2.28-0.66c7.81-2.26,18.51-5.35,31.1-6.53
	c-0.1-1.12-0.27-2.1-0.5-2.92c-0.36-1.3-0.78-1.72-0.9-1.72C1057.48,795.31,1048.31,795.04,1040.2,795.04z M1509.18,807.53
	c0.13,0,0.26,0.01,0.39,0.04c0.52,0.1,0.98,0.41,1.27,0.85c3.47,5.2-0.76,12.87-5.66,21.75c-1.41,2.57-2.88,5.23-4.19,7.89
	c0.11-0.1,0.21-0.19,0.32-0.28c17.28-15.49,21.82-22.53,21.83-24.19c-19.4-32.26-54.9-60.34-97.42-77.04
	c-9.42-3.7-20.36-7.3-32.59-10.18c-0.38,0.11-0.8,0.11-1.19-0.02c-12.09-4.03-40.27,2.21-70.11,8.83
	c-38.54,8.54-78.4,17.38-94.24,6.69c-6.14-4.15-11.71-5.29-16.54-3.39c-8.48,3.34-15.43,15.83-20.68,37.13
	c16.41-2.27,97.57-11.18,165.28,22.68c78.18,39.09,136.53,20.17,152.42,9.58C1508.4,807.64,1508.78,807.53,1509.18,807.53z"/>
</svg>
