<?xml version="1.0" encoding="utf-8"?>
<!-- Generator: Adobe Illustrator 26.3.1, SVG Export Plug-In . SVG Version: 6.00 Build 0)  -->
<svg version="1.1" id="Calque_1" xmlns="http://www.w3.org/2000/svg" xmlns:xlink="http://www.w3.org/1999/xlink" x="0px" y="0px"
	 viewBox="0 0 2000 2000" style="enable-background:new 0 0 2000 2000;" xml:space="preserve">
<style type="text/css">
	.st0{clip-path:url(#SVGID_00000060004959596319577880000000350603079939072161_);fill:#FFFFFF;}
	.st1{fill:#F5E9D9;}
	.st2{fill:#E2B590;}
</style>
<g>
	<defs>
		<rect id="SVGID_1_" x="0.06" width="1999.94" height="2000"/>
	</defs>
	<clipPath id="SVGID_00000057864349316324674140000005650643176415121303_">
		<use xlink:href="#SVGID_1_"  style="overflow:visible;"/>
	</clipPath>

		<rect x="0.06" style="clip-path:url(#SVGID_00000057864349316324674140000005650643176415121303_);fill:transparent;" width="1999.94" height="2000"/>
</g>
<path class="st1" d="M576.57,568.42c77-55,194.75,55.77,227.5,158.9c32.76,103.13,26.69,292.18,44.49,361.91
	c17.47,68.44,90.47,210.44,266.47,202.44c141.56-6.44,308.73-110.01,358-79c49.27,31,56.14,104.29-5.47,195.75
	c-97,144-293.91,222.68-523.58,237.35c-229.42,14.65-412.58-171.65-496.42-335.35C363.74,1146.72,320.67,751.21,576.57,568.42"/>
<path class="st2" d="M1002.39,441.86C809.93,614.08,845.38,805.04,859.02,868.83c13.65,63.79,106.59,366.23,393.52,336.23
	c286.92-30.01,383.44-384.06,362.03-476.64c-34-147-89.04-228.79-233-306C1237.62,345.21,1062.35,388.21,1002.39,441.86"/>
<path d="M909.97,1633.42c-0.67,0.02-1.29-0.32-1.67-0.86c-0.37-0.54-0.46-1.22-0.23-1.84c6.41-17.39,10-33.85,10.61-50.22
	c-3.86,7.58-8.55,14.3-14.09,20.3c-0.55,0.6-1.41,0.8-2.17,0.52c-0.76-0.29-1.27-1-1.3-1.82c-1.62-58.05-21.67-77.38-43.75-85.9
	c-0.84,4.76-1.71,9.55-2.65,14.29c0.75,0.87,1.45,1.78,2.1,2.74c6.4,9.51,7.15,22.91,2.33,42.17
	c-5.41,21.66-25.42,33.74-42.34,37.83c-16.78,4.05-32.45,1.16-39.92-7.38c-0.53-0.6-0.64-1.46-0.3-2.18
	c0.34-0.72,1.06-1.15,1.88-1.14c50.53,1.72,64.06-32.36,71.93-70.81c-10.55-10.51-31.28-13.42-58.91-17.31
	c-43.96-6.18-104.17-14.64-165.39-60.82c-141.77-106.95-171.53-271.58-171.53-390.86c0-66.36,21.17-134.53,61.21-197.14
	c33.42-52.25,78.3-98.45,126.36-130.06c37.35-24.57,66.79-39.35,90.45-51.22c33.14-16.63,57.28-28.75,81.74-56.4
	c-47.48,39.72-118.37,64.21-119.2,64.49c-0.58,0.2-1.23,0.12-1.74-0.22c-0.52-0.34-0.85-0.89-0.9-1.51
	c-0.09-1.09-8.7-110.27,27.41-184.75c19.57-40.37,49.26-73.55,88.24-98.64c43.69-28.12,97.68-44.93,160.46-49.95
	c62.03-4.96,142.18,4.45,204.22,23.99c36.13,11.38,65.36,25.64,86.88,42.37c24.55,19.1,38.38,41.02,41.13,65.16
	c0.12,1.05-0.6,2.01-1.63,2.19c-1.04,0.18-2.04-0.46-2.3-1.48c-0.03-0.12-3.72-13.45-26.38-30.47c-0.5,3.95-1.59,8.13-2.75,11.81
	c-6.31,19.95-23.65,52.61-53.39,84.44c-23.02,24.64-61.34,56.79-113.09,69.98c-28.02,7.14-54.8,11.39-80.69,15.49
	c-81.24,12.87-151.41,23.99-214.07,117.99c-44.15,66.23-98.4,101.01-146.26,131.7c-51.31,32.9-99.78,63.98-126.73,127.48
	c-40.09,94.44-38.88,184.02,3.59,266.26c62.93,121.85,208.01,202.25,290.93,220.43c2.04,0.45,4.15,0.88,6.3,1.31
	c6.29,1.28,13.09,2.67,19.9,4.89c0.52-2.93,1.03-5.85,1.56-8.76c3.25-17.89,6.45-35.05,9.74-51.49c-3.28-4.26-6.89-8.88-10.77-13.86
	c-35.38-45.37-94.6-121.29-126.17-208.29c-17.47-48.15-24.52-94.48-20.95-137.7c4.22-51.12,23.36-99.26,56.91-143.08
	c34.04-44.46,75.36-73.49,116.5-96.46c43.59-64.17,109.2-121.16,170.75-165.73c0.56-0.41,1.3-0.49,1.94-0.22
	c0.64,0.27,1.1,0.85,1.21,1.54c11.64,76.35-44.9,104.17-116.48,139.38c-17.73,8.72-36.18,17.8-54.68,28.1
	c-39.2,58.03-60.05,121.85-42.86,187.44c18.2,69.44,79.8,143.52,193.5,123.74c48.83-8.49,116.71-57.36,133.51-69.9
	c-9.61-1.41-32.03-5.47-55.72-15.11c-41.63-16.94-68.33-43.38-77.2-76.44c-13.32-49.64,9.26-73.71,40.51-107.01
	c13.62-14.51,29.05-30.96,43.98-52.18c21.74-30.89,14.82-62.85,8.13-93.76c-7.73-35.75-15.04-69.52,26.23-94.03
	c34.41-20.44,68.69-49.38,96.53-81.49c21.88-25.25,34.86-46.68,39.35-59.17c-0.49-7.65-1.87-13.86-4.16-19.73
	c-6.24-15.95-4-17.88-3.04-18.71c0.93-0.81,2.23-0.88,3.47-0.17c4.13,2.36,12.08,18.03,9.19,33.93c-0.29,1.57-0.76,3.33-1.42,5.25
	c0.53,9.4-0.19,20.84-2.08,36.12c-3.33,26.95,7.89,65.24,9.81,68.06c0.42,0.45,0.64,1.04,0.64,1.67c0,0.53-0.14,1.11-0.6,1.88
	c0.89,1.77,0.76,4.12,0.47,7.07c-1.23,12.55-19.3,31.27-23.16,35.15c-0.59,1.46,0.45,8.07,2.32,14.96
	c2.78,0.24,9.54,0.69,16.96,0.22c2.47-1.5,4.8-3.03,6.87-4.39c5.73-3.78,8.35-5.5,10.37-4.41c0.41,0.22,1.38,0.91,1.38,2.49
	c0,0.86-0.4,8.41-14.24,9.95c-1.05,0.12-2.11,0.21-3.15,0.29c-4.64,2.75-9.77,5.32-14.76,6.47c-2.87,0.66-5.82,1.08-8.73,1.28
	c-0.05,0.24-0.11,0.48-0.16,0.7c-0.24,2.25,6.17,13.97,11.33,23.39c13.12,23.99,22.88,42.94,19.34,50.63
	c-2.3,4.97-9.23,7.33-16.56,9.82c-6.54,2.22-13.3,4.52-15.22,8.38c-2.66,5.31,1.32,14.12,3.7,19.39c1.76,3.89,2.56,5.67,1.81,7.17
	c-0.24,0.49-0.68,0.86-1.2,1.02c-0.52,0.16-1.09,0.1-1.56-0.17c-0.06-0.03-0.12-0.07-0.18-0.1c1.42,1.16,2.17,2.2,2.17,3.55
	c0,2.87-2.43,5.56-5.81,9.28c-1.73,1.91-3.67,4.05-5.61,6.55c0.41,0.23,0.73,0.6,0.9,1.06c0,0.01,1.2,3.28,3.59,9.63
	c1.95,5.17,2.06,9.89,0.32,13.64c-1.51,3.25-4.39,5.7-8.33,7.1c-1.95,0.69-3.57,1.28-4.91,1.77c-1.91,0.7-3.29,1.2-4.35,1.52
	c-0.26,1.31-0.51,2.66-0.75,4.06c0.01,5.95,0.15,10.63,0.27,14.76c0.21,6.74,0.36,11.61-0.28,17.06
	c-0.76,6.57-6.63,24.16-24.38,26.7c-16.79,2.4-61.25-12.77-85.45-32.17c-0.34-0.27-0.68-0.54-1.01-0.81
	c-6.85-3.94-13.71-7.83-15.72-7.83c-0.02,0-0.05,0-0.07,0l-0.4,0.02c-8.36,0.4-13.88,0.67-20.39,54.92
	c-6.18,51.51-5.15,75.32,3.44,79.62c3.23,1.61,19.44-2.2,35.12-5.89c24.31-5.72,54.57-12.83,73.14-10.18
	c28.96,5.11,51.74,24.59,67.93,57.98c23.19-15.57,47.27-34.32,72.33-57.4c110.47-101.76,105.45-161.55,103.3-187.08
	c-0.63-7.59-1.06-12.6,1.8-15.49c1.74-1.76,4.44-2.44,8.52-2.15c8.97,0.64,40.29,5.99,66.46,47.89
	c27.13,43.42,39.66,110.49,37.25,199.33c-2.4,88.69-19.04,160.66-52.35,226.49c-32.19,63.62-81.64,124.41-155.61,191.29
	c-45.29,40.94-88.58,56.99-116.91,63.24c-25.06,5.53-42.83,4.65-49.05,4.06c-5.11,4.59-10.2,9-15.26,13.23
	c-52.55,43.83-85.05,52.97-99.76,54.51c-4.99,0.53-8.81-0.89-11.32-4.23c-3.71-4.92-4.11-13.87-2.19-25.59
	c-1.23,1.53-2.36,2.89-3.38,4.09c-6.19,7.26-22.97,24.34-42.2,37.06c-23.67,15.66-42.46,19.39-55.85,11.09
	c-3.76-2.33-6.95-8.84,0.11-34.59C947.71,1614.62,924.36,1633.41,909.97,1633.42 M922.77,1571.37c0.55,18.91-2.82,37.76-9.88,57.77
	c12.83-2.28,34.1-18.78,62.01-47.87c3.04-9.82,7.3-21.92,13.15-36.83c13.95-35.6,31.66-73.51,38.05-86.29
	c0.17-0.34,0.43-0.62,0.76-0.82c8.6-5.18,17.56-9.93,26.22-14.53c18.93-10.05,38.51-20.44,55.47-35.86c1.19-1.09,3-2.73,4.7-1.67
	c0.57,0.35,1.43,1.22,0.89,3.11c-2.34,8.19-41.8,64.45-86,118.31c-15.39,18.75-32.7,38.89-49.62,56.57
	c-9.29,30.56-5.74,36.32-4.02,37.38c14.87,9.23,36.24-0.91,51.54-11.03c18.85-12.47,35.29-29.21,41.35-36.32
	c2.21-2.59,4.94-5.98,8.12-10.09c6.32-27.85,22.27-67.23,37.87-105.78c10.98-27.11,21.35-52.72,25.97-69.22
	c0.13-0.44,0.39-0.82,0.76-1.09c111.78-80.48,155.62-139.59,156.05-140.18c0.64-0.87,1.87-1.08,2.77-0.45
	c0.89,0.63,1.11,1.85,0.5,2.76c-1.78,2.64-168.18,248.36-220.19,315.68c-3.22,14.25-3.78,25.09-0.03,30.07
	c1.62,2.16,4.14,3.03,7.71,2.65c24.24-2.55,59.82-22.09,97.6-53.6c4.57-3.81,9.16-7.78,13.79-11.93c-0.12-0.5-0.06-1.03,0.2-1.48
	c2.36-4.1,235.19-410.17,241.86-427.95c0.37-0.99,1.44-1.52,2.45-1.22c1.01,0.31,1.61,1.34,1.37,2.37
	c-0.41,1.77-41.55,177.91-105.02,269.3c-44.88,64.63-89.42,117.32-132.71,157.01c8.03,0.4,23.78,0.28,44.29-4.27
	c27.81-6.17,70.32-21.98,114.87-62.26c146.03-132.02,202.04-244.48,206.66-414.92c2.38-88.04-9.95-154.35-36.65-197.1
	c-25.18-40.3-54.86-45.42-63.36-46.02c-2.78-0.2-4.54,0.12-5.38,0.97c-1.57,1.58-1.19,6.1-0.66,12.35
	c2.19,26.11,7.33,87.27-104.58,190.35c-25.42,23.41-49.82,42.39-73.31,58.13c1.87,4.1,3.66,8.4,5.34,12.9
	c0.34,0.89,0,1.89-0.81,2.39c-13.32,8.4-52.6,28.57-98.07,51.94c-64.43,33.1-144.61,74.29-175.51,94.85
	c-73.27,48.74-104,122.18-91.32,218.29C935.34,1503.61,933.9,1542.91,922.77,1571.37z M783.89,1603.98
	c7.4,4.71,19.27,5.83,31.99,2.76c15.78-3.81,34.42-14.98,39.4-34.91c4.48-17.93,3.97-30.25-1.62-38.74
	c-3.27,15.26-7.58,29.85-14.86,41.76C827.09,1594.01,809.09,1603.58,783.89,1603.98z M858.08,1509.62
	c22.49,8.5,44.09,27.78,46.85,84.7c5.6-6.84,10.18-14.62,13.76-23.54c-1.1-31.73-13.46-63.73-38.12-102.1
	c-2.89-4.5-6.9-9.99-11.79-16.43c-3.04,15.36-6.02,31.35-9.04,47.98c-0.56,3.08-1.11,6.19-1.65,9.31
	C858.09,1509.57,858.09,1509.59,858.08,1509.62z M1029.42,1460.46c-6.58,13.21-23.93,50.43-37.65,85.43
	c-4.35,11.09-7.77,20.55-10.45,28.6c13.55-14.52,28.55-31.79,44.79-51.63c37.38-45.67,70.58-92.17,80.92-109.27
	c-16.29,13.75-34.46,23.39-52.07,32.74C1046.51,1450.82,1037.78,1455.45,1029.42,1460.46z M869.83,1447.03
	c5.93,7.73,10.74,14.24,14.11,19.49c22.64,35.21,35.1,65.2,38.14,94.52c8.02-26.99,8.46-63.22,1.92-112.78
	c-6.83-51.81-1.08-97.73,17.11-136.49c15.9-33.88,41.46-62.7,75.97-85.65c31.08-20.68,111.37-61.93,175.89-95.08
	c43.89-22.55,82-42.13,96.38-50.9c-1.39-3.65-2.86-7.16-4.38-10.53c-57.2,37.74-108.9,56.47-156.17,73.6
	c-66.37,24.06-123.7,44.84-181.09,108.51C906.27,1297.72,886.79,1362.69,869.83,1447.03z M1143.03,1389.95
	c-4.77,16.73-15.05,42.12-25.93,68.97c-12.94,31.95-27.74,68.52-35.36,96.14c45.18-59.98,151.54-215.62,195.19-279.79
	C1253.53,1300.19,1210.68,1341.18,1143.03,1389.95z M834.46,600.57c0.42,0,0.84,0.13,1.2,0.4c0.85,0.65,1.05,1.85,0.44,2.73
	c-32.05,46.61-59.77,60.53-101.72,81.58c-23.57,11.83-52.89,26.54-90.05,50.99c-92.46,60.83-185.76,184.56-185.76,323.86
	c0,118.37,29.48,281.71,169.94,387.66c60.4,45.57,120.01,53.94,163.54,60.06c26.88,3.78,47.43,6.67,59.27,16.67
	c0.79-4.08,1.52-8.18,2.25-12.29c-6.72-2.23-13.54-3.61-20-4.93c-2.17-0.44-4.3-0.87-6.36-1.32c-34.01-7.46-91.23-29.43-149.8-68.74
	c-44.97-30.18-106.42-81.35-143.82-153.76c-43.05-83.35-44.3-174.08-3.72-269.66c27.44-64.64,76.41-96.04,128.26-129.29
	c49.85-31.97,101.4-65.02,145.09-130.55c63.64-95.46,134.61-106.7,216.78-119.72c25.8-4.09,52.48-8.32,80.32-15.41
	c50.82-12.95,88.5-44.58,111.16-68.83c29.28-31.34,46.32-63.38,52.5-82.92c1.89-5.98,2.64-10.27,2.81-13.32
	c-22.22-15.61-64.25-36.42-141.33-51.84c-79.65-15.93-138.82-13.26-174.43-8.22c-38.58,5.46-58.59,14.8-58.78,14.9
	c-0.84,0.4-1.83,0.17-2.41-0.55c-0.58-0.72-0.59-1.74-0.03-2.48c0.48-0.62,12.12-15.4,44.74-26.85
	c29.82-10.46,83.72-19.96,171.15-5.78c50.74,8.23,148.81,54.9,162.82,71.24c1.55,1.81,2.21,4.47,2.3,7.52
	c0.86,0.63,1.7,1.25,2.51,1.86c10.37,7.84,16.9,14.93,20.98,20.46c-5.37-18.11-17.78-34.82-37.04-49.8
	c-21.13-16.44-49.94-30.48-85.63-41.71c-61.58-19.39-141.14-28.74-202.69-23.82c-117.04,9.36-204.2,61.34-245.42,146.35
	c-32.55,67.13-28.26,163.11-27.2,180.07c15.32-5.56,98.05-37.15,136.62-83.84C833.31,600.82,833.88,600.57,834.46,600.57z
	 M1436.14,1119.69c-38.21,70.87-199.07,351.73-229.48,404.8c41.97-39.13,86.2-91.66,129.24-153.64
	C1387.42,1296.66,1424.2,1165.92,1436.14,1119.69z M876.18,856.01c-38.48,22.16-76.72,50.09-108.43,91.51
	c-142.39,185.98,20.59,394.95,90.18,484.18c3.07,3.93,5.96,7.64,8.66,11.13c16.93-83.33,36.63-147.71,78.15-193.79
	c58.06-64.41,118.6-86.36,182.7-109.59c47.17-17.09,98.75-35.78,155.81-73.51c-15.63-32.48-37.51-51.38-65.2-56.27
	c-17.76-2.54-47.61,4.49-71.6,10.13c-21.88,5.14-33.49,7.73-37.82,5.57c-10.77-5.39-12.3-28.07-5.62-83.68
	c6.61-55.16,12.51-57.88,24.17-58.44l0.39-0.02c0.69-0.04,1.48,0.09,2.42,0.37c-7.48-7.02-9.58-11.46-7.68-17.18
	c4.89-14.67,6.82-17.36,9.05-17.61c1.02-0.11,1.98,0.4,2.56,1.37c5.8,9.67,24.64,35.32,42.89,48.53
	c7.42,5.37,16.99,10.23,23.98,13.78c3.11,1.57,5.78,2.94,7.62,4.01c0.79,0.46,1.17,1.4,0.92,2.28c-0.26,0.88-1.06,1.45-1.99,1.45
	c-1.88-0.06-3.79-0.23-5.72-0.49c11.57,3.49,21.78,5.2,27.83,4.33c15.25-2.18,20.31-17.49,20.98-23.2c0.6-5.16,0.45-9.91,0.26-16.47
	c-0.13-4.2-0.28-8.95-0.28-15.05c0-0.11,0.01-0.22,0.03-0.33c0.23-1.39,0.48-2.72,0.73-4.02c-0.76-0.81-0.76-1.9-0.76-2.46
	c0-2.72,3.67-15.61,7.93-24.12c3.8-7.59,8.68-12.98,12.25-16.91c2.34-2.59,4.56-5.04,4.76-6.41c-0.49-0.65-2.56-1.99-4.4-3.18
	c-9.19-5.96-28.3-18.36-43.06-52.92c-0.97-2.29-2.02-4.73-3.11-7.28c-6.95-16.21-15.6-36.39-21.85-53.35
	c-9.55-25.88-9.32-32.63-6.06-34.81c2.72-1.81,7.1-1.37,10.3-0.68c14.96,3.22,37.38,18.19,53.74,44.38
	c17.53,28.04,11.46,62.94,8.55,79.7c-0.7,4-1.42,8.14-1.19,9.16c1.22,2.43,3.15,5.47,6.06,8.19c-2.83-6.28-6.66-15.32-3.29-22.05
	c2.66-5.33,10.21-7.9,17.51-10.38c6.22-2.11,12.64-4.3,14.21-7.71c2.99-6.47-10.37-30.88-19.21-47.03
	c-8.71-15.92-12.17-22.62-11.78-25.87c-10.08-0.01-18.96-2.65-21.14-7.02c-2.14-4.26,3.89-7.96,10.27-11.87
	c3.2-1.96,7.17-4.39,7.87-5.79c0.9-1.79,2.38-2,3.37-1.63c1.24,0.46,2.21,2.27,2.91,4.78c-0.5-3.78-0.39-6.91,0.9-8.2
	c2.14-2.14,20.97-21.27,22.1-32.8c0.08-0.81,0.19-1.88,0.2-2.84c-8.28,8.04-29.79,23.56-40.97,25.42c-2.56,0.43-4.38-0.01-5.43-1.31
	c-0.69-0.84-1.29-2.39-0.27-4.98c3.09-7.89,20.22-23.16,32.3-24.88c6.87-0.98,10.97-1.37,13.62-0.87
	c-3.99-9.13-12.75-45.07-9.76-69.32c1.3-10.52,2.04-19.15,2.19-26.52c-16.39,33.35-67.34,94.81-134.02,134.42
	c-38.79,23.04-32.1,53.95-24.36,89.74c6.56,30.27,13.98,64.58-8.77,96.91c-15.09,21.45-30.63,38.01-44.33,52.62
	c-31.5,33.57-52.31,55.75-39.57,103.24c10.78,40.16,46.6,62.27,74.76,73.74c30.74,12.53,59.31,15.48,59.59,15.51
	c0.81,0.08,1.5,0.65,1.72,1.43c0.23,0.79-0.04,1.63-0.69,2.14c-3.33,2.59-82.34,63.73-139.15,73.61
	c-49.51,8.61-94.69-0.25-130.66-25.62c-32.36-22.83-56.29-58.72-67.39-101.05C820.19,975.73,839.21,913.15,876.18,856.01z
	 M1145.84,891.74c0.21,0.12,0.43,0.25,0.65,0.37c13.35,7.68,32.3,18.58,49.83,22.58c-6.75-3.45-15.09-7.86-21.84-12.75
	c-17.82-12.9-36.14-37.25-43-48.13c-0.94,1.7-2.57,5.5-5.36,13.86C1124.33,873.05,1127.48,876.97,1145.84,891.74z M1266.32,836.48
	c-2.54,3.6-6.94,11.26-10.14,24.41c0.61-0.22,1.28-0.46,1.97-0.71c1.35-0.49,2.98-1.09,4.95-1.79c2.94-1.04,4.97-2.73,6.03-5.01
	c1.28-2.76,1.13-6.4-0.43-10.54C1267.69,840.18,1266.9,838.06,1266.32,836.48z M1051.47,688.09
	c-58.34,42.51-120.02,96.12-162.57,156.24c16.2-8.77,32.29-16.68,47.83-24.33C1005.78,786.04,1060.55,759.09,1051.47,688.09z
	 M1202.13,666.28c-1.51,0-2.51,0.26-3.03,0.61c-0.37,0.47-1.96,4.43,8.02,31.26c6.19,16.63,14.59,36.24,21.35,52
	c1.09,2.55,2.13,4.99,3.11,7.28c14.23,33.33,32.58,45.31,41.47,51.08c-4.17-3.44-6.81-7.52-8.39-10.67
	c-0.81-1.62-0.41-4.24,0.87-11.56c2.83-16.28,8.72-50.15-8-76.9c-17.99-28.79-40.64-40.32-51.19-42.59
	C1204.65,666.43,1203.25,666.28,1202.13,666.28z M1271.01,670.17c-1.79,1.82-4.73,3.62-8.01,5.63c-2.8,1.72-8.65,5.3-8.77,6.75
	c1.17,2.31,8.58,4.86,18.2,4.75C1272.97,681.32,1272,673.68,1271.01,670.17z M1276.12,675.49c0.45,3.86,0.53,8.12,0.29,11.62
	c2.36-0.21,4.82-0.58,7.32-1.15c2.14-0.49,4.35-1.3,6.55-2.29c-6.13-0.05-10.57-0.55-10.87-0.58c-0.8-0.09-1.47-0.66-1.69-1.44
	C1277.16,679.68,1276.6,677.57,1276.12,675.49z M1311.45,675.68c-0.91,0.56-1.94,1.22-2.95,1.89
	C1309.83,676.99,1310.79,676.34,1311.45,675.68z M1278.9,664.22C1278.9,664.22,1278.9,664.22,1278.9,664.22
	S1278.9,664.22,1278.9,664.22z M1255.04,647.45c0.24,0.04,0.72,0.07,1.59-0.07c9.85-1.64,30.83-16.59,38.8-24.3
	c-2.94-0.11-7.74,0.57-10.97,1.04c-9.36,1.34-22.51,12.39-27.45,19.41C1255.49,645.68,1255.09,646.94,1255.04,647.45z
	 M1301.48,618.46c0,0.01,0.01,0.01,0.01,0.02C1301.49,618.47,1301.48,618.46,1301.48,618.46z M1285.5,480.13
	c0.3,2.02,1.21,5.77,3.82,12.44c0.98,2.52,1.81,5.08,2.48,7.78C1291.39,491.25,1287.85,483.37,1285.5,480.13z M1009.76,385.81
	c31.77,0,70.79,3.06,116.47,12.2c74.57,14.91,116.81,34.93,140.12,50.62c-0.29-0.99-0.66-1.55-0.9-1.82
	c-13.35-15.58-111.52-61.97-160.42-69.9c-86.61-14.04-139.81-4.7-169.18,5.6c-17.8,6.24-29.14,13.53-35.66,18.71
	c9.56-3.29,26.21-8.05,50.02-11.44C965.72,387.57,985.66,385.81,1009.76,385.81z"/>
</svg>
