<?xml version="1.0" encoding="utf-8"?>
<!-- Generator: Adobe Illustrator 26.3.1, SVG Export Plug-In . SVG Version: 6.00 Build 0)  -->
<svg version="1.1" id="Calque_1" xmlns="http://www.w3.org/2000/svg" xmlns:xlink="http://www.w3.org/1999/xlink" x="0px" y="0px"
	 viewBox="0 0 1134 1134" style="enable-background:new 0 0 1134 1134;" xml:space="preserve">
<style type="text/css">
	.st0{clip-path:url(#SVGID_00000036241733840403092670000012405841038217658782_);fill:#FFFFFF;}
	.st1{fill;}
</style>
<g>
	<g>
		<defs>
			<rect id="SVGID_1_" y="0.14" width="1133.86" height="1133.8"/>
		</defs>
		<clipPath id="SVGID_00000052096793651141761070000015301247331564573844_">
			<use xlink:href="#SVGID_1_"  style="overflow:visible;"/>
		</clipPath>

			<rect y="0.14" fill-opacity="0" style="clip-path:url(#SVGID_00000052096793651141761070000015301247331564573844_);fill:#FFFFFF;" width="1133.86" height="1133.8"/>
	</g>
</g>
<rect fill="#FFF" x="181.92" y="565.57" width="769.97" height="3"/>
<polyline fill="#FFF" points="234.25,760.86 232.75,758.27 899.56,373.28 901.06,375.88 234.25,760.86 "/>
<polyline fill="#FFF" points="375.71,901.23 373.11,899.73 758.1,232.91 760.7,234.41 375.71,901.23 "/>
<rect fill="#FFF" x="565.41" y="182.08" width="3" height="769.97"/>
<polyline fill="#FFF" points="758.1,901.23 373.11,234.41 375.71,232.91 760.7,899.73 758.1,901.23 "/>
<polyline fill="#FFF" points="899.56,760.86 232.75,375.88 234.25,373.28 901.06,758.27 899.56,760.86 "/>
<path fill="#FFF" d="M567.11,676.96c-38.02,0-75.04-19.71-95.37-54.93c-30.3-52.49-12.26-119.84,40.23-150.15
	c25.42-14.68,55.05-18.58,83.41-10.98c28.36,7.6,52.06,25.79,66.74,51.21c14.68,25.42,18.58,55.05,10.98,83.41
	c-7.6,28.36-25.79,52.06-51.21,66.74C604.62,672.22,585.75,676.96,567.11,676.96 M566.76,460.11c-18.53,0-36.81,4.86-53.28,14.37
	c-51.05,29.48-68.61,94.99-39.13,146.05c19.78,34.26,55.79,53.43,92.77,53.44c18.13,0,36.48-4.61,53.28-14.3
	c24.73-14.28,42.42-37.33,49.81-64.92c7.39-27.59,3.6-56.4-10.68-81.13c-14.28-24.73-37.33-42.42-64.92-49.81
	C585.39,461.33,576.04,460.11,566.76,460.11z"/>
<path fill="#FFF" class="st1" d="M624.84,533.64c18.5,32.04,7.52,73.02-24.52,91.52c-32.04,18.5-73.02,7.52-91.52-24.52
	c-18.5-32.04-7.52-73.02,24.52-91.52S606.34,501.59,624.84,533.64"/>
<path fill="#FFF" d="M566.93,635.61c-23.69,0-46.76-12.29-59.43-34.23c-18.88-32.71-7.64-74.68,25.07-93.57c15.85-9.15,34.3-11.58,51.97-6.84
	c17.67,4.73,32.44,16.07,41.59,31.91s11.58,34.3,6.84,51.97s-16.07,32.44-31.91,41.59C590.31,632.66,578.55,635.61,566.93,635.61
	 M566.71,501.61c-11.35,0-22.55,2.98-32.64,8.8c-31.28,18.06-42.03,58.19-23.97,89.47c12.12,20.99,34.18,32.73,56.83,32.73
	c11.1,0,22.35-2.82,32.64-8.76c15.15-8.75,25.99-22.87,30.52-39.77s2.2-34.55-6.54-49.7c-8.75-15.15-22.87-25.99-39.77-30.52
	C578.13,502.36,572.4,501.61,566.71,501.61z"/>
<path fill="#FFF" d="M567.09,1084.88c-45.1,0-90.01-5.94-134.15-17.76c-64.94-17.4-124.95-46.69-178.36-87.04
	c-55.29-41.77-101.04-93.64-135.99-154.17C83.65,765.39,61.6,699.83,53.07,631.06c-8.24-66.42-3.6-133.03,13.8-197.98
	s46.68-124.95,87.04-178.36c41.77-55.29,93.64-101.04,154.17-135.99c60.52-34.94,126.08-56.99,194.85-65.52
	c66.42-8.24,133.03-3.6,197.98,13.8s124.95,46.68,178.36,87.03c55.29,41.77,101.04,93.64,135.99,154.17
	c34.94,60.52,56.99,126.08,65.52,194.85c8.24,66.42,3.6,133.03-13.8,197.98c-17.41,64.95-46.69,124.95-87.04,178.36
	c-41.77,55.29-93.64,101.04-154.17,135.99c-60.52,34.94-126.08,56.99-194.85,65.52C609.65,1083.56,588.35,1084.88,567.09,1084.88
	 M566.76,50.26c-21.21,0-42.47,1.31-63.7,3.95c-68.64,8.52-134.07,30.52-194.48,65.4S196.4,200.15,154.71,255.33
	c-40.27,53.3-69.5,113.19-86.87,178.01s-22,131.3-13.78,197.6c8.52,68.64,30.52,134.07,65.4,194.47
	c34.88,60.41,80.54,112.18,135.72,153.87c53.3,40.27,113.19,69.49,178.01,86.86s131.3,22.01,197.6,13.78
	c68.64-8.52,134.07-30.52,194.47-65.4c60.41-34.87,112.18-80.54,153.87-135.72c40.28-53.3,69.5-113.19,86.87-178.01
	s22-131.3,13.78-197.6c-8.52-68.64-30.52-134.07-65.4-194.48c-34.87-60.41-80.54-112.18-135.72-153.87
	c-53.3-40.27-113.19-69.5-178.01-86.87C656.6,56.18,611.77,50.26,566.76,50.26z"/>
<path fill="#FFF" d="M567.05,947.33c-33.12,0-66.1-4.36-98.52-13.04c-47.69-12.78-91.76-34.28-130.98-63.91c-40.6-30.68-74.2-68.77-99.86-113.22
	s-41.85-92.59-48.12-143.09c-6.05-48.78-2.64-97.7,10.14-145.39s34.28-91.76,63.92-130.98c30.68-40.6,68.77-74.2,113.22-99.86
	s92.59-41.85,143.09-48.12c48.78-6.05,97.7-2.64,145.39,10.14s91.76,34.28,130.98,63.91c40.6,30.68,74.2,68.77,99.86,113.22
	s41.85,92.59,48.12,143.09c6.05,48.78,2.64,97.7-10.14,145.39c-12.78,47.7-34.28,91.76-63.92,130.98
	c-30.68,40.6-68.77,74.2-113.22,99.86c-44.45,25.66-92.59,41.85-143.09,48.12C598.3,946.37,582.66,947.33,567.05,947.33
	 M566.81,187.8c-15.57,0-31.17,0.97-46.75,2.9c-50.37,6.25-98.39,22.4-142.72,47.99s-82.32,59.1-112.92,99.6
	c-29.55,39.11-51,83.07-63.75,130.64c-12.74,47.57-16.15,96.36-10.11,145.01c6.25,50.37,22.4,98.39,47.99,142.72
	s59.1,82.32,99.6,112.92c39.11,29.55,83.07,51,130.64,63.75s96.35,16.15,145.01,10.11c50.37-6.25,98.39-22.4,142.72-47.99
	c44.33-25.6,82.32-59.11,112.92-99.6c29.55-39.11,51-83.07,63.75-130.64s16.15-96.36,10.11-145.01
	c-6.25-50.37-22.4-98.39-47.99-142.72c-25.59-44.33-59.11-82.32-99.6-112.92c-39.11-29.55-83.07-51-130.64-63.75
	C632.73,192.15,599.84,187.8,566.81,187.8z"/>
<path fill="#FFF" d="M1076.42,503.62c-8.46-68.19-30.32-133.19-64.97-193.2c-34.64-60.01-80.01-111.44-134.83-152.86
	c-52.95-40.01-112.45-69.04-176.84-86.3c-64.39-17.25-130.44-21.86-196.3-13.69c-68.19,8.46-133.19,30.32-193.2,64.97
	s-111.44,80.01-152.86,134.83c-40.01,52.95-69.04,112.45-86.3,176.84c-17.25,64.39-21.86,130.44-13.69,196.3
	c8.46,68.19,30.32,133.19,64.97,193.2s80.01,111.44,134.83,152.86c52.95,40.01,112.45,69.04,176.84,86.29
	c43.77,11.73,88.3,17.62,133.01,17.62c21.07,0,42.19-1.31,63.29-3.93c68.19-8.46,133.19-30.32,193.2-64.96
	c60.01-34.65,111.44-80.02,152.86-134.84c40.01-52.95,69.04-112.45,86.29-176.84C1079.99,635.53,1084.59,569.48,1076.42,503.62
	 M1073.44,503.99c2.55,20.53,3.85,41.07,3.9,61.58H953.52c-0.01-1.58-0.05-3.16-0.07-4.75l6.01-0.11l-0.02-1l-6,0.11
	c-0.04-1.92-0.08-3.83-0.15-5.74l6-0.21l-0.03-1l-6,0.21c-0.07-1.91-0.13-3.83-0.23-5.74l5.97-0.32l-0.05-1l-5.98,0.32
	c-0.1-1.91-0.23-3.82-0.36-5.73l5.99-0.42l-0.07-1l-5.98,0.42c-0.14-1.91-0.3-3.82-0.46-5.73l13.51-1.18l-0.09-1L952,532.88
	c-0.17-1.91-0.34-3.82-0.54-5.72l5.96-0.63l-0.1-0.99l-5.97,0.63c-0.2-1.9-0.41-3.81-0.64-5.71l5.94-0.73l-0.12-0.99l-5.93,0.73
	c-0.01-0.05-0.01-0.11-0.02-0.16c-0.23-1.85-0.47-3.69-0.73-5.53l5.92-0.83l-0.14-0.99l-5.92,0.83c-0.27-1.9-0.55-3.79-0.85-5.68
	l5.9-0.94l-0.16-0.99l-5.9,0.94c-0.3-1.89-0.61-3.78-0.94-5.67l13.32-2.35l-0.17-0.98l-13.32,2.35c-0.33-1.89-0.69-3.77-1.05-5.66
	l5.86-1.14l-0.19-0.98l-5.86,1.14c-0.37-1.88-0.75-3.76-1.14-5.63l5.84-1.24l-0.21-0.98L945,486.2c-0.4-1.87-0.82-3.74-1.24-5.61
	l5.81-1.34l-0.22-0.97l-5.81,1.34c-0.43-1.87-0.88-3.73-1.34-5.59l5.79-1.45l-0.24-0.97l-5.79,1.45c-0.47-1.86-0.94-3.71-1.43-5.56
	l13.05-3.5l-0.26-0.97l-13.05,3.5c-0.5-1.85-1.02-3.7-1.54-5.54l5.74-1.65l-0.27-0.96l-5.74,1.65c-0.53-1.84-1.08-3.68-1.63-5.51
	l5.71-1.75l-0.29-0.96l-5.71,1.75c-0.56-1.83-1.15-3.66-1.74-5.48l5.68-1.85l-0.31-0.95l-5.69,1.85c-0.6-1.82-1.21-3.64-1.83-5.45
	l5.66-1.95l-0.33-0.95l-5.66,1.95c-0.63-1.81-1.27-3.61-1.92-5.41l12.72-4.63l-0.34-0.94l-12.73,4.63c-0.66-1.8-1.34-3.59-2.02-5.38
	l5.61-2.15l-0.36-0.93l-5.61,2.16c-0.69-1.79-1.39-3.57-2.11-5.35l5.58-2.25l-0.38-0.93l-5.57,2.25c-0.72-1.77-1.46-3.54-2.21-5.3
	l5.55-2.35l-0.39-0.92l-5.55,2.36c-0.75-1.76-1.52-3.52-2.3-5.27l5.52-2.46l-0.41-0.91l-5.52,2.46c-0.78-1.75-1.58-3.49-2.39-5.23
	l12.32-5.75l-0.42-0.91l-12.33,5.75c-0.81-1.73-1.64-3.46-2.48-5.18l5.45-2.66l-0.44-0.9l-5.45,2.66c-0.84-1.72-1.7-3.43-2.57-5.14
	l5.41-2.76l-0.45-0.89l-5.4,2.76c-0.87-1.7-1.76-3.4-2.66-5.09l5.36-2.85l-0.47-0.88l-5.37,2.85c-0.9-1.69-1.82-3.37-2.74-5.05
	l5.32-2.95l-0.48-0.88l-5.32,2.95c-0.77-1.38-1.55-2.76-2.34-4.14l107.2-61.89C1043.61,372.52,1065.09,436.7,1073.44,503.99z
	 M872.89,798.46c-30.95,40.96-69.37,74.85-114.21,100.74s-93.4,42.22-144.35,48.54c-49.21,6.1-98.55,2.67-146.67-10.23
	c-48.11-12.89-92.57-34.58-132.13-64.47c-40.96-30.95-74.85-69.37-100.74-114.21s-42.22-93.4-48.54-144.35
	c-6.11-49.21-2.66-98.55,10.23-146.67c12.89-48.11,34.58-92.57,64.48-132.13c30.95-40.96,69.37-74.85,114.21-100.74
	s93.4-42.22,144.35-48.54c15.76-1.96,31.54-2.93,47.28-2.93c33.41,0,66.68,4.4,99.39,13.16c48.11,12.89,92.57,34.58,132.13,64.48
	c40.96,30.95,74.85,69.37,100.74,114.21s42.22,93.4,48.54,144.35c6.11,49.21,2.67,98.55-10.23,146.67
	C924.48,714.44,902.78,758.9,872.89,798.46z M1008.1,310.63l-107.21,61.9c-0.8-1.37-1.61-2.72-2.42-4.08l5.23-3.14l-0.52-0.86
	l-5.23,3.14c-0.99-1.64-1.99-3.27-3-4.9l5.17-3.23l-0.53-0.85l-5.17,3.23c-1.02-1.62-2.02-3.26-3.06-4.86l5.09-3.31l-0.54-0.84
	l-5.1,3.31c-1.04-1.61-2.11-3.2-3.17-4.79l5.04-3.4l-0.56-0.83l-5.03,3.4c-1.07-1.59-2.16-3.16-3.26-4.73l11.16-7.82l-0.57-0.82
	l-11.16,7.82c-1.1-1.57-2.2-3.14-3.32-4.69l4.89-3.55l-0.59-0.81l-4.9,3.56c-1.13-1.55-2.26-3.09-3.41-4.63l4.82-3.64l-0.6-0.8
	l-4.82,3.63c-1.15-1.53-2.33-3.04-3.51-4.55l4.76-3.72l-0.62-0.79l-4.76,3.72c-1.18-1.51-2.36-3.02-3.56-4.51l4.68-3.79l-0.63-0.78
	l-4.68,3.79c-1.21-1.49-2.41-2.98-3.64-4.45l10.38-8.71l-0.64-0.77l-10.37,8.71c-1.23-1.47-2.49-2.91-3.75-4.36l4.54-3.94
	l-0.66-0.76l-4.53,3.94c-1.26-1.45-2.53-2.88-3.8-4.31l4.46-4.02l-0.67-0.74l-4.46,4.02c-1.28-1.42-2.56-2.86-3.86-4.26l4.37-4.07
	l-0.68-0.73l-4.37,4.08c-1.31-1.4-2.63-2.78-3.96-4.16l4.31-4.16l-0.7-0.72l-4.3,4.16c-1.33-1.38-2.68-2.74-4.04-4.1l9.58-9.58
	l-0.71-0.71l-9.58,9.58c-1.36-1.35-2.71-2.71-4.08-4.04l4.15-4.3l-0.72-0.69l-4.16,4.3c-1.38-1.33-2.77-2.65-4.17-3.96l4.08-4.37
	l-0.73-0.68l-4.07,4.37c-1.4-1.3-2.83-2.58-4.25-3.87l4.01-4.45l-0.74-0.67l-4.01,4.45c-1.42-1.28-2.85-2.55-4.3-3.81l3.93-4.52
	l-0.75-0.66l-3.93,4.52c-1.45-1.25-2.89-2.51-4.36-3.75l8.69-10.36l-0.77-0.64l-8.69,10.36c-1.47-1.23-2.96-2.43-4.45-3.63
	l3.77-4.66l-0.78-0.63l-3.77,4.66c-1.49-1.2-2.99-2.39-4.5-3.57l3.69-4.73l-0.79-0.61l-3.69,4.73c-1.47-1.14-2.93-2.3-4.42-3.43
	c-0.04-0.03-0.08-0.06-0.13-0.09l3.6-4.78l-0.8-0.6l-3.6,4.78c-1.53-1.15-3.08-2.28-4.63-3.41l3.53-4.86l-0.81-0.59l-3.52,4.85
	c-1.55-1.13-3.12-2.23-4.69-3.33l7.78-11.11l-0.82-0.57l-7.78,11.11c-1.57-1.1-3.14-2.19-4.73-3.26l3.36-4.97l-0.83-0.56l-3.36,4.98
	c-1.59-1.07-3.18-2.14-4.78-3.18l3.26-5.03l-0.84-0.54l-3.26,5.02c-1.61-1.04-3.24-2.05-4.86-3.07l3.18-5.1l-0.85-0.53l-3.18,5.1
	c-1.63-1.01-3.26-2.01-4.9-3l3.09-5.15l-0.86-0.51l-3.1,5.16c-1.36-0.82-2.71-1.64-4.08-2.44l61.91-107.23
	c17.73,10.3,34.88,21.7,51.38,34.16C928.92,200.83,973.75,251.52,1008.1,310.63z M820.83,124.3l-61.91,107.24
	c-1.37-0.78-2.74-1.56-4.12-2.33l2.91-5.26l-0.88-0.48l-2.91,5.25c-1.68-0.93-3.37-1.82-5.06-2.72l2.82-5.32l-0.88-0.47l-2.82,5.32
	c-1.69-0.9-3.39-1.78-5.1-2.65l2.73-5.36l-0.89-0.45l-2.74,5.37c-1.71-0.87-3.41-1.74-5.13-2.58l2.63-5.4l-0.9-0.44l-2.63,5.41
	c-1.73-0.84-3.46-1.65-5.2-2.46l5.74-12.31l-0.91-0.42l-5.74,12.31c-1.74-0.8-3.48-1.59-5.23-2.36l2.46-5.52l-0.91-0.41l-2.46,5.52
	c-1.75-0.78-3.5-1.55-5.27-2.3l2.36-5.56l-0.92-0.39l-2.36,5.57c-1.77-0.74-3.53-1.49-5.31-2.2l2.26-5.61l-0.93-0.37l-2.26,5.6
	c-1.78-0.71-3.57-1.39-5.36-2.07l2.17-5.67l-0.93-0.36l-2.17,5.66c-1.79-0.68-3.59-1.35-5.39-2.01l4.66-12.81l-0.94-0.34
	l-4.66,12.81c-1.8-0.65-3.59-1.31-5.4-1.93l1.97-5.74l-0.95-0.33l-1.97,5.75c-1.81-0.62-3.63-1.22-5.45-1.81l1.88-5.79l-0.95-0.31
	l-1.87,5.78c-1.82-0.59-3.65-1.14-5.49-1.71l1.78-5.84l-0.96-0.29l-1.78,5.83c-1.83-0.55-3.66-1.1-5.51-1.64l1.68-5.86l-0.96-0.28
	l-1.68,5.87c-1.84-0.53-3.68-1.05-5.54-1.55l3.53-13.17l-0.97-0.26l-3.53,13.17c-1.85-0.49-3.7-0.95-5.56-1.42l1.47-5.92l-0.97-0.24
	l-1.47,5.92c-1.86-0.46-3.72-0.9-5.59-1.34l1.37-5.95l-0.97-0.23l-1.37,5.95c-1.87-0.43-3.73-0.86-5.6-1.27l1.26-5.95l-0.98-0.21
	l-1.26,5.95c-1.88-0.4-3.75-0.78-5.63-1.15l1.16-5.97l-0.98-0.19l-1.15,5.96c-1.89-0.37-3.77-0.7-5.66-1.04l2.36-13.42l-0.98-0.17
	l-2.36,13.42c-1.89-0.33-3.77-0.65-5.66-0.96l0.95-5.99l-0.99-0.16l-0.95,5.99c-1.89-0.3-3.78-0.61-5.68-0.88l0.84-5.98l-0.99-0.14
	l-0.84,5.98c-1.9-0.27-3.8-0.51-5.7-0.75l0.74-6l-0.99-0.12l-0.73,6c-1.9-0.23-3.81-0.44-5.71-0.65l0.63-6.01l-0.99-0.1l-0.63,6.01
	c-1.91-0.2-3.82-0.4-5.73-0.57l1.18-13.53l-1-0.09l-1.18,13.53c-1.91-0.17-3.81-0.33-5.72-0.47l0.42-6l-1-0.07l-0.42,5.99
	c-1.91-0.13-3.82-0.23-5.74-0.33l0.31-6.01l-1-0.05l-0.31,6.01c-1.91-0.1-3.83-0.18-5.74-0.25l0.21-6.01l-1-0.03l-0.21,6.02
	c-1.91-0.07-3.83-0.14-5.75-0.17l0.1-5.99l-1-0.02l-0.1,6c-1.59-0.03-3.17-0.04-4.76-0.04V56.68c43.89,0.14,87.6,5.98,130.57,17.49
	C741.97,85.68,782.74,102.47,820.83,124.3z M503.85,60.55c20.53-2.55,41.07-3.84,61.58-3.89v123.81c-1.58,0.01-3.15,0.05-4.73,0.07
	l-0.11-6.01l-1,0.02l0.11,6.01c-1.91,0.04-3.83,0.08-5.74,0.14l-0.21-6l-1,0.04l0.21,6c-1.91,0.07-3.83,0.13-5.74,0.23l-0.31-5.97
	l-1,0.05l0.31,5.98c-1.91,0.1-3.82,0.23-5.73,0.36l-0.42-5.99l-1,0.07l0.42,5.98c-1.91,0.14-3.83,0.3-5.74,0.46l-1.18-13.51l-1,0.09
	l1.18,13.51c-1.9,0.17-3.81,0.34-5.71,0.54l-0.63-5.96l-0.99,0.1l0.63,5.97c-1.9,0.2-3.81,0.41-5.71,0.64l-0.73-5.95l-0.99,0.12
	l0.73,5.93c-0.06,0.01-0.12,0.01-0.18,0.02c-1.84,0.23-3.68,0.47-5.52,0.73l-0.83-5.92l-0.99,0.14l0.83,5.92
	c-1.9,0.27-3.79,0.55-5.68,0.85l-0.94-5.9l-0.99,0.16l0.94,5.9c-1.9,0.3-3.79,0.61-5.68,0.94l-2.35-13.31l-0.98,0.17l2.35,13.32
	c-1.89,0.33-3.77,0.68-5.64,1.05l-1.14-5.86l-0.98,0.19l1.14,5.86c-1.88,0.37-3.76,0.75-5.63,1.14l-1.24-5.84l-0.98,0.21l1.24,5.83
	c-1.87,0.4-3.74,0.82-5.61,1.24l-1.34-5.81l-0.97,0.22l1.34,5.81c-1.87,0.43-3.73,0.88-5.59,1.34l-1.44-5.79l-0.97,0.24l1.44,5.79
	c-1.86,0.47-3.72,0.94-5.57,1.44l-3.5-13.05l-0.97,0.26l3.5,13.05c-1.85,0.5-3.69,1.01-5.53,1.54l-1.65-5.74l-0.96,0.27l1.65,5.74
	c-1.84,0.53-3.68,1.08-5.51,1.63l-1.74-5.71l-0.96,0.29l1.74,5.71c-1.83,0.56-3.66,1.14-5.48,1.74l-1.85-5.68l-0.95,0.31l1.85,5.69
	c-1.82,0.6-3.64,1.21-5.45,1.83l-1.95-5.66l-0.95,0.33l1.95,5.66c-1.81,0.63-3.62,1.27-5.43,1.92l-4.63-12.72l-0.94,0.34l4.64,12.73
	c-1.79,0.66-3.58,1.33-5.37,2.02l-2.15-5.6l-0.93,0.36l2.15,5.6c-1.79,0.69-3.57,1.39-5.35,2.11l-2.25-5.57l-0.93,0.38l2.25,5.57
	c-1.77,0.72-3.54,1.46-5.3,2.21l-2.35-5.54l-0.92,0.39l2.35,5.55c-1.76,0.75-3.52,1.52-5.27,2.3l-2.45-5.51l-0.91,0.41l2.45,5.51
	c-1.75,0.79-3.5,1.58-5.24,2.39l-5.75-12.32l-0.91,0.42l5.75,12.32c-1.73,0.81-3.45,1.64-5.17,2.48l-2.65-5.44l-0.9,0.44l2.66,5.44
	c-1.72,0.84-3.43,1.7-5.14,2.57l-2.75-5.4l-0.89,0.45l2.75,5.4c-1.7,0.87-3.4,1.76-5.09,2.66l-2.85-5.36l-0.88,0.47l2.85,5.36
	c-1.69,0.9-3.37,1.82-5.05,2.74l-2.95-5.32l-0.88,0.48l2.95,5.32c-1.39,0.77-2.77,1.55-4.15,2.34l-61.89-107.2
	C372.38,90.39,436.55,68.91,503.85,60.55z M159.81,259.18c40.88-54.1,91.57-98.94,150.67-133.29l61.9,107.21
	c-1.37,0.8-2.72,1.61-4.08,2.42l-3.14-5.22l-0.86,0.52l3.14,5.21c-1.64,0.99-3.28,1.99-4.9,3l-3.23-5.16l-0.85,0.53l3.23,5.16
	c-1.62,1.02-3.26,2.02-4.86,3.06l-3.3-5.08l-0.84,0.54l3.3,5.08c-1.61,1.04-3.2,2.11-4.79,3.17l-3.4-5.03l-0.83,0.56l3.39,5.02
	c-1.59,1.07-3.17,2.17-4.74,3.26l-7.81-11.16l-0.82,0.57l7.81,11.16c-1.57,1.1-3.14,2.19-4.69,3.31l-3.55-4.88l-0.81,0.59l3.55,4.88
	c-1.55,1.13-3.1,2.26-4.63,3.41l-3.63-4.81l-0.8,0.6l3.62,4.8c-1.53,1.15-3.04,2.33-4.55,3.51l-3.71-4.75l-0.79,0.62l3.71,4.74
	c-1.51,1.18-3.02,2.36-4.51,3.56l-3.78-4.66l-0.78,0.63l3.78,4.67c-1.49,1.21-2.98,2.41-4.46,3.64l-8.71-10.38l-0.77,0.64l8.7,10.37
	c-1.47,1.23-2.9,2.49-4.35,3.74l-3.94-4.52l-0.75,0.66l3.93,4.52c-1.45,1.26-2.88,2.53-4.31,3.8l-4.01-4.45l-0.74,0.67l4.01,4.45
	c-1.42,1.28-2.86,2.56-4.26,3.86l-4.06-4.35l-0.73,0.68l4.07,4.36c-1.4,1.31-2.78,2.63-4.16,3.96l-4.15-4.29l-0.72,0.7l4.15,4.29
	c-1.38,1.33-2.74,2.69-4.1,4.04l-9.57-9.57l-0.71,0.71l9.57,9.57c-1.35,1.35-2.7,2.71-4.04,4.08l-4.29-4.13l-0.69,0.72l4.29,4.14
	c-1.33,1.38-2.65,2.77-3.96,4.17l-4.36-4.06l-0.68,0.73l4.36,4.05c-1.3,1.4-2.58,2.83-3.87,4.25l-4.44-3.99l-0.67,0.74l4.44,3.99
	c-1.28,1.43-2.55,2.86-3.81,4.3l-4.51-3.91l-0.65,0.76l4.51,3.92c-1.26,1.45-2.51,2.9-3.75,4.37l-10.36-8.69l-0.64,0.77l10.36,8.69
	c-1.22,1.47-2.42,2.96-3.63,4.45l-4.65-3.76l-0.63,0.78l4.65,3.76c-1.2,1.49-2.39,2.99-3.57,4.5l-4.72-3.68l-0.62,0.79l4.72,3.68
	c-1.14,1.47-2.3,2.93-3.43,4.42c-0.03,0.04-0.06,0.08-0.09,0.12l-4.76-3.58l-0.6,0.8l4.77,3.59c-1.15,1.53-2.28,3.08-3.41,4.63
	l-4.85-3.51l-0.59,0.81l4.84,3.51c-1.13,1.56-2.23,3.12-3.33,4.7l-11.11-7.78l-0.57,0.82l11.11,7.78c-1.1,1.57-2.19,3.14-3.26,4.72
	l-4.96-3.34l-0.56,0.83l4.96,3.34c-1.07,1.59-2.14,3.18-3.18,4.79l-5.01-3.25l-0.54,0.84l5.01,3.24c-1.04,1.61-2.05,3.24-3.07,4.86
	l-5.08-3.17l-0.53,0.85l5.08,3.17c-1.01,1.63-2.01,3.26-3,4.9l-5.14-3.08l-0.51,0.86l5.14,3.08c-0.82,1.36-1.64,2.71-2.44,4.08
	l-107.23-61.91C135.95,292.83,147.34,275.69,159.81,259.18z M74.02,434.99c11.51-42.97,28.31-83.74,50.13-121.83l107.24,61.91
	c-0.79,1.37-1.57,2.74-2.33,4.12l-5.24-2.9l-0.48,0.88l5.23,2.89c-0.93,1.68-1.82,3.37-2.72,5.06l-5.3-2.81l-0.47,0.88l5.3,2.81
	c-0.9,1.69-1.78,3.39-2.65,5.1l-5.35-2.72l-0.45,0.89l5.35,2.72c-0.87,1.71-1.74,3.41-2.58,5.13l-5.38-2.62l-0.44,0.9l5.39,2.62
	c-0.84,1.73-1.65,3.47-2.46,5.2l-12.31-5.74l-0.42,0.91l12.3,5.74c-0.8,1.73-1.58,3.48-2.36,5.23l-5.51-2.45l-0.41,0.91l5.5,2.45
	c-0.77,1.75-1.55,3.5-2.3,5.27l-5.54-2.35l-0.39,0.92l5.55,2.35c-0.74,1.77-1.49,3.53-2.2,5.31l-5.59-2.25l-0.37,0.93l5.58,2.25
	c-0.71,1.78-1.39,3.57-2.07,5.36l-5.65-2.16l-0.36,0.93l5.64,2.16c-0.68,1.79-1.35,3.59-2.01,5.4l-12.8-4.66l-0.34,0.94l12.81,4.66
	c-0.65,1.8-1.31,3.59-1.93,5.4l-5.72-1.96l-0.33,0.95l5.73,1.97c-0.62,1.81-1.22,3.63-1.82,5.45l-5.77-1.87l-0.31,0.95l5.76,1.87
	c-0.59,1.82-1.15,3.65-1.71,5.49l-5.81-1.77l-0.29,0.96l5.81,1.77c-0.56,1.83-1.1,3.66-1.63,5.51l-5.84-1.67l-0.28,0.96l5.84,1.67
	c-0.53,1.84-1.06,3.69-1.56,5.54l-13.17-3.53l-0.26,0.97l13.17,3.53c-0.49,1.85-0.95,3.71-1.42,5.56l-5.9-1.47l-0.24,0.97l5.89,1.46
	c-0.46,1.86-0.9,3.72-1.34,5.59l-5.92-1.36l-0.23,0.97l5.92,1.36c-0.43,1.87-0.86,3.73-1.27,5.6l-5.92-1.25l-0.21,0.98l5.93,1.26
	c-0.4,1.88-0.78,3.75-1.15,5.63l-5.94-1.15l-0.19,0.98l5.93,1.15c-0.37,1.89-0.7,3.77-1.04,5.66l-13.42-2.36l-0.17,0.98l13.42,2.36
	c-0.33,1.88-0.65,3.77-0.96,5.66l-5.97-0.94l-0.15,0.99l5.97,0.94c-0.3,1.89-0.61,3.78-0.88,5.68l-5.95-0.83l-0.14,0.99l5.96,0.83
	c-0.27,1.9-0.51,3.8-0.75,5.7l-5.98-0.73l-0.12,0.99l5.97,0.73c-0.23,1.9-0.44,3.81-0.65,5.71l-5.99-0.62l-0.1,0.99l5.99,0.62
	c-0.2,1.91-0.4,3.82-0.57,5.73l-13.52-1.18l-0.09,1l13.53,1.18c-0.17,1.91-0.33,3.81-0.47,5.72l-5.98-0.41l-0.07,1l5.96,0.41
	c-0.13,1.91-0.23,3.82-0.33,5.74l-5.99-0.31l-0.05,1l5.99,0.31c-0.1,1.91-0.18,3.83-0.25,5.74l-5.99-0.2l-0.03,1l5.99,0.21
	c-0.07,1.91-0.14,3.83-0.17,5.74l-5.97-0.1l-0.02,1l5.98,0.1c-0.03,1.58-0.04,3.17-0.04,4.76H56.5
	C56.67,521.67,62.51,477.97,74.02,434.99z M60.41,630.15c-2.55-20.53-3.85-41.07-3.9-61.58h123.82c0.01,1.58,0.05,3.16,0.07,4.74
	l-5.99,0.11l0.02,1l5.98-0.11c0.04,1.92,0.08,3.83,0.14,5.74l-5.98,0.21l0.04,1l5.98-0.21c0.07,1.92,0.13,3.83,0.23,5.74l-5.95,0.32
	l0.05,1l5.96-0.32c0.1,1.91,0.23,3.82,0.36,5.74l-5.97,0.42l0.07,1l5.96-0.42c0.14,1.91,0.3,3.83,0.46,5.74l-13.51,1.18l0.09,1
	l13.51-1.18c0.17,1.9,0.34,3.81,0.54,5.71l-5.94,0.63l0.11,0.99l5.94-0.63c0.2,1.9,0.41,3.81,0.64,5.71l-5.92,0.73l0.12,0.99
	l5.91-0.73c0.01,0.06,0.01,0.11,0.02,0.17c0.23,1.85,0.47,3.69,0.73,5.53l-5.9,0.83l0.14,0.99l5.9-0.83
	c0.27,1.9,0.55,3.79,0.85,5.68l-5.88,0.94l0.16,0.99l5.88-0.93c0.3,1.9,0.61,3.79,0.94,5.68l-13.31,2.35l0.17,0.98l13.31-2.35
	c0.33,1.88,0.68,3.77,1.05,5.64l-5.84,1.14l0.19,0.98l5.84-1.14c0.37,1.88,0.75,3.76,1.14,5.63l-5.81,1.24l0.21,0.98l5.81-1.24
	c0.4,1.88,0.82,3.74,1.24,5.61l-5.79,1.34l0.23,0.98l5.79-1.34c0.43,1.87,0.88,3.73,1.34,5.59l-5.76,1.44l0.24,0.97l5.76-1.44
	c0.47,1.86,0.94,3.72,1.44,5.58l-13.05,3.5l0.26,0.97l13.05-3.5c0.5,1.85,1.01,3.69,1.54,5.53l-5.71,1.64l0.28,0.96l5.71-1.64
	c0.53,1.84,1.07,3.68,1.63,5.51l-5.68,1.74l0.29,0.96l5.68-1.74c0.56,1.83,1.14,3.66,1.74,5.48l-5.66,1.84l0.31,0.95l5.66-1.84
	c0.6,1.82,1.21,3.64,1.83,5.45l-5.63,1.94l0.33,0.94l5.63-1.94c0.63,1.81,1.27,3.62,1.92,5.43l-12.72,4.63l0.34,0.94l12.73-4.63
	c0.66,1.79,1.33,3.58,2.02,5.37l-5.58,2.15l0.36,0.93l5.58-2.15c0.69,1.79,1.39,3.57,2.11,5.35l-5.55,2.25l0.38,0.93l5.55-2.24
	c0.72,1.77,1.46,3.54,2.21,5.3l-5.52,2.35l0.39,0.92l5.52-2.35c0.75,1.76,1.52,3.51,2.3,5.26l-5.49,2.45l0.41,0.91l5.49-2.45
	c0.79,1.75,1.58,3.5,2.39,5.23l-12.32,5.74l0.42,0.91l12.32-5.75c0.81,1.73,1.64,3.45,2.48,5.17l-5.42,2.65l0.44,0.9l5.42-2.65
	c0.84,1.72,1.7,3.43,2.57,5.14l-5.38,2.74l0.45,0.89l5.38-2.74c0.87,1.7,1.76,3.4,2.66,5.09l-5.34,2.84l0.47,0.88l5.34-2.84
	c0.9,1.69,1.82,3.37,2.75,5.05l-5.29,2.94l0.49,0.88l5.29-2.94c0.77,1.38,1.55,2.76,2.34,4.14l-107.2,61.89
	C90.25,761.62,68.76,697.44,60.41,630.15z M125.76,823.51l107.21-61.9c0.8,1.37,1.61,2.72,2.42,4.08l-5.2,3.13l0.51,0.86l5.2-3.13
	c0.99,1.64,1.99,3.27,3,4.9l-5.14,3.22l0.53,0.85l5.15-3.22c1.02,1.62,2.02,3.26,3.06,4.86l-5.06,3.29l0.55,0.84l5.07-3.3
	c1.04,1.61,2.11,3.2,3.17,4.79l-5.01,3.39l0.56,0.83l5.01-3.38c1.07,1.59,2.17,3.17,3.26,4.74l-11.16,7.81l0.57,0.82l11.16-7.81
	c1.1,1.57,2.19,3.14,3.31,4.69l-4.86,3.54l0.59,0.81l4.87-3.54c1.13,1.55,2.26,3.09,3.41,4.63l-4.8,3.62l0.6,0.8l4.79-3.61
	c1.15,1.53,2.33,3.04,3.51,4.55l-4.73,3.7l0.62,0.79l4.73-3.7c1.18,1.51,2.36,3.02,3.56,4.51l-4.65,3.77l0.63,0.78l4.66-3.77
	c1.21,1.49,2.41,2.98,3.64,4.45l-10.38,8.71l0.64,0.77l10.37-8.7c1.23,1.47,2.49,2.91,3.74,4.35l-4.51,3.93l0.66,0.75l4.51-3.92
	c1.26,1.45,2.53,2.88,3.81,4.31l-4.43,4l0.67,0.74l4.44-4c1.28,1.42,2.55,2.86,3.86,4.26l-4.34,4.05l0.68,0.73l4.35-4.06
	c1.31,1.4,2.63,2.78,3.96,4.16l-4.28,4.14l0.7,0.72l4.28-4.13c1.33,1.38,2.68,2.74,4.04,4.09l-9.57,9.57l0.71,0.71l9.57-9.57
	c1.35,1.35,2.71,2.71,4.08,4.04l-4.13,4.28l0.72,0.69l4.13-4.28c1.38,1.33,2.77,2.65,4.17,3.96l-4.05,4.35l0.73,0.68l4.05-4.34
	c1.4,1.3,2.83,2.58,4.25,3.87l-3.99,4.43l0.74,0.67l3.98-4.43c1.43,1.28,2.86,2.55,4.3,3.81l-3.9,4.49l0.76,0.66l3.91-4.5
	c1.45,1.26,2.9,2.51,4.36,3.75l-8.69,10.36l0.77,0.64l8.69-10.36c1.47,1.23,2.96,2.43,4.45,3.63l-3.75,4.64l0.78,0.63l3.75-4.64
	c1.49,1.2,2.99,2.39,4.5,3.57l-3.67,4.71l0.79,0.62l3.67-4.71c1.47,1.14,2.93,2.3,4.41,3.42c0.04,0.03,0.09,0.07,0.13,0.1
	l-3.58,4.75l0.8,0.6l3.58-4.76c1.53,1.15,3.08,2.28,4.63,3.41l-3.51,4.83l0.81,0.59l3.5-4.83c1.55,1.12,3.12,2.23,4.69,3.33
	l-7.77,11.11l0.82,0.57l7.77-11.11c1.57,1.09,3.14,2.19,4.73,3.26l-3.34,4.95l0.83,0.56l3.34-4.95c1.59,1.07,3.18,2.14,4.79,3.18
	l-3.24,5l0.84,0.54l3.24-4.99c1.61,1.04,3.24,2.05,4.86,3.07l-3.17,5.07l0.85,0.53l3.16-5.07c1.63,1.01,3.26,2.01,4.9,3l-3.08,5.13
	l0.86,0.51l3.08-5.13c1.36,0.81,2.71,1.64,4.08,2.43l-61.91,107.23c-17.73-10.3-34.88-21.69-51.38-34.16
	C204.94,933.31,160.11,882.62,125.76,823.51z M313.03,1009.84l61.91-107.24c1.38,0.78,2.75,1.57,4.14,2.34l-2.89,5.22l0.88,0.49
	l2.89-5.22c1.68,0.93,3.37,1.82,5.06,2.72l-2.81,5.29l0.88,0.47l2.81-5.29c1.69,0.9,3.39,1.78,5.1,2.65l-2.71,5.34l0.89,0.45
	l2.72-5.34c1.71,0.87,3.41,1.74,5.13,2.58l-2.61,5.37l0.9,0.44l2.62-5.38c1.72,0.84,3.46,1.65,5.2,2.46l-5.74,12.31l0.91,0.42
	l5.74-12.3c1.74,0.8,3.48,1.59,5.23,2.36l-2.44,5.49l0.91,0.41l2.44-5.49c1.75,0.77,3.5,1.55,5.27,2.3l-2.34,5.53l0.92,0.39
	l2.35-5.54c1.76,0.74,3.53,1.48,5.31,2.2l-2.25,5.58l0.93,0.37l2.24-5.57c1.78,0.71,3.57,1.39,5.36,2.08l-2.16,5.64l0.93,0.36
	l2.16-5.63c1.79,0.68,3.59,1.35,5.39,2l-4.66,12.8l0.94,0.34l4.66-12.81c1.8,0.65,3.6,1.31,5.41,1.93l-1.96,5.71l0.95,0.32
	l1.96-5.71c1.81,0.62,3.63,1.22,5.45,1.82l-1.87,5.76l0.95,0.31l1.86-5.75c1.82,0.59,3.65,1.15,5.49,1.71l-1.77,5.8l0.96,0.29
	l1.77-5.8c1.83,0.56,3.67,1.1,5.51,1.64l-1.67,5.83l0.96,0.28l1.67-5.83c1.84,0.53,3.68,1.05,5.54,1.55l-3.53,13.17l0.96,0.26
	l3.53-13.16c1.85,0.49,3.7,0.98,5.56,1.44l-1.46,5.87l0.97,0.24l1.46-5.87c1.86,0.46,3.72,0.92,5.59,1.35l-1.36,5.89l0.97,0.22
	l1.36-5.89c1.87,0.43,3.74,0.85,5.61,1.25l-1.25,5.91l0.98,0.21l1.25-5.91c1.88,0.4,3.75,0.78,5.63,1.15l-1.15,5.92l0.98,0.19
	l1.15-5.93c1.88,0.37,3.77,0.72,5.65,1.06l-2.36,13.4l0.98,0.17l2.36-13.4c1.89,0.33,3.77,0.65,5.66,0.96l-0.94,5.95l0.99,0.16
	l0.94-5.95c1.89,0.3,3.79,0.59,5.68,0.86l-0.83,5.95l0.99,0.14l0.83-5.95c1.9,0.27,3.8,0.52,5.7,0.76l-0.73,5.96l0.99,0.12
	l0.73-5.96c1.9,0.23,3.81,0.45,5.71,0.66l-0.62,5.97l0.99,0.1l0.62-5.96c1.91,0.2,3.81,0.39,5.72,0.56l-1.18,13.52l1,0.09
	l1.18-13.52c1.91,0.17,3.82,0.32,5.73,0.45l-0.41,5.97l1,0.07l0.41-5.96c1.91,0.13,3.82,0.25,5.74,0.35l-0.31,5.97l1,0.05l0.31-5.96
	c1.91,0.1,3.83,0.18,5.74,0.25l-0.21,5.97l1,0.03l0.21-5.96c1.91,0.07,3.83,0.11,5.75,0.15l-0.1,5.96l1,0.02l0.1-5.96
	c1.58,0.03,3.16,0.03,4.74,0.04v123.81c-43.9-0.14-87.61-5.98-130.58-17.49C391.89,1048.46,351.11,1031.67,313.03,1009.84z
	 M630.01,1073.58c-20.53,2.55-41.07,3.85-61.58,3.9V953.66c1.59-0.01,3.17-0.02,4.75-0.04l0.11,5.95l1-0.02l-0.11-5.96
	c1.91-0.04,3.83-0.09,5.74-0.15l0.21,5.95l1-0.03l-0.21-5.96c1.91-0.07,3.83-0.15,5.74-0.25l0.32,5.95l1-0.05l-0.32-5.95
	c1.91-0.1,3.82-0.22,5.74-0.35l0.42,5.95l1-0.07l-0.42-5.95c1.91-0.14,3.82-0.29,5.73-0.45l1.18,13.49l1-0.09l-1.18-13.49
	c1.91-0.17,3.81-0.35,5.72-0.55l0.63,5.93l0.99-0.11l-0.63-5.92c1.9-0.2,3.81-0.42,5.71-0.65l0.73,5.91l0.99-0.12l-0.73-5.9
	c0.05-0.01,0.1-0.01,0.16-0.02c1.85-0.23,3.7-0.48,5.54-0.73l0.83,5.89l0.99-0.14l-0.83-5.89c1.9-0.27,3.79-0.55,5.68-0.85
	l0.93,5.88l0.99-0.16l-0.93-5.87c1.89-0.3,3.78-0.61,5.67-0.94l2.35,13.32l0.98-0.17l-2.35-13.32c1.89-0.33,3.77-0.69,5.65-1.05
	l1.14,5.83l0.98-0.19l-1.14-5.83c1.88-0.37,3.76-0.75,5.63-1.14l1.24,5.81l0.98-0.21l-1.24-5.8c1.87-0.4,3.74-0.82,5.61-1.25
	l1.34,5.78l0.97-0.22l-1.34-5.79c1.87-0.43,3.73-0.88,5.59-1.34l1.44,5.76l0.97-0.24l-1.44-5.76c1.86-0.47,3.71-0.94,5.56-1.43
	l3.5,13.05l0.97-0.26l-3.5-13.05c1.85-0.5,3.7-1.02,5.54-1.54l1.64,5.71l0.96-0.28l-1.64-5.71c1.84-0.53,3.68-1.08,5.51-1.63
	l1.74,5.68l0.96-0.29l-1.74-5.68c1.83-0.57,3.66-1.15,5.48-1.74l1.84,5.65l0.95-0.31l-1.84-5.66c1.82-0.6,3.64-1.21,5.45-1.83
	l1.94,5.63l0.95-0.33l-1.94-5.63c1.81-0.63,3.62-1.26,5.42-1.92l4.63,12.72l0.94-0.34l-4.63-12.73c1.8-0.66,3.59-1.34,5.38-2.02
	l2.14,5.58l0.93-0.36l-2.14-5.58c1.79-0.69,3.57-1.39,5.34-2.11l2.24,5.55l0.93-0.38l-2.24-5.54c1.77-0.72,3.54-1.46,5.3-2.21
	l2.34,5.52l0.92-0.39l-2.35-5.52c1.76-0.75,3.52-1.52,5.27-2.3l2.45,5.49l0.91-0.41l-2.45-5.49c1.75-0.78,3.49-1.58,5.22-2.39
	l5.75,12.32l0.91-0.42l-5.75-12.33c1.73-0.81,3.46-1.64,5.19-2.49l2.65,5.42l0.9-0.44l-2.65-5.42c1.72-0.84,3.43-1.7,5.14-2.57
	l2.74,5.38l0.89-0.45l-2.74-5.38c1.7-0.87,3.4-1.76,5.09-2.66l2.84,5.34l0.88-0.47l-2.84-5.34c1.69-0.9,3.37-1.82,5.05-2.75
	l2.94,5.3l0.88-0.48l-2.94-5.29c1.38-0.77,2.75-1.54,4.12-2.33l61.89,107.2C761.47,1043.75,697.3,1065.23,630.01,1073.58z
	 M974.04,874.95c-40.88,54.1-91.57,98.94-150.67,133.29l-61.9-107.21c1.37-0.8,2.72-1.61,4.08-2.42l3.14,5.22l0.86-0.52l-3.13-5.22
	c1.64-0.99,3.27-1.99,4.9-3l3.23,5.16l0.85-0.53l-3.23-5.16c1.62-1.02,3.26-2.02,4.86-3.06l3.3,5.08l0.84-0.54l-3.3-5.08
	c1.61-1.04,3.2-2.11,4.79-3.17l3.39,5.03l0.83-0.56l-3.39-5.02c1.59-1.07,3.16-2.16,4.73-3.26l7.81,11.16l0.82-0.57l-7.81-11.16
	c1.57-1.1,3.14-2.19,4.7-3.32l3.55,4.88l0.81-0.59l-3.55-4.88c1.55-1.13,3.1-2.26,4.63-3.41l3.63,4.81l0.8-0.6l-3.62-4.8
	c1.53-1.15,3.04-2.33,4.55-3.51l3.71,4.75l0.79-0.61l-3.71-4.75c1.51-1.18,3.02-2.36,4.51-3.57l3.78,4.67l0.78-0.63l-3.79-4.67
	c1.49-1.21,2.98-2.41,4.45-3.64l8.71,10.38l0.77-0.64l-8.7-10.37c1.47-1.23,2.91-2.49,4.36-3.75l3.94,4.53l0.75-0.66l-3.93-4.52
	c1.45-1.26,2.88-2.53,4.31-3.8l4.01,4.45l0.74-0.67l-4.01-4.45c1.42-1.28,2.86-2.56,4.26-3.86l4.07,4.36l0.73-0.68L831,849.5
	c1.4-1.31,2.78-2.63,4.16-3.96l4.15,4.3l0.72-0.7l-4.15-4.29c1.38-1.33,2.73-2.68,4.09-4.04l9.57,9.58l0.71-0.71l-9.57-9.58
	c1.35-1.36,2.71-2.71,4.04-4.09l4.29,4.14l0.7-0.72l-4.3-4.15c1.33-1.38,2.65-2.77,3.96-4.17l4.37,4.07l0.68-0.73l-4.36-4.06
	c1.3-1.4,2.58-2.83,3.86-4.25l4.45,4l0.67-0.74l-4.45-4c1.28-1.43,2.55-2.86,3.81-4.3l4.51,3.92l0.66-0.76l-4.52-3.92
	c1.25-1.45,2.51-2.89,3.74-4.36l10.36,8.7l0.64-0.77l-10.36-8.69c1.23-1.47,2.43-2.96,3.64-4.45l4.66,3.77l0.63-0.78l-4.65-3.77
	c1.2-1.49,2.39-2.99,3.57-4.5l4.72,3.69l0.61-0.79l-4.73-3.69c1.14-1.47,2.3-2.92,3.42-4.41c0.03-0.04,0.07-0.09,0.1-0.13l4.77,3.59
	l0.6-0.8l-4.78-3.6c1.15-1.53,2.28-3.08,3.41-4.63l4.85,3.52l0.59-0.81l-4.84-3.52c1.12-1.55,2.23-3.12,3.33-4.69l11.11,7.78
	l0.57-0.82l-11.11-7.78c1.1-1.57,2.19-3.15,3.27-4.73l4.97,3.35l0.56-0.83l-4.97-3.35c1.07-1.59,2.14-3.18,3.18-4.79l5.02,3.26
	l0.54-0.84l-5.01-3.25c1.04-1.61,2.05-3.24,3.07-4.86l5.09,3.18l0.53-0.85l-5.09-3.18c1.01-1.63,2.01-3.26,3-4.9l5.15,3.09
	l0.51-0.86l-5.15-3.09c0.81-1.36,1.64-2.71,2.43-4.07l107.23,61.91C997.91,841.31,986.51,858.45,974.04,874.95z M1059.84,699.14
	c-11.52,42.97-28.32,83.74-50.14,121.83l-107.24-61.91c0.78-1.38,1.57-2.75,2.34-4.13l5.25,2.9l0.48-0.88l-5.24-2.9
	c0.93-1.68,1.82-3.37,2.72-5.06l5.31,2.82l0.47-0.88l-5.31-2.82c0.9-1.69,1.78-3.39,2.66-5.1l5.36,2.73l0.45-0.89l-5.36-2.73
	c0.87-1.71,1.74-3.41,2.58-5.13l5.39,2.62l0.44-0.9l-5.4-2.63c0.84-1.72,1.65-3.46,2.46-5.19l12.31,5.74l0.42-0.91l-12.3-5.74
	c0.81-1.74,1.59-3.49,2.37-5.24l5.52,2.45l0.41-0.91l-5.52-2.45c0.78-1.75,1.55-3.5,2.3-5.27l5.55,2.36l0.39-0.92l-5.56-2.36
	c0.74-1.77,1.48-3.53,2.2-5.31l5.6,2.26l0.38-0.93l-5.59-2.26c0.71-1.78,1.39-3.57,2.08-5.36l5.66,2.17l0.36-0.93l-5.66-2.17
	c0.68-1.79,1.35-3.58,2-5.39l12.8,4.66l0.34-0.94l-12.81-4.66c0.65-1.8,1.31-3.6,1.93-5.41l5.73,1.97l0.32-0.94l-5.74-1.97
	c0.62-1.81,1.22-3.63,1.82-5.45l5.78,1.88l0.31-0.95l-5.77-1.87c0.59-1.82,1.14-3.65,1.7-5.49l5.83,1.78l0.29-0.96l-5.83-1.78
	c0.55-1.83,1.1-3.67,1.64-5.51l5.85,1.67l0.28-0.96l-5.86-1.68c0.53-1.84,1.05-3.68,1.55-5.53l13.17,3.53l0.26-0.97l-13.17-3.53
	c0.49-1.85,0.95-3.71,1.42-5.57l5.92,1.47l0.24-0.97l-5.91-1.47c0.46-1.86,0.9-3.72,1.34-5.59l5.94,1.37l0.22-0.97l-5.94-1.37
	c0.43-1.87,0.86-3.73,1.27-5.6l5.94,1.26l0.21-0.98l-5.95-1.26c0.4-1.88,0.78-3.75,1.15-5.63l5.96,1.16l0.19-0.98l-5.95-1.16
	c0.37-1.88,0.7-3.77,1.03-5.65l13.42,2.37l0.17-0.98l-13.42-2.37c0.33-1.89,0.66-3.78,0.96-5.67l5.99,0.95l0.16-0.99l-5.99-0.95
	c0.3-1.89,0.61-3.78,0.88-5.68l5.97,0.84l0.14-0.99l-5.98-0.84c0.27-1.9,0.51-3.8,0.74-5.7l6,0.74l0.12-0.99l-5.99-0.73
	c0.23-1.9,0.44-3.81,0.65-5.71l6.01,0.63l0.1-0.99l-6.01-0.63c0.2-1.9,0.4-3.81,0.57-5.72l13.53,1.18l0.09-1l-13.53-1.18
	c0.17-1.91,0.33-3.82,0.47-5.73l5.99,0.42l0.07-1l-5.98-0.42c0.13-1.91,0.23-3.83,0.33-5.74l6.01,0.31l0.05-1l-6.01-0.31
	c0.1-1.91,0.18-3.83,0.25-5.74l6.01,0.21l0.03-1l-6.01-0.21c0.07-1.91,0.14-3.83,0.17-5.74l5.99,0.1l0.02-1l-6-0.1
	c0.03-1.58,0.04-3.16,0.04-4.75h123.83C1077.19,612.46,1071.35,656.17,1059.84,699.14z"/>
<path fill="#FFF" d="M728.96,107.19c-0.09-0.15-0.25-0.24-0.42-0.23l-29.4,1.77c-0.22,0.01-0.4,0.18-0.42,0.4c-0.02,0.22,0.11,0.42,0.32,0.49
	l13.26,4.01l-49.19,28.43l-11.8-20.45c-0.13-0.22-0.41-0.29-0.62-0.17l-3.95,2.28c-0.22,0.12-0.29,0.4-0.17,0.62l11.8,20.45
	l-20.44,11.8c-0.1,0.06-0.18,0.16-0.21,0.28s-0.02,0.24,0.05,0.35l2.28,3.95c0.12,0.22,0.41,0.29,0.62,0.17l20.44-11.8l11.81,20.45
	c0.06,0.1,0.16,0.18,0.28,0.21c0.12,0.03,0.24,0.01,0.35-0.05l3.95-2.28c0.22-0.13,0.29-0.4,0.17-0.62l-11.81-20.45l49.19-28.43
	l-3.18,13.69c-0.05,0.21,0.06,0.43,0.26,0.52c0.21,0.09,0.44,0.02,0.56-0.17l16.27-24.75C729.04,107.53,729.04,107.34,728.96,107.19
	"/>
<path fill="#FFF" d="M901.28,283.67c0.03-0.13,0.01-0.26-0.06-0.37s-0.18-0.18-0.31-0.2l-10.56-1.75c-0.21-0.04-0.42,0.08-0.5,0.28
	s-0.01,0.42,0.16,0.55l4.47,3.09c-0.22,0.28-0.45,0.54-0.7,0.79c-3.34,3.34-8.76,3.35-12.08,0.02c-3.33-3.32-3.33-8.74,0-12.06
	l28.34-28.34c4.15-4.15,4.15-10.89,0-15.04c-2.15-2.14-5.06-3.26-8.07-3.1c0.16-3.01-0.96-5.92-3.1-8.07
	c-2.14-2.14-5.06-3.26-8.07-3.1c0.16-3.01-0.96-5.93-3.1-8.07c-4.15-4.15-10.89-4.15-15.04,0c-0.18,0.18-0.18,0.47,0,0.65l3.23,3.22
	c0.18,0.18,0.47,0.18,0.65,0c2.01-2.01,5.28-2.01,7.3,0c2.01,2.01,2.01,5.28,0,7.29L860.3,243c-0.09,0.09-0.14,0.2-0.14,0.32
	c0,0.12,0.05,0.24,0.13,0.32l3.23,3.23c0.09,0.09,0.2,0.13,0.33,0.13c0.12,0,0.24-0.05,0.32-0.13l23.54-23.54
	c2.01-2.01,5.28-2.01,7.29,0c2.01,2.01,2.01,5.28,0,7.29l-23.54,23.54c-0.18,0.18-0.18,0.47,0,0.65l3.23,3.23
	c0.09,0.08,0.2,0.13,0.32,0.13s0.24-0.05,0.32-0.13l23.54-23.54c2.01-2.01,5.29-2.01,7.3,0.01c2.01,2.01,2.01,5.28,0,7.29
	l-28.34,28.34c-5.46,5.46-5.46,14.35,0,19.81s14.36,5.45,19.83-0.02C899.4,288.2,900.65,286.03,901.28,283.67"/>
<path fill="#FFF" d="M992.52,492.09l-19.28-71.97c-0.07-0.24-0.32-0.39-0.56-0.32l-4.41,1.18c-0.24,0.07-0.39,0.32-0.32,0.56l19.29,71.97
	c0.07,0.24,0.32,0.39,0.56,0.32l4.41-1.18C992.44,492.59,992.58,492.34,992.52,492.09"/>
<path fill="#FFF" d="M1004.51,488.88l-4.15-15.51c2.22,0.09,4.44-0.16,6.61-0.74c5.72-1.53,10.51-5.21,13.47-10.34
	c2.97-5.13,3.75-11.11,2.22-16.84c-1.53-5.72-5.21-10.51-10.34-13.47s-11.11-3.75-16.84-2.22c-2.17,0.58-4.21,1.47-6.1,2.66
	l-4.16-15.51c-0.06-0.24-0.31-0.39-0.56-0.32l-4.41,1.18c-0.24,0.07-0.39,0.32-0.32,0.56l6.37,23.76c0.05,0.17,0.19,0.3,0.37,0.33
	s0.36-0.05,0.46-0.21c2.25-3.53,5.72-6.07,9.77-7.16c8.9-2.39,18.08,2.91,20.47,11.82c2.38,8.9-2.92,18.08-11.82,20.47
	c-4.05,1.08-8.33,0.62-12.04-1.32c-0.16-0.08-0.36-0.07-0.5,0.05c-0.14,0.11-0.2,0.3-0.15,0.47l6.36,23.75
	c0.07,0.24,0.32,0.39,0.56,0.32l4.41-1.18C1004.43,489.37,1004.58,489.12,1004.51,488.88"/>
<path fill="#FFF" d="M1016.12,719.17c5.53-3.19,9.49-8.35,11.14-14.52c1-3.73,1.09-7.65,0.26-11.38l7.73,2.07c0.19,0.05,0.4-0.03,0.51-0.2
	c0.1-0.17,0.09-0.38-0.04-0.54l-13.67-16.43l16.61,4.45c0.19,0.05,0.4-0.03,0.5-0.2c0.11-0.17,0.1-0.38-0.03-0.54l-13.67-16.46
	l16.61,4.45c0.2,0.05,0.4-0.03,0.51-0.19c0.1-0.17,0.09-0.39-0.04-0.54l-14.58-17.56c-0.11-0.13-0.28-0.19-0.45-0.15
	c-0.16,0.04-0.3,0.16-0.34,0.33l-0.59,2.21c-0.04,0.14-0.01,0.3,0.09,0.41l6.09,7.34l-25.26-6.77c-0.24-0.07-0.49,0.08-0.56,0.32
	l-1.18,4.41c-0.06,0.24,0.08,0.49,0.32,0.56l14.74,3.95l8.53,10.27l-25.26-6.77c-0.25-0.07-0.49,0.08-0.56,0.32l-1.18,4.41
	c-0.07,0.25,0.08,0.5,0.32,0.56l14.74,3.95l8.5,10.24l-40.58-10.87l4.11-15.35c0.07-0.24-0.08-0.49-0.32-0.56l-4.41-1.18
	c-0.24-0.07-0.49,0.08-0.56,0.32l-4.11,15.35l-15.35-4.11c-0.24-0.07-0.49,0.08-0.56,0.32l-1.18,4.41c-0.07,0.25,0.08,0.5,0.32,0.56
	l15.41,4.13c-1.4,6.32-2.45,15.43,0.2,23.81c1.33,4.21,3.48,7.79,6.38,10.64c3.27,3.21,7.54,5.54,12.71,6.92
	C1004.14,723.21,1010.58,722.37,1016.12,719.17 M1021.26,691.59c1.51,3.73,1.75,7.75,0.71,11.64c-2.63,9.82-12.76,15.67-22.58,13.04
	c-8.14-2.18-13.37-7.14-15.55-14.73c-1.98-6.88-1.05-14.56,0.14-19.94L1021.26,691.59z"/>
<path fill="#FFF" d="M855.06,904.68c1.07-1.07,1.07-2.8,0-3.87c-1.4-1.4-2.16-3.25-2.16-5.23c0-1.97,0.77-3.83,2.17-5.23
	c1.4-1.4,3.25-2.16,5.23-2.16c3.16,0,5.72,2.67,7.06,5.16c0.49,0.91,0.95,1.84,1.4,2.74c1.53,3.07,3.12,6.24,5.76,8.88
	c5.58,5.59,13.01,8.66,20.91,8.66c7.9,0,15.33-3.08,20.91-8.67c5.59-5.58,8.66-13.01,8.66-20.91c0-7.9-3.08-15.32-8.66-20.91
	c-2.9-2.9-6.3-5.13-10.1-6.62c-3.43-1.34-7.03-2.03-10.71-2.04c0.83-1.73,1.26-3.64,1.26-5.56c0-7.1-5.78-12.88-12.87-12.87
	c-3.44,0-6.67,1.34-9.1,3.77s-3.77,5.67-3.77,9.1c0,7.1,5.78,12.88,12.88,12.88c1.32,0,2.61-0.2,3.85-0.58
	c8.88-2.78,18.34-0.56,24.7,5.8c9.39,9.39,9.39,24.68,0,34.07c-9.4,9.4-24.68,9.4-34.08,0c-2.69-2.69-4.17-5.74-5.83-9.47
	c-1.14-2.55-2.79-4.72-4.77-6.27c-2.21-1.73-4.8-2.65-7.49-2.65c-3.44,0-6.67,1.34-9.1,3.77s-3.77,5.67-3.77,9.1s1.34,6.67,3.77,9.1
	C852.26,905.75,853.99,905.75,855.06,904.68 M876.51,848.93c0-1.98,0.77-3.83,2.17-5.23c1.4-1.4,3.25-2.17,5.23-2.16
	c1.97,0,3.83,0.77,5.23,2.17c1.4,1.4,2.16,3.25,2.17,5.23c0,1.98-0.77,3.83-2.17,5.23c-1.4,1.4-3.25,2.17-5.23,2.17
	C879.82,856.32,876.51,853.01,876.51,848.93z"/>
<path fill="#FFF" d="M710.44,1005.57L710.44,1005.57c-3.32,0.89-6.1,3.02-7.82,6c-1.72,2.98-2.18,6.45-1.29,9.77c0.5,1.85,1.4,3.58,2.64,5.03
	c-5.01,0.86-14.77,1.08-28.39-5.33c-10.5-4.93-18.46-11.31-23.3-15.79c-5.24-4.87-8.03-8.61-8.06-8.65
	c-0.11-0.15-0.31-0.22-0.48-0.17c-0.04,0.01-0.08,0.03-0.12,0.05c-0.2,0.12-0.27,0.38-0.17,0.59c0.02,0.05,2.49,4.94,7.55,10.91
	c2.97,3.51,6.25,6.71,9.73,9.5c4.36,3.5,9.07,6.37,13.99,8.54c21.6,9.54,40.16,5.01,42.2,4.46c0.1-0.03,0.16-0.04,0.18-0.05
	c6.86-1.84,10.94-8.91,9.1-15.77c-0.89-3.32-3.02-6.1-6-7.82C717.23,1005.14,713.76,1004.68,710.44,1005.57 M715.68,1025.15
	c-1.91,0.51-3.9,0.25-5.61-0.74c-1.71-0.99-2.93-2.58-3.44-4.49s-0.25-3.9,0.74-5.61c0.99-1.71,2.58-2.93,4.49-3.45
	c1.91-0.51,3.9-0.25,5.61,0.74c1.71,0.99,2.93,2.58,3.45,4.49C721.97,1020.03,719.62,1024.09,715.68,1025.15z"/>
<path fill="#FFF" d="M656.31,995.3L656.31,995.3c3.32-0.89,6.1-3.02,7.82-6c1.72-2.98,2.18-6.45,1.29-9.77c-0.5-1.86-1.4-3.58-2.65-5.03
	c5.01-0.86,14.76-1.08,28.39,5.33c10.5,4.93,18.46,11.31,23.3,15.8c5.24,4.86,8.04,8.6,8.06,8.64c0.14,0.19,0.4,0.24,0.61,0.12
	c0.2-0.13,0.27-0.38,0.17-0.6c-0.03-0.04-2.49-4.93-7.55-10.91c-2.97-3.51-6.25-6.7-9.73-9.5c-4.36-3.49-9.07-6.37-13.99-8.54
	c-21.6-9.54-40.16-5.01-42.2-4.46c-0.1,0.03-0.16,0.04-0.18,0.05c-6.85,1.84-10.94,8.91-9.1,15.77c0.89,3.32,3.02,6.1,6,7.82
	C649.52,995.74,652.99,996.19,656.31,995.3 M651.07,975.72c1.91-0.51,3.9-0.25,5.61,0.74c1.71,0.99,2.93,2.58,3.44,4.49
	s0.25,3.9-0.74,5.61c-0.99,1.71-2.58,2.93-4.49,3.45c-1.91,0.51-3.9,0.25-5.61-0.74c-1.71-0.99-2.93-2.58-3.45-4.49
	C644.78,980.84,647.13,976.78,651.07,975.72z"/>
<path fill="#FFF" d="M429.71,961.88c3.25,3.56,8.6,8.6,15.71,12.5l-12.2,45.54c-8.11-0.18-15.27,1.51-19.86,2.97c-5.06,1.61-8.12,3.26-8.25,3.32
	c-0.21,0.12-0.29,0.37-0.2,0.59c0.09,0.21,0.34,0.32,0.56,0.25c0.04-0.01,4.44-1.44,11.34-2.16c6.38-0.67,16.24-0.87,27.01,2.02
	c10.77,2.88,19.2,7.97,24.38,11.74c5.62,4.08,8.73,7.52,8.76,7.56c0.16,0.17,0.42,0.2,0.61,0.06c0.19-0.14,0.24-0.41,0.12-0.61
	c-0.08-0.12-1.91-3.07-5.48-7c-3.25-3.56-8.59-8.6-15.71-12.5l12.2-45.54c8.11,0.18,15.26-1.51,19.86-2.97
	c5.06-1.61,8.12-3.25,8.25-3.32c0.21-0.11,0.3-0.36,0.2-0.58c-0.06-0.13-0.17-0.22-0.3-0.26c-0.08-0.02-0.17-0.02-0.26,0.01
	c-0.04,0.01-4.44,1.43-11.34,2.16c-6.38,0.67-16.24,0.87-27.01-2.02c-10.77-2.89-19.2-7.98-24.38-11.74
	c-5.62-4.08-8.73-7.52-8.76-7.56c-0.16-0.17-0.42-0.2-0.61-0.06c-0.19,0.14-0.24,0.4-0.12,0.6
	C424.31,955,426.14,957.95,429.71,961.88 M451.49,1023.75c-2.05-0.86-4.14-1.57-6.24-2.13c-2.1-0.56-4.27-0.99-6.47-1.28
	l11.67-43.55c2.05,0.85,4.14,1.57,6.24,2.13c2.1,0.56,4.27,0.99,6.47,1.28L451.49,1023.75z"/>
<path fill="#FFF" d="M197.37,883.49c-0.24-0.01-0.44,0.17-0.47,0.4c-0.03,0.23,0.13,0.45,0.36,0.5c0.04,0.01,4.58,0.98,10.93,3.81
	c5.85,2.61,14.48,7.37,22.36,15.25s12.64,16.51,15.25,22.36c2.83,6.35,3.8,10.88,3.81,10.93c0.05,0.23,0.26,0.39,0.5,0.36
	s0.41-0.23,0.4-0.47c0-0.14-0.1-3.38-1.13-8.28c-0.9-4.28-2.7-10.62-6.24-17.07c3.38,1.15,6.9,1.73,10.49,1.73
	c4.24,0,8.37-0.8,12.28-2.39c4.05-1.64,7.69-4.06,10.8-7.17c3.12-3.12,5.53-6.75,7.17-10.8c1.59-3.91,2.39-8.04,2.39-12.28
	c0-4.24-0.81-8.37-2.39-12.28c-1.64-4.05-4.06-7.68-7.17-10.8c-3.12-3.12-6.75-5.53-10.8-7.17c-3.91-1.59-8.04-2.39-12.28-2.39
	c-4.24,0-8.37,0.81-12.28,2.39c-4.05,1.64-7.68,4.05-10.8,7.17c-3.12,3.11-5.53,6.75-7.17,10.8c-1.59,3.91-2.39,8.05-2.39,12.28
	c0,3.59,0.58,7.12,1.73,10.5c-6.44-3.53-12.79-5.33-17.07-6.24C200.75,883.6,197.5,883.5,197.37,883.49 M272.84,861.16
	c2.59,2.59,4.6,5.62,5.97,8.99c1.32,3.26,1.99,6.69,1.99,10.22c0,3.53-0.67,6.97-1.99,10.22c-1.37,3.37-3.38,6.4-5.97,8.99
	c-2.59,2.59-5.62,4.6-8.99,5.97c-3.26,1.32-6.7,1.99-10.22,1.99c-3.53,0-6.97-0.67-10.22-1.99c-3.37-1.37-6.4-3.37-8.99-5.97
	c-2.59-2.59-4.6-5.62-5.97-8.99c-1.32-3.26-1.99-6.7-1.99-10.22c0-3.53,0.67-6.97,1.99-10.22c1.37-3.37,3.38-6.4,5.97-8.99
	c2.59-2.59,5.62-4.6,8.99-5.97c3.25-1.32,6.7-1.99,10.22-1.99c3.53,0,6.97,0.67,10.22,1.99
	C267.22,856.56,270.25,858.56,272.84,861.16z"/>
<path fill="#FFF" d="M92.72,659.46c-1.79,3.09-2.15,6.71-1.07,10.74c1.31,4.87,5,8.48,10.99,10.71c4.89,1.83,11.38,2.74,19.3,2.72
	c3.88-0.01,8.15-0.25,12.73-0.72c-4.2,1.89-8.02,3.81-11.38,5.74c-6.87,3.94-12.04,7.98-15.36,12c-4.07,4.93-5.47,9.9-4.16,14.77
	c1.08,4.04,3.2,6.99,6.29,8.77c5.1,2.94,10.99,1.4,11.24,1.33c0.22-0.06,0.36-0.27,0.33-0.49s-0.21-0.4-0.43-0.41
	c-7.99-0.37-12.71-3.04-14.03-7.93c-0.2-0.74-0.29-1.4-0.36-2.02c-0.45-3.96,1.46-7.88,5.84-12c3.86-3.63,9-6.76,13.52-9.36
	c11.22-6.43,26.29-12.36,42.46-16.69c1.46-0.39,2.33-1.9,1.94-3.35c-0.39-1.45-1.89-2.32-3.35-1.94
	c-16.56,4.33-32.59,6.74-45.12,6.77c-5.21,0.01-11.22-0.13-16.38-1.34c-5.86-1.37-9.47-3.81-11.06-7.47
	c-0.24-0.56-0.5-1.19-0.7-1.93c-1.31-4.89,1.44-9.57,8.18-13.89c0.19-0.12,0.26-0.36,0.17-0.57c-0.09-0.21-0.32-0.32-0.54-0.26
	C101.53,652.74,95.68,654.34,92.72,659.46"/>
<path fill="#FFF" d="M179.08,424.44c-9,12.45-24.45,18.54-39.48,15.6l3.29-12.27c0.06-0.25-0.08-0.49-0.32-0.56l-4.41-1.18
	c-0.24-0.07-0.49,0.08-0.56,0.32l-3.29,12.27c-14.49-4.97-24.82-17.97-26.39-33.25c-0.02-0.22-0.2-0.39-0.42-0.41
	s-0.42,0.12-0.48,0.34l-1.18,4.4c-0.01,0.05-0.02,0.11-0.01,0.16c0.79,7.73,3.71,15.11,8.44,21.33
	c4.81,6.32,11.16,10.98,18.41,13.49l-3.03,11.3c-7.53-1.45-15.37-0.59-22.69,2.48c-7.21,3.02-13.42,7.96-17.98,14.26
	c-0.03,0.04-0.06,0.09-0.07,0.15l-1.18,4.4c-0.06,0.21,0.05,0.44,0.24,0.53c0.2,0.09,0.44,0.03,0.57-0.15
	c8.99-12.45,24.44-18.54,39.48-15.6l-3.29,12.27c-0.07,0.24,0.08,0.49,0.32,0.56l4.41,1.18c0.24,0.07,0.49-0.08,0.56-0.32
	l3.29-12.27c14.49,4.97,24.82,17.97,26.39,33.25c0.02,0.22,0.2,0.39,0.42,0.41s0.42-0.12,0.47-0.34l1.18-4.4
	c0.01-0.05,0.02-0.11,0.01-0.16c-0.79-7.73-3.71-15.11-8.44-21.33c-4.81-6.32-11.17-10.98-18.41-13.49l3.03-11.31
	c7.53,1.45,15.36,0.59,22.69-2.48c7.21-3.02,13.42-7.95,17.98-14.26c0.03-0.04,0.06-0.09,0.07-0.15l1.18-4.4
	c0.06-0.21-0.05-0.43-0.24-0.53C179.45,424.2,179.21,424.27,179.08,424.44"/>
<path fill="#FFF" d="M476.5,116.1c-6.57-3.82-14.24-4.85-21.59-2.92c-0.68,0.18-1.36,0.37-2.08,0.59c7.36-7.6,16.64-13.05,26.95-15.81
	c0.24-0.07,0.39-0.32,0.32-0.56l-2.36-8.82c-0.07-0.24-0.32-0.39-0.56-0.32l-71.98,19.29c-0.24,0.06-0.39,0.32-0.32,0.56l2.36,8.82
	c0.03,0.12,0.11,0.22,0.21,0.28s0.23,0.08,0.35,0.04l46.89-12.57c-4.76,3.84-8.94,8.33-12.43,13.36
	c-5.84,2.98-11.17,6.84-15.83,11.46c-4.6,4.56-8.48,9.78-11.53,15.51c-0.05,0.1-0.07,0.22-0.04,0.33l1.82,6.78
	c0.05,0.19,0.21,0.32,0.41,0.34c0.2,0.01,0.38-0.1,0.45-0.28c4.11-9.67,10.69-18.01,19.07-24.22c-0.28,0.61-0.55,1.23-0.81,1.84
	c-2.45,5.87-2.88,12.23-1.22,18.39c1.97,7.37,6.7,13.53,13.3,17.34c6.61,3.82,14.3,4.83,21.67,2.85c7.37-1.97,13.53-6.7,17.34-13.31
	s4.83-14.3,2.85-21.67C487.78,126.07,483.07,119.92,476.5,116.1 M468.13,163.1c-12.29,3.29-24.98-4.03-28.27-16.32
	c-1.34-4.99-0.99-10.15,1.01-14.9c2.79-6.64,8.37-11.51,15.31-13.37c12.29-3.29,24.98,4.03,28.27,16.32
	C487.75,147.12,480.42,159.81,468.13,163.1z"/>
<path fill="#FFF" d="M277.07,224.51c-3.53,3.53-3.26,7.37-3.04,10.46c0.21,2.9,0.24,4.48-1.42,6.14s-3.25,1.63-6.14,1.42
	c-3.09-0.22-6.93-0.49-10.46,3.04s-3.25,7.37-3.04,10.46c0.21,2.89,0.24,4.48-1.43,6.14c-1.66,1.66-3.25,1.63-6.14,1.42
	c-3.09-0.22-6.93-0.49-10.46,3.04c-3.53,3.53-3.26,7.37-3.04,10.46c0.21,2.9,0.24,4.48-1.43,6.14c-0.19,0.19-0.19,0.51,0,0.7
	l3.23,3.22c0.19,0.19,0.5,0.19,0.7,0c3.53-3.53,3.25-7.37,3.04-10.46c-0.21-2.9-0.24-4.48,1.43-6.14c1.66-1.66,3.25-1.63,6.14-1.42
	c3.09,0.22,6.93,0.49,10.46-3.04s3.26-7.37,3.04-10.46c-0.21-2.89-0.24-4.48,1.42-6.14s3.25-1.63,6.14-1.42
	c3.09,0.22,6.93,0.49,10.46-3.04s3.25-7.37,3.03-10.46c-0.2-2.89-0.23-4.48,1.43-6.14c0.19-0.19,0.19-0.51,0-0.7l-3.23-3.22
	C277.58,224.32,277.26,224.32,277.07,224.51"/>
<path fill="#FFF" d="M265.93,213.37c-3.53,3.53-3.26,7.37-3.04,10.46c0.21,2.89,0.24,4.48-1.42,6.14s-3.25,1.63-6.15,1.42
	c-3.09-0.22-6.93-0.49-10.46,3.04c-3.53,3.53-3.25,7.37-3.04,10.46c0.21,2.89,0.24,4.48-1.43,6.14c-1.66,1.66-3.25,1.63-6.14,1.42
	c-3.09-0.22-6.93-0.49-10.46,3.04c-3.53,3.53-3.26,7.37-3.04,10.46c0.21,2.89,0.24,4.48-1.43,6.14c-0.19,0.19-0.19,0.5,0,0.7
	l3.23,3.22c0.19,0.19,0.5,0.19,0.7,0c3.53-3.53,3.25-7.37,3.04-10.46c-0.21-2.89-0.24-4.48,1.43-6.14c1.66-1.66,3.25-1.63,6.14-1.42
	c3.09,0.22,6.93,0.49,10.46-3.04s3.26-7.37,3.04-10.46c-0.21-2.89-0.24-4.48,1.43-6.14c1.66-1.66,3.25-1.63,6.14-1.42
	c3.09,0.22,6.93,0.49,10.46-3.04s3.25-7.37,3.04-10.46c-0.21-2.89-0.24-4.48,1.42-6.14c0.19-0.19,0.19-0.51,0-0.7l-3.22-3.22
	C266.44,213.18,266.12,213.18,265.93,213.37"/>
<rect x="481.21" y="582.58" width="2.06" height="14.41"/>
<path fill="#FFF" d="M499.81,634.69c0.74-0.66,1.67-1.47,2.58-2.31c1.59-1.49,4.15-3.82,4.15-6.15c0-1.34-1.2-2.29-2.77-2.29
	c-1.28,0-2.52,0.49-3.3,0.93l-0.21-1.78c1.2-0.52,2.48-0.85,3.78-0.85c2.6,0,4.69,1.4,4.69,4.11c0,2.4-2.58,4.96-4.17,6.54
	c-0.81,0.81-1.84,1.67-2.54,2.31h6.92v1.69h-9.12v-2.2"/>
<path fill="#FFF" d="M541.66,650.66h1.16c1.49,0,3.57-0.52,3.57-2.35c0-1.65-1.32-2.27-2.83-2.27c-1.3,0-2.33,0.35-3.2,0.78l-0.12-1.84
	c0.95-0.35,2.4-0.64,3.61-0.64c2.54,0,4.73,1.2,4.73,3.92c0,1.82-1.45,2.97-3.1,3.28v0.04c1.92,0.39,3.22,1.53,3.22,3.57
	c0,3.3-2.83,4.09-5.68,4.09c-1.15,0-2.39-0.29-3.3-0.56l0.12-1.92c0.74,0.37,1.92,0.78,3.16,0.78c1.57,0,3.51-0.62,3.51-2.46
	c0-2.15-1.74-2.75-3.59-2.75h-1.26L541.66,650.66"/>
<rect fill="#FFF" x="581.12" y="644.65" width="2.07" height="14.41"/>
<polyline fill="#FFF" points="592.33,659.06 589.75,659.06 584.32,644.65 586.63,644.65 591.07,657.24 591.11,657.24 595.67,644.65
	597.84,644.65 592.33,659.06 "/>
<path fill="#FFF" d="M632.81,623.45h-5.99l-0.12,3.86c0.39-0.1,1.03-0.21,1.86-0.21c2.54,0,4.67,1.9,4.67,4.46c0,3.16-2.52,4.85-5.51,4.85
	c-1.57,0-2.58-0.29-3.1-0.47l0.06-1.94c0.89,0.5,1.73,0.72,2.99,0.72c1.71,0,3.36-1.01,3.36-2.85c0-2.06-1.55-3.08-3.49-3.08
	c-1.24,0-2.02,0.21-2.79,0.54l0.12-7.58h7.93v1.7"/>
<path fill="#FFF" d="M655.54,584.64c-0.74-0.39-1.63-0.6-2.56-0.6c-2.68,0-3.98,2.48-4.02,5.24l0.04-0.02c0.97-0.95,1.96-1.32,3.16-1.32
	c2.79,0,4.33,1.96,4.33,4.54c0,2.97-2,4.77-4.62,4.77c-4.03,0-4.85-3.63-4.85-6.92c0-3.9,1.28-7.99,5.84-7.99
	c0.99,0,2.46,0.23,2.97,0.46L655.54,584.64 M651.89,589.64c-1.71,0-2.68,1.28-2.68,2.89c0,1.36,0.85,3.03,2.54,3.03
	c1.73,0,2.56-1.49,2.56-3.03C654.3,591.19,653.52,589.64,651.89,589.64z"/>
<polyline fill="#FFF" points="646.94,551.79 644.35,551.79 638.93,537.38 641.24,537.38 645.68,549.97 645.72,549.97 650.28,537.38
	652.45,537.38 646.94,551.79 "/>
<rect fill="#FFF" x="653.38" y="537.38" width="2.06" height="14.41"/>
<rect fill="#FFF" x="659.11" y="537.38" width="2.07" height="14.41"/>
<path fill="#FFF" d="M623.9,508.55c0-1.92,1.32-3.2,3.05-3.8v-0.04c-2.1-0.74-2.7-2.23-2.7-3.59c0-1.84,1.73-3.45,4.67-3.45
	c2.85,0,4.46,1.65,4.46,3.24c0,1.61-0.66,2.68-2.6,3.72c1.73,0.6,3.04,1.9,3.04,3.82c0,2.89-2.29,4.13-5,4.13
	C626.38,512.57,623.9,511.21,623.9,508.55 M628.48,505.51c-1.18,0.83-2.39,1.22-2.39,2.91c0,1.59,1.47,2.46,2.91,2.46
	c1.38,0,2.58-0.83,2.62-2.27C631.69,506.59,630.03,506.26,628.48,505.51z M629.29,504.03c1.69-1.3,1.9-1.86,1.9-2.85
	c0-1.36-1.4-1.82-2.43-1.82c-0.95,0-2.44,0.68-2.44,2.04C626.32,502.4,627.35,503.08,629.29,504.03z"/>
<path fill="#FFF" d="M585.81,487.67c0.74,0.39,1.63,0.6,2.56,0.6c2.68,0,3.98-2.48,4.03-5.24l-0.04,0.02c-0.97,0.95-1.96,1.32-3.16,1.32
	c-2.79,0-4.34-1.96-4.34-4.54c0-2.97,2-4.77,4.62-4.77c4.03,0,4.85,3.63,4.85,6.92c0,3.9-1.28,7.99-5.84,7.99
	c-0.99,0-2.46-0.23-2.97-0.45L585.81,487.67 M589.46,482.68c1.71,0,2.68-1.28,2.68-2.89c0-1.36-0.85-3.04-2.54-3.04
	c-1.73,0-2.56,1.49-2.56,3.04C587.04,481.13,587.83,482.68,589.46,482.68z"/>
<polyline fill="#FFF" points="542.84,482.22 538,475.31 540.48,475.31 544.32,480.84 548.14,475.31 550.49,475.31 545.64,482.18 550.97,489.72
	548.37,489.72 544.11,483.61 540.01,489.72 537.53,489.72 542.84,482.22 "/>
<polyline fill="#FFF" points="501.39,500.29 499.18,502.19 498.08,500.8 501.61,497.91 503.45,497.91 503.45,512.33 501.39,512.33
	501.39,500.29 "/>
<polyline fill="#FFF" points="509.77,500.29 507.56,502.19 506.46,500.8 509.99,497.91 511.83,497.91 511.83,512.33 509.77,512.33
	509.77,500.29 "/>
<polyline fill="#FFF" points="476.88,539.75 474.67,541.65 473.58,540.27 477.11,537.38 478.95,537.38 478.95,551.79 476.88,551.79
	476.88,539.75 "/>
<path fill="#FFF" d="M481.77,549.58c0.74-0.66,1.67-1.47,2.58-2.31c1.59-1.49,4.15-3.82,4.15-6.15c0-1.34-1.2-2.29-2.77-2.29
	c-1.28,0-2.52,0.49-3.3,0.93l-0.21-1.78c1.2-0.52,2.48-0.85,3.78-0.85c2.6,0,4.69,1.4,4.69,4.11c0,2.4-2.58,4.96-4.17,6.54
	c-0.8,0.8-1.84,1.67-2.54,2.31h6.92v1.69h-9.12v-2.2"/>
<path fill="#FFF" d="M152.98,518.09l-0.71,8.1l-8.1-0.71l-0.18,2.03l8.1,0.71L151.15,539c-3.8-2.89-13.86-9.91-19.73-8.21
	c-2.38,0.61-4.12,2.67-4.34,5.12s1.15,4.78,3.38,5.8l0.85-1.85c-1.45-0.66-2.34-2.17-2.2-3.76s1.27-2.93,2.85-3.33
	c5.14-1.49,15.74,5.99,19.4,8.99l1.5,1.23l1.27-14.59l8.1,0.71l0.18-2.03l-8.1-0.71l0.71-8.1L152.98,518.09"/>
<path fill="#FFF" d="M213.99,316.08c-1.42,2.03-1.8,4.48-1.25,6.71l-3.89-2.72l3.5-4.99l-1.67-1.17l-3.5,4.99l-4.99-3.5l-1.17,1.67l4.99,3.5
	l-3.5,4.99l1.67,1.17l3.5-4.99l8.33,5.84l1.17-1.67c-2.81-1.97-3.49-5.85-1.52-8.65c1.97-2.81,5.85-3.49,8.65-1.52
	c1.82,1.27,2.35,3.03,3.03,5.26c0.98,3.22,2.19,7.23,7.81,11.16l1.17-1.67c-5.04-3.53-6.1-7.01-7.03-10.09
	c-0.73-2.4-1.41-4.66-3.81-6.34C221.75,311.44,216.6,312.35,213.99,316.08"/>
<path fill="#FFF" d="M821.64,217.1l-1.17,1.67l3.81,2.67l-8.65,1.52c-0.61-2.18-1.95-4.17-3.95-5.57c-4.59-3.22-10.95-2.1-14.16,2.5
	c-3.22,4.59-2.1,10.95,2.5,14.16c4.59,3.22,10.95,2.1,14.16-2.5c1.4-2,1.97-4.33,1.8-6.59l8.65-1.53l-2.67,3.81l1.67,1.17l4.67-6.66
	L821.64,217.1 M801.18,232.38c-3.67-2.57-4.57-7.65-2-11.33c2.57-3.67,7.65-4.57,11.33-2c3.67,2.57,4.57,7.65,2,11.33
	C809.93,234.06,804.85,234.95,801.18,232.38z"/>
<path fill="#FFF" d="M185.19,388.05c2.34-6.22-0.34-13.25-6.29-16.03l-0.86,1.85c4.94,2.3,7.18,8.12,5.3,13.31l-9.46-4.41l-0.86,1.85l9.46,4.41
	c-2.78,4.77-8.67,6.79-13.61,4.49l-0.86,1.85c5.96,2.78,13.06,0.32,16.32-5.48l4.35,2.03l-3.44,7.37l1.85,0.86l3.44-7.37l7.37,3.44
	l0.86-1.85l-7.37-3.44l3.44-7.37l-1.85-0.86l-3.44,7.37L185.19,388.05"/>
<path fill="#FFF" d="M329.48,224.47c0.65,0.92,0.42,2.19-0.5,2.84s-2.19,0.42-2.84-0.5s-0.42-2.19,0.5-2.84
	C327.57,223.32,328.84,223.55,329.48,224.47"/>
<path fill="#FFF" d="M329.58,215.62c-2.4-0.42-4.76,0.04-6.73,1.15l-5.04-7.2l4.58,0.81l0.35-2.01l-8.01-1.41l-1.41,8.01l2.01,0.35l0.81-4.58
	l5.04,7.2c-1.72,1.48-2.96,3.53-3.38,5.93c-0.97,5.52,2.73,10.81,8.25,11.78c2.76,0.49,5.46-0.2,7.6-1.69
	c2.13-1.49,3.7-3.8,4.18-6.56C338.8,221.88,335.1,216.6,329.58,215.62 M335.82,227.05c-0.78,4.42-5,7.38-9.42,6.6s-7.38-5-6.6-9.42
	c0.39-2.21,1.64-4.05,3.35-5.25s3.87-1.74,6.07-1.35C333.64,218.41,336.6,222.64,335.82,227.05z"/>
<path fill="#FFF" d="M532.23,135.66c-2.46,0.21-4.58,1.5-5.94,3.36l-0.41-4.73l6.07-0.53l-0.18-2.03l-6.07,0.53l-0.53-6.07l-2.03,0.18l0.53,6.07
	l-6.07,0.53l0.18,2.03l6.07-0.53l0.89,10.13l2.03-0.18c-0.3-3.41,2.23-6.43,5.65-6.73c3.41-0.3,6.43,2.24,6.73,5.65
	c0.19,2.21-0.81,3.75-2.08,5.7c-1.84,2.82-4.12,6.33-3.53,13.16l2.03-0.18c-0.54-6.13,1.45-9.18,3.2-11.87
	c1.37-2.1,2.66-4.08,2.41-6.99C540.77,138.62,536.76,135.26,532.23,135.66"/>
<path fill="#FFF" d="M754.58,194.66l-7.37-3.44l3.44-7.37l-1.85-0.86l-3.44,7.37l-9.81-4.58c4.02-2.59,14.06-9.64,14.46-15.73
	c0.24-2.45-1.1-4.79-3.33-5.83s-4.88-0.56-6.6,1.2l1.46,1.43c1.12-1.14,2.84-1.45,4.29-0.78c1.45,0.67,2.32,2.2,2.16,3.81
	c-0.36,5.34-11.01,12.75-15.08,15.15l-1.67,0.98l13.27,6.19l-3.44,7.37l1.85,0.86l3.44-7.37l7.37,3.44L754.58,194.66"/>
<path fill="#FFF" d="M917.17,321.82c-1.98-2.83-1.29-6.74,1.54-8.72s6.74-1.29,8.72,1.54c1.98,2.83,1.29,6.74-1.54,8.72
	C923.07,325.34,919.15,324.65,917.17,321.82 M925.76,315.81c-1.34-1.91-3.98-2.37-5.88-1.04c-1.91,1.34-2.37,3.98-1.04,5.88
	c1.34,1.91,3.97,2.37,5.88,1.04C926.63,320.35,927.1,317.72,925.76,315.81z"/>
<path fill="#FFF" d="M912.66,326.23c4.22,5.14,11.65,6.33,17.03,2.56l-1.17-1.67c-4.73,3.32-11.38,2.03-14.81-2.87s-2.37-11.58,2.37-14.89
	l-1.17-1.67c-5.38,3.77-6.8,11.16-3.42,16.88l-3.93,2.76l-4.67-6.66l-1.67,1.17l4.67,6.66l-6.66,4.66l1.17,1.67l6.66-4.66l4.66,6.66
	l1.67-1.17l-4.67-6.66L912.66,326.23"/>
<path fill="#FFF" d="M988.97,531.15c0.96,5.07,5.63,8.69,10.88,8.23c5.58-0.49,9.73-5.43,9.24-11.02s-5.43-9.73-11.02-9.25
	c-5.24,0.46-9.22,4.84-9.28,10l-7.14,0.62l-0.71-8.1l-2.03,0.18l0.71,8.1l-8.1,0.71l0.18,2.03l8.1-0.71l0.71,8.1l2.03-0.18
	l-0.71-8.1L988.97,531.15 M998.25,521.15c4.47-0.39,8.42,2.93,8.81,7.39s-2.92,8.42-7.39,8.81c-4.47,0.39-8.42-2.93-8.81-7.39
	C990.47,525.49,993.78,521.54,998.25,521.15z"/>
<path fill="#FFF" d="M950.37,747.01c-1.7,4.87,0.53,10.35,5.3,12.57c3.65,1.7,7.79,1.03,10.72-1.35c0.04,2.63,1.08,5.21,3.04,7.13l1.43-1.46
	c-2.45-2.41-3.13-6.12-1.67-9.24s4.73-4.99,8.16-4.66l0.2-2.03c-2.73-0.26-5.38,0.59-7.41,2.25c-0.06-3.78-2.21-7.38-5.86-9.08
	c-4.77-2.22-10.4-0.42-13.04,4.02l-6.49-3.03l3.44-7.37l-1.85-0.86l-3.44,7.37l-7.37-3.44l-0.86,1.85l7.37,3.44l-3.44,7.37
	l1.85,0.86l3.44-7.37L950.37,747.01 M963.41,742.99c4.06,1.89,5.83,6.74,3.93,10.81s-6.74,5.83-10.81,3.93
	c-4.06-1.9-5.83-6.74-3.93-10.81C954.5,742.86,959.35,741.09,963.41,742.99z"/>
<path fill="#FFF" d="M799.88,899.79c8.73-6.11,20.8-3.98,26.91,4.75s3.98,20.8-4.74,26.91c-8.73,6.11-20.8,3.98-26.91-4.74
	C789.02,917.97,791.15,905.9,799.88,899.79 M820.87,929.78c7.81-5.47,9.71-16.26,4.24-24.07c-5.47-7.81-16.26-9.71-24.07-4.24
	c-7.81,5.47-9.71,16.27-4.24,24.07S813.06,935.24,820.87,929.78z"/>
<path fill="#FFF" d="M809.29,916.79c-0.64-0.92-0.42-2.19,0.5-2.84s2.19-0.42,2.84,0.5c0.64,0.92,0.42,2.19-0.5,2.84
	C811.2,917.93,809.93,917.71,809.29,916.79"/>
<path fill="#FFF" d="M595.07,972.24c4.09-0.36,8.26,0.58,11.85,2.77c5.27,3.21,8.6,8.6,9.14,14.78c0.54,6.17-1.81,12.07-6.46,16.16
	c-4.67,4.12-10.82,5.73-16.88,4.42c-0.44-0.1-0.76-0.47-0.8-0.91c-0.04-0.45,0.22-0.86,0.63-1.03c7.05-2.88,11.34-9.92,10.68-17.51
	c-0.67-7.59-6.11-13.78-13.56-15.39c-0.44-0.09-0.76-0.46-0.8-0.91c-0.04-0.44,0.22-0.86,0.63-1.03
	C591.29,972.86,593.18,972.41,595.07,972.24 M598.35,1008.71c3.62-0.32,7.07-1.78,9.9-4.28c4.15-3.67,6.26-8.93,5.78-14.46
	c-0.48-5.52-3.46-10.34-8.17-13.21c-3.83-2.34-8.26-3.1-12.51-2.22c6.63,2.7,11.27,8.86,11.91,16.2c0.64,7.34-2.86,14.22-8.92,18.03
	C597.01,1008.79,597.68,1008.77,598.35,1008.71z"/>
<path fill="#FFF" d="M386.98,950.59c-4.87-1.7-10.35,0.53-12.57,5.3c-1.7,3.65-1.04,7.79,1.35,10.72c-2.63,0.04-5.21,1.08-7.13,3.04l1.45,1.43
	c2.41-2.46,6.12-3.13,9.24-1.67c3.12,1.45,4.99,4.73,4.66,8.15l2.03,0.2c0.26-2.73-0.59-5.38-2.26-7.41
	c3.78-0.06,7.38-2.21,9.08-5.86c2.22-4.77,0.42-10.41-4.02-13.04l3.03-6.49l7.37,3.44l0.86-1.85l-7.37-3.44l3.44-7.37l-1.85-0.86
	l-3.44,7.37l-7.37-3.44l-0.86,1.85l7.37,3.44L386.98,950.59 M391,963.63c-1.89,4.06-6.74,5.83-10.81,3.93
	c-4.06-1.9-5.83-6.74-3.93-10.81c1.89-4.06,6.74-5.83,10.81-3.93C391.13,954.72,392.9,959.57,391,963.63z"/>
<path fill="#FFF" d="M135.15,596.95l2.03-0.18l-0.41-4.64l6.73,5.65c-1.28,1.87-1.94,4.18-1.73,6.61c0.49,5.59,5.43,9.73,11.02,9.24
	c5.59-0.49,9.73-5.43,9.24-11.02c-0.49-5.59-5.43-9.73-11.02-9.24c-2.43,0.21-4.58,1.27-6.21,2.85l-6.73-5.65l4.64-0.41l-0.18-2.03
	l-8.1,0.71L135.15,596.95 M160.01,602.79c0.39,4.47-2.93,8.42-7.39,8.81c-4.47,0.39-8.42-2.92-8.81-7.39
	c-0.39-4.47,2.93-8.42,7.39-8.81C155.66,595.01,159.62,598.32,160.01,602.79z"/>
<path fill="#FFF" d="M219.18,809.27c-3.36-3.91-9.23-4.71-13.54-1.69c-4.59,3.22-5.71,9.57-2.5,14.17c3.22,4.59,9.57,5.71,14.16,2.5
	c4.31-3.02,5.56-8.8,3.04-13.3l5.87-4.11l4.66,6.66l1.67-1.17l-4.66-6.66l6.66-4.66l-1.17-1.67l-6.66,4.67l-4.66-6.66l-1.67,1.17
	l4.66,6.66L219.18,809.27 M216.15,822.57c-3.67,2.57-8.75,1.68-11.32-2c-2.57-3.67-1.68-8.75,2-11.33c3.67-2.57,8.75-1.67,11.33,2
	C220.71,814.92,219.82,820,216.15,822.57z"/>
</svg>
